SplineFontDB: 3.0
FontName: PinyonScript
FullName: Pinyon Script
FamilyName: Pinyon Script
Weight: Book
Copyright: Copyright (c) 2010 by Sorkin Type Co with Reserved Font Name "Pinyon Script"
Version: 1.003
ItalicAngle: 0
UnderlinePosition: -50
UnderlineWidth: 50
Ascent: 1638
Descent: 410
LayerCount: 2
Layer: 0 1 "Back"  1
Layer: 1 1 "Fore"  0
XUID: [1021 631 1661839179 14697437]
FSType: 0
OS2Version: 3
OS2_WeightWidthSlopeOnly: 0
OS2_UseTypoMetrics: 1
CreationTime: 1314926280
ModificationTime: 1314979870
PfmFamily: 17
TTFWeight: 400
TTFWidth: 5
LineGap: 0
VLineGap: 0
Panose: 2 1 5 1 8 1 1 13 0 2
OS2TypoAscent: 62
OS2TypoAOffset: 1
OS2TypoDescent: -450
OS2TypoDOffset: 1
OS2TypoLinegap: 0
OS2WinAscent: 0
OS2WinAOffset: 1
OS2WinDescent: 0
OS2WinDOffset: 1
HheadAscent: 0
HheadAOffset: 1
HheadDescent: 0
HheadDOffset: 1
OS2SubXSize: 1434
OS2SubYSize: 1331
OS2SubXOff: 0
OS2SubYOff: 287
OS2SupXSize: 1434
OS2SupYSize: 1331
OS2SupXOff: 0
OS2SupYOff: 977
OS2StrikeYSize: 102
OS2StrikeYPos: 512
OS2Vendor: 'STC '
OS2CodePages: 00000001.00000000
OS2UnicodeRanges: 800000af.00000002.00000000.00000000
DEI: 91125
TtTable: prep
PUSHW_1
 511
SCANCTRL
PUSHB_1
 4
SCANTYPE
EndTTInstrs
ShortTable: maxp 16
  1
  0
  262
  342
  10
  0
  0
  1
  0
  0
  0
  0
  0
  0
  0
  0
EndShort

StartChar: a
Encoding: 97 97 5
Width: 877
Flags: W
LayerCount: 2
Fore
SplineSet
194 102 m 0,0,1
 194 168 194 168 222 241.5 c 128,-1,2
 250 315 250 315 314 389 c 0,3,4
 380 465 380 465 443 514.5 c 128,-1,5
 506 564 506 564 565 593 c 128,-1,6
 624 622 624 622 679 633.5 c 128,-1,7
 734 645 734 645 785 645 c 256,8,9
 836 645 836 645 866.5 623.5 c 128,-1,10
 897 602 897 602 897 564 c 0,11,12
 897 537 897 537 885 507 c 1,13,14
 916 544 916 544 938 571.5 c 128,-1,15
 960 599 960 599 980 625 c 1,16,17
 990 622 990 622 1006.5 619.5 c 128,-1,18
 1023 617 1023 617 1039 617 c 0,19,20
 1046 617 1046 617 1056 617 c 128,-1,21
 1066 617 1066 617 1076.5 617.5 c 128,-1,22
 1087 618 1087 618 1096.5 619 c 128,-1,23
 1106 620 1106 620 1112 621 c 1,24,-1
 783 226 l 2,25,26
 721 152 721 152 694 105.5 c 128,-1,27
 667 59 667 59 667 33 c 0,28,29
 667 2 667 2 697 2 c 0,30,31
 741 2 741 2 789 24.5 c 128,-1,32
 837 47 837 47 884.5 82 c 128,-1,33
 932 117 932 117 977.5 160 c 128,-1,34
 1023 203 1023 203 1062 244 c 128,-1,35
 1101 285 1101 285 1130.5 319.5 c 128,-1,36
 1160 354 1160 354 1177 372 c 1,37,-1
 1197 356 l 1,38,39
 1178 336 1178 336 1146.5 299.5 c 128,-1,40
 1115 263 1115 263 1074.5 221 c 128,-1,41
 1034 179 1034 179 986 135 c 128,-1,42
 938 91 938 91 887 55 c 128,-1,43
 836 19 836 19 783.5 -3.5 c 128,-1,44
 731 -26 731 -26 682 -26 c 0,45,46
 632 -26 632 -26 608 -9.5 c 128,-1,47
 584 7 584 7 584 36 c 0,48,49
 584 52 584 52 588.5 68.5 c 128,-1,50
 593 85 593 85 605.5 107.5 c 128,-1,51
 618 130 618 130 641 161 c 128,-1,52
 664 192 664 192 702 238 c 1,53,-1
 693 242 l 1,54,55
 634 169 634 169 578 118 c 128,-1,56
 522 67 522 67 473.5 35 c 128,-1,57
 425 3 425 3 384 -11.5 c 128,-1,58
 343 -26 343 -26 314 -26 c 0,59,60
 251 -26 251 -26 222.5 8 c 128,-1,61
 194 42 194 42 194 102 c 0,0,1
274 54 m 0,62,63
 274 27 274 27 285 15.5 c 128,-1,64
 296 4 296 4 319 4 c 0,65,66
 350 4 350 4 391 21.5 c 128,-1,67
 432 39 432 39 483 76.5 c 128,-1,68
 534 114 534 114 595.5 174 c 128,-1,69
 657 234 657 234 729 319 c 1,70,-1
 809 416 l 1,71,72
 832 450 832 450 850.5 487.5 c 128,-1,73
 869 525 869 525 869 556 c 0,74,75
 869 586 869 586 852.5 600.5 c 128,-1,76
 836 615 836 615 810 615 c 0,77,78
 786 615 786 615 745 598 c 128,-1,79
 704 581 704 581 652 545 c 128,-1,80
 600 509 600 509 539.5 454 c 128,-1,81
 479 399 479 399 415 323 c 0,82,83
 341 235 341 235 307.5 168.5 c 128,-1,84
 274 102 274 102 274 54 c 0,62,63
EndSplineSet
EndChar

StartChar: b
Encoding: 98 98 6
Width: 863
Flags: W
LayerCount: 2
Fore
SplineSet
200 88 m 0,0,1
 200 114 200 114 208 150.5 c 128,-1,2
 216 187 216 187 237.5 239.5 c 128,-1,3
 259 292 259 292 297.5 363.5 c 128,-1,4
 336 435 336 435 397 531 c 0,5,6
 435 589 435 589 489.5 662.5 c 128,-1,7
 544 736 544 736 609.5 816 c 128,-1,8
 675 896 675 896 748.5 979 c 128,-1,9
 822 1062 822 1062 898 1140 c 128,-1,10
 974 1218 974 1218 1049 1286.5 c 128,-1,11
 1124 1355 1124 1355 1192.5 1406 c 128,-1,12
 1261 1457 1261 1457 1320 1486.5 c 128,-1,13
 1379 1516 1379 1516 1423 1516 c 0,14,15
 1460 1516 1460 1516 1475.5 1500 c 128,-1,16
 1491 1484 1491 1484 1491 1456 c 0,17,18
 1491 1410 1491 1410 1461.5 1347.5 c 128,-1,19
 1432 1285 1432 1285 1378 1214.5 c 128,-1,20
 1324 1144 1324 1144 1248 1070 c 128,-1,21
 1172 996 1172 996 1079.5 926.5 c 128,-1,22
 987 857 987 857 880 796.5 c 128,-1,23
 773 736 773 736 657 693 c 1,24,25
 537 544 537 544 458.5 436 c 128,-1,26
 380 328 380 328 334.5 253 c 128,-1,27
 289 178 289 178 271 133 c 128,-1,28
 253 88 253 88 253 66 c 0,29,30
 253 42 253 42 259.5 28 c 128,-1,31
 266 14 266 14 277 6.5 c 128,-1,32
 288 -1 288 -1 304 -3 c 128,-1,33
 320 -5 320 -5 338 -5 c 0,34,35
 381 -5 381 -5 440.5 14 c 128,-1,36
 500 33 500 33 559 70 c 128,-1,37
 618 107 618 107 667 160 c 128,-1,38
 716 213 716 213 739 282 c 1,39,40
 761 325 761 325 772.5 362.5 c 128,-1,41
 784 400 784 400 787.5 432 c 128,-1,42
 791 464 791 464 788.5 489.5 c 128,-1,43
 786 515 786 515 781 534 c 0,44,45
 773 572 773 572 780 598 c 128,-1,46
 787 624 787 624 815 630 c 0,47,48
 842 636 842 636 867.5 620.5 c 128,-1,49
 893 605 893 605 899 576 c 0,50,51
 906 539 906 539 898.5 491 c 128,-1,52
 891 443 891 443 870 390.5 c 128,-1,53
 849 338 849 338 816 285 c 128,-1,54
 783 232 783 232 740 184 c 0,55,56
 733 176 733 176 726 168.5 c 128,-1,57
 719 161 719 161 712 153 c 1,58,59
 689 119 689 119 678 93.5 c 128,-1,60
 667 68 667 68 667 45 c 256,61,62
 667 22 667 22 679.5 11 c 128,-1,63
 692 0 692 0 722 0 c 0,64,65
 760 0 760 0 805.5 25 c 128,-1,66
 851 50 851 50 897.5 88.5 c 128,-1,67
 944 127 944 127 988.5 172.5 c 128,-1,68
 1033 218 1033 218 1069.5 259.5 c 128,-1,69
 1106 301 1106 301 1131 332 c 128,-1,70
 1156 363 1156 363 1163 372 c 1,71,-1
 1184 356 l 1,72,73
 1175 346 1175 346 1149.5 313.5 c 128,-1,74
 1124 281 1124 281 1086.5 238.5 c 128,-1,75
 1049 196 1049 196 1002.5 149.5 c 128,-1,76
 956 103 956 103 907.5 64 c 128,-1,77
 859 25 859 25 810 -0.5 c 128,-1,78
 761 -26 761 -26 719 -26 c 0,79,80
 673 -26 673 -26 654.5 -6 c 128,-1,81
 636 14 636 14 636 46 c 0,82,83
 636 60 636 60 638 71 c 128,-1,84
 640 82 640 82 646 95 c 1,85,86
 605 62 605 62 562 38 c 128,-1,87
 519 14 519 14 478.5 -1.5 c 128,-1,88
 438 -17 438 -17 401 -25 c 128,-1,89
 364 -33 364 -33 334 -33 c 0,90,91
 290 -33 290 -33 263.5 -21.5 c 128,-1,92
 237 -10 237 -10 223 7.5 c 128,-1,93
 209 25 209 25 204.5 46.5 c 128,-1,94
 200 68 200 68 200 88 c 0,0,1
688 731 m 1,95,96
 790 773 790 773 887 834.5 c 128,-1,97
 984 896 984 896 1070 965.5 c 128,-1,98
 1156 1035 1156 1035 1228 1108 c 128,-1,99
 1300 1181 1300 1181 1351.5 1247 c 128,-1,100
 1403 1313 1403 1313 1432 1367 c 128,-1,101
 1461 1421 1461 1421 1461 1452 c 0,102,103
 1461 1472 1461 1472 1451.5 1480.5 c 128,-1,104
 1442 1489 1442 1489 1423 1489 c 0,105,106
 1392 1489 1392 1489 1350.5 1463.5 c 128,-1,107
 1309 1438 1309 1438 1258.5 1393 c 128,-1,108
 1208 1348 1208 1348 1151 1286 c 128,-1,109
 1094 1224 1094 1224 1031.5 1151 c 128,-1,110
 969 1078 969 1078 903.5 996.5 c 128,-1,111
 838 915 838 915 771 831 c 1,112,-1
 688 731 l 1,95,96
EndSplineSet
EndChar

StartChar: c
Encoding: 99 99 7
Width: 648
Flags: W
LayerCount: 2
Fore
SplineSet
172 147 m 0,0,1
 172 210 172 210 201.5 280.5 c 128,-1,2
 231 351 231 351 293 424 c 0,3,4
 346 486 346 486 403.5 529 c 128,-1,5
 461 572 461 572 517.5 598 c 128,-1,6
 574 624 574 624 626.5 634.5 c 128,-1,7
 679 645 679 645 722 644 c 0,8,9
 755 643 755 643 777 634.5 c 128,-1,10
 799 626 799 626 813 613.5 c 128,-1,11
 827 601 827 601 833 585 c 128,-1,12
 839 569 839 569 840 553 c 0,13,14
 841 532 841 532 832.5 513 c 128,-1,15
 824 494 824 494 809 479.5 c 128,-1,16
 794 465 794 465 775 456 c 128,-1,17
 756 447 756 447 737 447 c 0,18,19
 714 447 714 447 694.5 461 c 128,-1,20
 675 475 675 475 673 504 c 0,21,22
 672 531 672 531 694.5 549.5 c 128,-1,23
 717 568 717 568 747 569 c 0,24,25
 760 570 760 570 773 566.5 c 128,-1,26
 786 563 786 563 797 558 c 1,27,-1
 797 562 l 1,28,29
 796 588 796 588 778.5 603.5 c 128,-1,30
 761 619 761 619 722 619 c 0,31,32
 656 619 656 619 565 547 c 128,-1,33
 474 475 474 475 360 324 c 0,34,35
 306 253 306 253 282.5 197.5 c 128,-1,36
 259 142 259 142 259 99 c 0,37,38
 259 57 259 57 285.5 28 c 128,-1,39
 312 -1 312 -1 363 -1 c 0,40,41
 443 -1 443 -1 516.5 25.5 c 128,-1,42
 590 52 590 52 653.5 92 c 128,-1,43
 717 132 717 132 769.5 179 c 128,-1,44
 822 226 822 226 860.5 267.5 c 128,-1,45
 899 309 899 309 921.5 338 c 128,-1,46
 944 367 944 367 948 372 c 1,47,-1
 969 356 l 1,48,49
 965 352 965 352 941 321.5 c 128,-1,50
 917 291 917 291 877 248 c 128,-1,51
 837 205 837 205 782 156.5 c 128,-1,52
 727 108 727 108 660.5 67 c 128,-1,53
 594 26 594 26 517.5 -1.5 c 128,-1,54
 441 -29 441 -29 358 -29 c 0,55,56
 306 -29 306 -29 270.5 -15.5 c 128,-1,57
 235 -2 235 -2 213 22 c 128,-1,58
 191 46 191 46 181.5 78 c 128,-1,59
 172 110 172 110 172 147 c 0,0,1
EndSplineSet
EndChar

StartChar: d
Encoding: 100 100 8
Width: 850
Flags: W
LayerCount: 2
Fore
SplineSet
162 102 m 0,0,1
 162 168 162 168 190.5 241.5 c 128,-1,2
 219 315 219 315 283 389 c 0,3,4
 349 465 349 465 411.5 514.5 c 128,-1,5
 474 564 474 564 532.5 593 c 128,-1,6
 591 622 591 622 645 633.5 c 128,-1,7
 699 645 699 645 747 645 c 0,8,9
 767 645 767 645 788 640 c 128,-1,10
 809 635 809 635 826.5 625 c 128,-1,11
 844 615 844 615 855 599.5 c 128,-1,12
 866 584 866 584 866 564 c 0,13,14
 866 547 866 547 862 534 c 1,15,16
 923 618 923 618 1002.5 727 c 128,-1,17
 1082 836 1082 836 1174 964 c 128,-1,18
 1266 1092 1266 1092 1369 1235 c 128,-1,19
 1472 1378 1472 1378 1581 1531 c 1,20,21
 1595 1525 1595 1525 1616 1520.5 c 128,-1,22
 1637 1516 1637 1516 1663 1516 c 0,23,24
 1680 1516 1680 1516 1706 1519 c 1,25,-1
 750 220 l 2,26,27
 694 145 694 145 665.5 100 c 128,-1,28
 637 55 637 55 637 30 c 0,29,30
 637 16 637 16 641.5 10.5 c 128,-1,31
 646 5 646 5 661 5 c 0,32,33
 712 5 712 5 766 29.5 c 128,-1,34
 820 54 820 54 871.5 92 c 128,-1,35
 923 130 923 130 969.5 175 c 128,-1,36
 1016 220 1016 220 1053 261 c 128,-1,37
 1090 302 1090 302 1115.5 332.5 c 128,-1,38
 1141 363 1141 363 1150 372 c 1,39,-1
 1171 356 l 1,40,41
 1161 346 1161 346 1133.5 313.5 c 128,-1,42
 1106 281 1106 281 1065.5 238.5 c 128,-1,43
 1025 196 1025 196 975 149.5 c 128,-1,44
 925 103 925 103 870 64 c 128,-1,45
 815 25 815 25 757.5 -0.5 c 128,-1,46
 700 -26 700 -26 646 -26 c 0,47,48
 597 -26 597 -26 577 -7 c 128,-1,49
 557 12 557 12 557 41 c 0,50,51
 558 74 558 74 586 120.5 c 128,-1,52
 614 167 614 167 673 238 c 1,53,-1
 666 242 l 1,54,55
 600 168 600 168 543 116.5 c 128,-1,56
 486 65 486 65 439 33.5 c 128,-1,57
 392 2 392 2 354 -12 c 128,-1,58
 316 -26 316 -26 286 -26 c 0,59,60
 223 -26 223 -26 192.5 8 c 128,-1,61
 162 42 162 42 162 102 c 0,0,1
243 54 m 0,62,63
 243 27 243 27 256 15.5 c 128,-1,64
 269 4 269 4 292 4 c 0,65,66
 311 4 311 4 335 11 c 128,-1,67
 359 18 359 18 388 34.5 c 128,-1,68
 417 51 417 51 453 78 c 128,-1,69
 489 105 489 105 534 146 c 0,70,71
 572 181 572 181 614 223 c 128,-1,72
 656 265 656 265 701 319 c 0,73,74
 712 333 712 333 738 366.5 c 128,-1,75
 764 400 764 400 801 451 c 1,76,77
 816 478 816 478 826.5 505.5 c 128,-1,78
 837 533 837 533 837 556 c 0,79,80
 837 586 837 586 813 600.5 c 128,-1,81
 789 615 789 615 762 615 c 0,82,83
 738 615 738 615 700 598 c 128,-1,84
 662 581 662 581 612.5 545 c 128,-1,85
 563 509 563 509 505 454 c 128,-1,86
 447 399 447 399 383 323 c 0,87,88
 310 235 310 235 276.5 168.5 c 128,-1,89
 243 102 243 102 243 54 c 0,62,63
EndSplineSet
EndChar

StartChar: e
Encoding: 101 101 9
Width: 657
Flags: W
LayerCount: 2
Fore
SplineSet
204 142 m 0,0,1
 203 168 203 168 209 198.5 c 128,-1,2
 215 229 215 229 225 259 c 128,-1,3
 235 289 235 289 248 315 c 128,-1,4
 261 341 261 341 273 358 c 0,5,6
 327 433 327 433 388.5 487.5 c 128,-1,7
 450 542 450 542 511.5 577 c 128,-1,8
 573 612 573 612 630.5 628.5 c 128,-1,9
 688 645 688 645 734 645 c 0,10,11
 764 645 764 645 784.5 640 c 128,-1,12
 805 635 805 635 817.5 626 c 128,-1,13
 830 617 830 617 836 605 c 128,-1,14
 842 593 842 593 843 580 c 0,15,16
 845 551 845 551 822.5 516 c 128,-1,17
 800 481 800 481 743.5 440 c 128,-1,18
 687 399 687 399 590.5 354 c 128,-1,19
 494 309 494 309 349 261 c 1,20,21
 314 206 314 206 302.5 167 c 128,-1,22
 291 128 291 128 291 96 c 0,23,24
 291 50 291 50 322 24.5 c 128,-1,25
 353 -1 353 -1 395 -1 c 0,26,27
 471 -1 471 -1 540 24.5 c 128,-1,28
 609 50 609 50 668.5 88.5 c 128,-1,29
 728 127 728 127 777 173.5 c 128,-1,30
 826 220 826 220 863 261.5 c 128,-1,31
 900 303 900 303 924 333.5 c 128,-1,32
 948 364 948 364 957 372 c 1,33,-1
 978 356 l 1,34,35
 966 345 966 345 939.5 312 c 128,-1,36
 913 279 913 279 874 236.5 c 128,-1,37
 835 194 835 194 784 147 c 128,-1,38
 733 100 733 100 671 61 c 128,-1,39
 609 22 609 22 537 -3.5 c 128,-1,40
 465 -29 465 -29 384 -29 c 0,41,42
 336 -29 336 -29 302.5 -16 c 128,-1,43
 269 -3 269 -3 247.5 20.5 c 128,-1,44
 226 44 226 44 215.5 75 c 128,-1,45
 205 106 205 106 204 142 c 0,0,1
370 294 m 1,46,47
 465 327 465 327 541 361.5 c 128,-1,48
 617 396 617 396 670 431 c 128,-1,49
 723 466 723 466 751 500.5 c 128,-1,50
 779 535 779 535 779 567 c 0,51,52
 779 595 779 595 765.5 608 c 128,-1,53
 752 621 752 621 728 621 c 0,54,55
 662 621 662 621 586.5 550.5 c 128,-1,56
 511 480 511 480 409 347 c 0,57,58
 398 333 398 333 388 319.5 c 128,-1,59
 378 306 378 306 370 294 c 1,46,47
EndSplineSet
EndChar

StartChar: f
Encoding: 102 102 10
Width: 540
Flags: W
LayerCount: 2
Fore
SplineSet
220 254 m 1,0,1
 191 300 191 300 181 345.5 c 128,-1,2
 171 391 171 391 175 418 c 0,3,4
 180 450 180 450 196 469.5 c 128,-1,5
 212 489 212 489 238 489 c 0,6,7
 260 489 260 489 275 474 c 128,-1,8
 290 459 290 459 290 430 c 0,9,10
 290 419 290 419 284.5 405 c 128,-1,11
 279 391 279 391 270.5 377.5 c 128,-1,12
 262 364 262 364 250.5 352.5 c 128,-1,13
 239 341 239 341 227 335 c 1,14,15
 229 324 229 324 233.5 312.5 c 128,-1,16
 238 301 238 301 243 288 c 1,17,18
 337 431 337 431 408 539.5 c 128,-1,19
 479 648 479 648 531.5 729.5 c 128,-1,20
 584 811 584 811 620 868.5 c 128,-1,21
 656 926 656 926 681 965.5 c 128,-1,22
 706 1005 706 1005 722 1029.5 c 128,-1,23
 738 1054 738 1054 750 1071 c 0,24,25
 820 1171 820 1171 886 1253 c 128,-1,26
 952 1335 952 1335 1010.5 1393.5 c 128,-1,27
 1069 1452 1069 1452 1118 1484 c 128,-1,28
 1167 1516 1167 1516 1204 1516 c 0,29,30
 1246 1516 1246 1516 1267 1491.5 c 128,-1,31
 1288 1467 1288 1467 1289 1432 c 0,32,33
 1292 1363 1292 1363 1253 1271 c 128,-1,34
 1214 1179 1214 1179 1146 1075.5 c 128,-1,35
 1078 972 1078 972 986.5 863 c 128,-1,36
 895 754 895 754 792 652.5 c 128,-1,37
 689 551 689 551 581.5 462.5 c 128,-1,38
 474 374 474 374 374 311 c 1,39,40
 357 285 357 285 339.5 258.5 c 128,-1,41
 322 232 322 232 304 204 c 1,42,43
 325 185 325 185 352 173 c 128,-1,44
 379 161 379 161 412 159 c 0,45,46
 502 153 502 153 570.5 174 c 128,-1,47
 639 195 639 195 690 228.5 c 128,-1,48
 741 262 741 262 777.5 301.5 c 128,-1,49
 814 341 814 341 839 371 c 1,50,-1
 861 356 l 1,51,52
 851 346 851 346 832.5 324 c 128,-1,53
 814 302 814 302 786.5 275 c 128,-1,54
 759 248 759 248 722 220 c 128,-1,55
 685 192 685 192 638.5 170.5 c 128,-1,56
 592 149 592 149 535 138 c 128,-1,57
 478 127 478 127 411 134 c 0,58,59
 373 138 373 138 343 150 c 128,-1,60
 313 162 313 162 289 180 c 1,61,62
 279 164 279 164 269 149 c 128,-1,63
 259 134 259 134 248 118 c 1,64,65
 239 4 239 4 213 -113 c 128,-1,66
 187 -230 187 -230 148.5 -339 c 128,-1,67
 110 -448 110 -448 61 -543 c 128,-1,68
 12 -638 12 -638 -42.5 -708.5 c 128,-1,69
 -97 -779 -97 -779 -155 -819.5 c 128,-1,70
 -213 -860 -213 -860 -270 -860 c 0,71,72
 -310 -860 -310 -860 -337 -834.5 c 128,-1,73
 -364 -809 -364 -809 -366 -768 c 0,74,75
 -367 -742 -367 -742 -357.5 -706.5 c 128,-1,76
 -348 -671 -348 -671 -325 -621 c 128,-1,77
 -302 -571 -302 -571 -264 -504 c 128,-1,78
 -226 -437 -226 -437 -170 -347.5 c 128,-1,79
 -114 -258 -114 -258 -39.5 -142.5 c 128,-1,80
 35 -27 35 -27 132 120 c 2,81,-1
 220 254 l 1,0,1
409 366 m 1,82,83
 499 427 499 427 596.5 512.5 c 128,-1,84
 694 598 694 598 787.5 696 c 128,-1,85
 881 794 881 794 965 898.5 c 128,-1,86
 1049 1003 1049 1003 1111.5 1102 c 128,-1,87
 1174 1201 1174 1201 1210 1288 c 128,-1,88
 1246 1375 1246 1375 1244 1438 c 0,89,90
 1243 1464 1243 1464 1230.5 1478.5 c 128,-1,91
 1218 1493 1218 1493 1200 1493 c 0,92,93
 1184 1493 1184 1493 1162.5 1480 c 128,-1,94
 1141 1467 1141 1467 1110.5 1433 c 128,-1,95
 1080 1399 1080 1399 1037.5 1340 c 128,-1,96
 995 1281 995 1281 937 1190 c 0,97,98
 869 1083 869 1083 806.5 984.5 c 128,-1,99
 744 886 744 886 680.5 787.5 c 128,-1,100
 617 689 617 689 550.5 585.5 c 128,-1,101
 484 482 484 482 409 366 c 1,82,83
217 69 m 1,102,103
 155 -27 155 -27 92 -126 c 128,-1,104
 29 -225 29 -225 -29.5 -317.5 c 128,-1,105
 -88 -410 -88 -410 -139 -492 c 128,-1,106
 -190 -574 -190 -574 -227.5 -638.5 c 128,-1,107
 -265 -703 -265 -703 -286.5 -745 c 128,-1,108
 -308 -787 -308 -787 -307 -798 c 0,109,110
 -305 -814 -305 -814 -294 -824.5 c 128,-1,111
 -283 -835 -283 -835 -263 -835 c 0,112,113
 -235 -835 -235 -835 -192 -803.5 c 128,-1,114
 -149 -772 -149 -772 -99.5 -713.5 c 128,-1,115
 -50 -655 -50 -655 1 -573.5 c 128,-1,116
 52 -492 52 -492 95.5 -391.5 c 128,-1,117
 139 -291 139 -291 171.5 -174.5 c 128,-1,118
 204 -58 204 -58 217 69 c 1,102,103
EndSplineSet
EndChar

StartChar: g
Encoding: 103 103 11
Width: 895
Flags: W
LayerCount: 2
Fore
SplineSet
195 102 m 1,0,1
 194 168 194 168 221 241.5 c 128,-1,2
 248 315 248 315 311 389 c 1,3,4
 374 465 374 465 435.5 514.5 c 128,-1,5
 497 564 497 564 555.5 593 c 128,-1,6
 614 622 614 622 667.5 633.5 c 128,-1,7
 721 645 721 645 767 645 c 0,8,9
 831 645 831 645 869 623.5 c 128,-1,10
 907 602 907 602 908 564 c 0,11,12
 908 550 908 550 904.5 536 c 128,-1,13
 901 522 901 522 896 508 c 1,14,15
 926 544 926 544 947 571.5 c 128,-1,16
 968 599 968 599 988 625 c 1,17,18
 999 622 999 622 1015.5 619.5 c 128,-1,19
 1032 617 1032 617 1049 617 c 0,20,21
 1055 617 1055 617 1065 617 c 128,-1,22
 1075 617 1075 617 1085.5 617.5 c 128,-1,23
 1096 618 1096 618 1105.5 619 c 128,-1,24
 1115 620 1115 620 1121 621 c 1,25,-1
 807 217 l 2,26,27
 716 99 716 99 637 -1.5 c 128,-1,28
 558 -102 558 -102 487 -190 c 1,29,30
 590 -138 590 -138 684 -78.5 c 128,-1,31
 778 -19 778 -19 866 50 c 128,-1,32
 954 119 954 119 1035.5 199 c 128,-1,33
 1117 279 1117 279 1195 372 c 1,34,-1
 1215 356 l 1,35,36
 1129 253 1129 253 1040 167.5 c 128,-1,37
 951 82 951 82 856.5 9.5 c 128,-1,38
 762 -63 762 -63 660.5 -123 c 128,-1,39
 559 -183 559 -183 449 -235 c 1,40,41
 346 -360 346 -360 260 -455 c 128,-1,42
 174 -550 174 -550 101.5 -619.5 c 128,-1,43
 29 -689 29 -689 -33 -735.5 c 128,-1,44
 -95 -782 -95 -782 -151 -809.5 c 128,-1,45
 -207 -837 -207 -837 -259 -848.5 c 128,-1,46
 -311 -860 -311 -860 -363 -860 c 0,47,48
 -384 -860 -384 -860 -400 -854 c 128,-1,49
 -416 -848 -416 -848 -427 -838.5 c 128,-1,50
 -438 -829 -438 -829 -443.5 -817.5 c 128,-1,51
 -449 -806 -449 -806 -449 -795 c 0,52,53
 -450 -755 -450 -755 -408 -698.5 c 128,-1,54
 -366 -642 -366 -642 -273.5 -572.5 c 128,-1,55
 -181 -503 -181 -503 -35.5 -422.5 c 128,-1,56
 110 -342 110 -342 316 -254 c 1,57,58
 484 -55 484 -55 717 238 c 1,59,-1
 709 242 l 1,60,61
 645 169 645 169 587 118 c 128,-1,62
 529 67 529 67 479.5 35 c 128,-1,63
 430 3 430 3 389 -11.5 c 128,-1,64
 348 -26 348 -26 317 -26 c 0,65,66
 254 -26 254 -26 225.5 8 c 128,-1,67
 197 42 197 42 195 102 c 1,0,1
276 54 m 1,68,69
 278 27 278 27 288.5 15.5 c 128,-1,70
 299 4 299 4 323 4 c 0,71,72
 351 4 351 4 391.5 20.5 c 128,-1,73
 432 37 432 37 485 74 c 128,-1,74
 538 111 538 111 602.5 171 c 128,-1,75
 667 231 667 231 742 319 c 1,76,-1
 823 417 l 1,77,78
 846 451 846 451 863 488 c 128,-1,79
 880 525 880 525 880 556 c 1,80,81
 879 586 879 586 856 600.5 c 128,-1,82
 833 615 833 615 792 615 c 0,83,84
 769 615 769 615 730 597.5 c 128,-1,85
 691 580 691 580 640.5 544 c 128,-1,86
 590 508 590 508 532 453 c 128,-1,87
 474 398 474 398 413 323 c 0,88,89
 341 234 341 234 308 168 c 128,-1,90
 275 102 275 102 276 54 c 1,68,69
282 -295 m 1,91,92
 110 -371 110 -371 -20.5 -442.5 c 128,-1,93
 -151 -514 -151 -514 -239 -578.5 c 128,-1,94
 -327 -643 -327 -643 -372 -698 c 128,-1,95
 -417 -753 -417 -753 -417 -795 c 0,96,97
 -417 -806 -417 -806 -404 -820 c 128,-1,98
 -391 -834 -391 -834 -360 -834 c 0,99,100
 -310 -834 -310 -834 -252.5 -808 c 128,-1,101
 -195 -782 -195 -782 -120 -719.5 c 128,-1,102
 -45 -657 -45 -657 53 -553.5 c 128,-1,103
 151 -450 151 -450 282 -295 c 1,91,92
EndSplineSet
EndChar

StartChar: h
Encoding: 104 104 12
Width: 885
Flags: W
LayerCount: 2
Fore
SplineSet
1111 1531 m 1,0,1
 1124 1529 1124 1529 1145 1527.5 c 128,-1,2
 1166 1526 1166 1526 1205 1528 c 0,3,4
 1220 1528 1220 1528 1247 1531 c 1,5,-1
 280 189 l 1,6,-1
 285 179 l 1,7,8
 359 264 359 264 422 330.5 c 128,-1,9
 485 397 485 397 537.5 447.5 c 128,-1,10
 590 498 590 498 633 533.5 c 128,-1,11
 676 569 676 569 711 592 c 0,12,13
 760 623 760 623 801.5 634 c 128,-1,14
 843 645 843 645 875 645 c 0,15,16
 906 645 906 645 928 636.5 c 128,-1,17
 950 628 950 628 964 614 c 128,-1,18
 978 600 978 600 984 582 c 128,-1,19
 990 564 990 564 989 546 c 0,20,21
 988 517 988 517 974.5 479.5 c 128,-1,22
 961 442 961 442 929.5 391.5 c 128,-1,23
 898 341 898 341 844.5 274.5 c 128,-1,24
 791 208 791 208 710 120 c 0,25,26
 685 94 685 94 671 78 c 128,-1,27
 657 62 657 62 650 52 c 128,-1,28
 643 42 643 42 641.5 36.5 c 128,-1,29
 640 31 640 31 640 25 c 0,30,31
 640 15 640 15 652.5 8.5 c 128,-1,32
 665 2 665 2 691 2 c 0,33,34
 737 2 737 2 789 27 c 128,-1,35
 841 52 841 52 893 90 c 128,-1,36
 945 128 945 128 993.5 173.5 c 128,-1,37
 1042 219 1042 219 1081.5 260 c 128,-1,38
 1121 301 1121 301 1148.5 332 c 128,-1,39
 1176 363 1176 363 1185 372 c 1,40,-1
 1206 356 l 1,41,42
 1195 346 1195 346 1166 313.5 c 128,-1,43
 1137 281 1137 281 1095 238.5 c 128,-1,44
 1053 196 1053 196 1001 149.5 c 128,-1,45
 949 103 949 103 894 64 c 128,-1,46
 839 25 839 25 783.5 -0.5 c 128,-1,47
 728 -26 728 -26 679 -26 c 0,48,49
 656 -26 656 -26 636 -20.5 c 128,-1,50
 616 -15 616 -15 601 -5 c 128,-1,51
 586 5 586 5 577 19 c 128,-1,52
 568 33 568 33 568 50 c 0,53,54
 568 69 568 69 573.5 93 c 128,-1,55
 579 117 579 117 600 153.5 c 128,-1,56
 621 190 621 190 662.5 244 c 128,-1,57
 704 298 704 298 776 379 c 0,58,59
 814 422 814 422 840 455 c 128,-1,60
 866 488 866 488 881.5 513 c 128,-1,61
 897 538 897 538 904 555.5 c 128,-1,62
 911 573 911 573 911 585 c 0,63,64
 911 599 911 599 901.5 609.5 c 128,-1,65
 892 620 892 620 866 620 c 0,66,67
 843 620 843 620 804.5 607 c 128,-1,68
 766 594 766 594 720 564 c 1,69,70
 643 511 643 511 529 401.5 c 128,-1,71
 415 292 415 292 272 114 c 1,72,-1
 182 -4 l 1,73,74
 167 -2 167 -2 153.5 -1 c 128,-1,75
 140 0 140 0 126 0 c 0,76,77
 91 0 91 0 67 -3 c 128,-1,78
 43 -6 43 -6 32 -10 c 1,79,-1
 1111 1531 l 1,0,1
EndSplineSet
EndChar

StartChar: i
Encoding: 105 105 13
Width: 441
Flags: W
LayerCount: 2
Fore
SplineSet
732 830 m 0,0,1
 706 830 706 830 689.5 847.5 c 128,-1,2
 673 865 673 865 673 891 c 0,3,4
 673 908 673 908 680.5 924.5 c 128,-1,5
 688 941 688 941 701.5 953.5 c 128,-1,6
 715 966 715 966 733 974 c 128,-1,7
 751 982 751 982 771 982 c 0,8,9
 798 982 798 982 814 964.5 c 128,-1,10
 830 947 830 947 830 921 c 0,11,12
 830 903 830 903 821.5 886.5 c 128,-1,13
 813 870 813 870 799 857.5 c 128,-1,14
 785 845 785 845 767.5 837.5 c 128,-1,15
 750 830 750 830 732 830 c 0,0,1
112 56 m 0,16,17
 112 75 112 75 117.5 97.5 c 128,-1,18
 123 120 123 120 139 151 c 128,-1,19
 155 182 155 182 183 224 c 128,-1,20
 211 266 211 266 255 324.5 c 128,-1,21
 299 383 299 383 362.5 460 c 128,-1,22
 426 537 426 537 512 638 c 1,23,24
 517 637 517 637 529 636.5 c 128,-1,25
 541 636 541 636 555 635.5 c 128,-1,26
 569 635 569 635 583.5 635 c 128,-1,27
 598 635 598 635 607 635 c 0,28,29
 624 635 624 635 631.5 635.5 c 128,-1,30
 639 636 639 636 647 637 c 1,31,32
 552 525 552 525 481 440.5 c 128,-1,33
 410 356 410 356 359.5 293.5 c 128,-1,34
 309 231 309 231 276 188 c 128,-1,35
 243 145 243 145 224 115.5 c 128,-1,36
 205 86 205 86 197.5 67.5 c 128,-1,37
 190 49 190 49 190 36 c 256,38,39
 190 23 190 23 198 16 c 128,-1,40
 206 9 206 9 217 6 c 128,-1,41
 228 3 228 3 240.5 2.5 c 128,-1,42
 253 2 253 2 261 2 c 0,43,44
 305 2 305 2 356.5 28 c 128,-1,45
 408 54 408 54 460 93.5 c 128,-1,46
 512 133 512 133 561 180 c 128,-1,47
 610 227 610 227 648.5 268 c 128,-1,48
 687 309 687 309 712.5 338.5 c 128,-1,49
 738 368 738 368 742 373 c 1,50,-1
 762 356 l 1,51,52
 753 347 753 347 726 315 c 128,-1,53
 699 283 699 283 659.5 240.5 c 128,-1,54
 620 198 620 198 570 151 c 128,-1,55
 520 104 520 104 465.5 64.5 c 128,-1,56
 411 25 411 25 354.5 -0.5 c 128,-1,57
 298 -26 298 -26 245 -26 c 0,58,59
 184 -26 184 -26 148 -4 c 128,-1,60
 112 18 112 18 112 56 c 0,16,17
EndSplineSet
EndChar

StartChar: j
Encoding: 106 106 14
Width: 372
Flags: W
LayerCount: 2
Fore
SplineSet
679 830 m 0,0,1
 653 830 653 830 636.5 847.5 c 128,-1,2
 620 865 620 865 620 891 c 0,3,4
 620 908 620 908 627.5 924.5 c 128,-1,5
 635 941 635 941 648.5 953.5 c 128,-1,6
 662 966 662 966 680 974 c 128,-1,7
 698 982 698 982 718 982 c 0,8,9
 745 982 745 982 761 964.5 c 128,-1,10
 777 947 777 947 777 921 c 0,11,12
 777 903 777 903 768.5 886.5 c 128,-1,13
 760 870 760 870 746 857.5 c 128,-1,14
 732 845 732 845 714.5 837.5 c 128,-1,15
 697 830 697 830 679 830 c 0,0,1
-12 1 m 0,16,17
 9 28 9 28 40.5 68 c 128,-1,18
 72 108 72 108 109 155.5 c 128,-1,19
 146 203 146 203 186 255 c 128,-1,20
 226 307 226 307 265 358 c 128,-1,21
 304 409 304 409 339 456 c 128,-1,22
 374 503 374 503 400.5 540.5 c 128,-1,23
 427 578 427 578 443 603.5 c 128,-1,24
 459 629 459 629 460 637 c 1,25,26
 465 636 465 636 478.5 635.5 c 128,-1,27
 492 635 492 635 508 635 c 128,-1,28
 524 635 524 635 540 635 c 128,-1,29
 556 635 556 635 565 635 c 0,30,31
 582 635 582 635 593.5 635.5 c 128,-1,32
 605 636 605 636 612 637 c 1,33,34
 578 593 578 593 543 548 c 128,-1,35
 508 503 508 503 469 452 c 128,-1,36
 430 401 430 401 384.5 342 c 128,-1,37
 339 283 339 283 284 212 c 0,38,39
 196 99 196 99 119 2 c 128,-1,40
 42 -95 42 -95 -28 -180 c 1,41,42
 53 -141 53 -141 121 -105 c 128,-1,43
 189 -69 189 -69 248 -31.5 c 128,-1,44
 307 6 307 6 359.5 47 c 128,-1,45
 412 88 412 88 462.5 136 c 128,-1,46
 513 184 513 184 564.5 242 c 128,-1,47
 616 300 616 300 673 372 c 1,48,-1
 693 356 l 1,49,50
 631 279 631 279 575.5 217.5 c 128,-1,51
 520 156 520 156 465.5 105.5 c 128,-1,52
 411 55 411 55 354.5 13 c 128,-1,53
 298 -29 298 -29 234.5 -68 c 128,-1,54
 171 -107 171 -107 98 -144.5 c 128,-1,55
 25 -182 25 -182 -64 -224 c 1,56,57
 -172 -353 -172 -353 -261.5 -450 c 128,-1,58
 -351 -547 -351 -547 -427.5 -617.5 c 128,-1,59
 -504 -688 -504 -688 -569.5 -735 c 128,-1,60
 -635 -782 -635 -782 -694 -809.5 c 128,-1,61
 -753 -837 -753 -837 -807.5 -848.5 c 128,-1,62
 -862 -860 -862 -860 -917 -860 c 0,63,64
 -959 -860 -959 -860 -981 -839 c 128,-1,65
 -1003 -818 -1003 -818 -1003 -795 c 0,66,67
 -1003 -755 -1003 -755 -959.5 -698.5 c 128,-1,68
 -916 -642 -916 -642 -821.5 -572 c 128,-1,69
 -727 -502 -727 -502 -578 -421.5 c 128,-1,70
 -429 -341 -429 -341 -217 -253 c 1,71,72
 -169 -196 -169 -196 -118.5 -133.5 c 128,-1,73
 -68 -71 -68 -71 -12 1 c 0,16,17
-250 -293 m 1,74,75
 -427 -369 -427 -369 -562 -441.5 c 128,-1,76
 -697 -514 -697 -514 -788 -578.5 c 128,-1,77
 -879 -643 -879 -643 -925 -698 c 128,-1,78
 -971 -753 -971 -753 -971 -795 c 0,79,80
 -971 -806 -971 -806 -958 -820 c 128,-1,81
 -945 -834 -945 -834 -914 -834 c 0,82,83
 -862 -834 -862 -834 -802 -809.5 c 128,-1,84
 -742 -785 -742 -785 -664 -724 c 128,-1,85
 -586 -663 -586 -663 -485.5 -558.5 c 128,-1,86
 -385 -454 -385 -454 -250 -293 c 1,74,75
EndSplineSet
EndChar

StartChar: k
Encoding: 107 107 15
Width: 839
Flags: W
LayerCount: 2
Fore
SplineSet
1111 1531 m 1,0,1
 1123 1529 1123 1529 1144 1527.5 c 128,-1,2
 1165 1526 1165 1526 1204 1528 c 0,3,4
 1220 1528 1220 1528 1246 1531 c 1,5,-1
 569 591 l 2,6,7
 501 497 501 497 443.5 414.5 c 128,-1,8
 386 332 386 332 335.5 259 c 128,-1,9
 285 186 285 186 241 121 c 128,-1,10
 197 56 197 56 158 -4 c 1,11,12
 148 -2 148 -2 131.5 -1 c 128,-1,13
 115 0 115 0 101 0 c 0,14,15
 95 0 95 0 85.5 -1 c 128,-1,16
 76 -2 76 -2 66 -3.5 c 128,-1,17
 56 -5 56 -5 47 -6.5 c 128,-1,18
 38 -8 38 -8 32 -10 c 1,19,-1
 1111 1531 l 1,0,1
546 79 m 0,20,21
 546 98 546 98 551.5 119 c 128,-1,22
 557 140 557 140 570.5 164.5 c 128,-1,23
 584 189 584 189 607 218 c 128,-1,24
 630 247 630 247 665 282 c 0,25,26
 693 311 693 311 702.5 325.5 c 128,-1,27
 712 340 712 340 712 351 c 0,28,29
 712 368 712 368 696.5 384 c 128,-1,30
 681 400 681 400 655 408 c 1,31,32
 615 386 615 386 584 381 c 128,-1,33
 553 376 553 376 536 376 c 0,34,35
 509 376 509 376 494.5 385 c 128,-1,36
 480 394 480 394 480 406 c 0,37,38
 480 423 480 423 508 436.5 c 128,-1,39
 536 450 536 450 574 450 c 0,40,41
 615 450 615 450 653 439 c 1,42,43
 676 450 676 450 692.5 464 c 128,-1,44
 709 478 709 478 735 508 c 256,45,46
 761 538 761 538 789.5 572 c 128,-1,47
 818 606 818 606 850.5 635 c 128,-1,48
 883 664 883 664 920.5 683 c 128,-1,49
 958 702 958 702 1002 702 c 0,50,51
 1050 702 1050 702 1078.5 677.5 c 128,-1,52
 1107 653 1107 653 1106 621 c 0,53,54
 1105 585 1105 585 1084 569 c 128,-1,55
 1063 553 1063 553 1036 553 c 0,56,57
 1025 553 1025 553 1015 557.5 c 128,-1,58
 1005 562 1005 562 997 570 c 128,-1,59
 989 578 989 578 984 588.5 c 128,-1,60
 979 599 979 599 980 612 c 0,61,62
 981 630 981 630 992.5 643 c 128,-1,63
 1004 656 1004 656 1020 661 c 1,64,65
 1006 672 1006 672 981 672 c 0,66,67
 959 672 959 672 937 663.5 c 128,-1,68
 915 655 915 655 889.5 635 c 128,-1,69
 864 615 864 615 832.5 581.5 c 128,-1,70
 801 548 801 548 761 497 c 1,71,72
 723 453 723 453 686 427 c 1,73,74
 730 407 730 407 754.5 373 c 128,-1,75
 779 339 779 339 779 300 c 0,76,77
 779 281 779 281 775 260.5 c 128,-1,78
 771 240 771 240 757 214.5 c 128,-1,79
 743 189 743 189 716.5 157.5 c 128,-1,80
 690 126 690 126 646 86 c 0,81,82
 629 71 629 71 618.5 57 c 128,-1,83
 608 43 608 43 608 32 c 0,84,85
 608 18 608 18 618 10 c 128,-1,86
 628 2 628 2 655 2 c 0,87,88
 704 2 704 2 758.5 28.5 c 128,-1,89
 813 55 813 55 866 95 c 128,-1,90
 919 135 919 135 967.5 182.5 c 128,-1,91
 1016 230 1016 230 1053 271 c 128,-1,92
 1090 312 1090 312 1113.5 341 c 128,-1,93
 1137 370 1137 370 1140 373 c 1,94,-1
 1160 356 l 1,95,96
 1156 352 1156 352 1131 322.5 c 128,-1,97
 1106 293 1106 293 1066.5 250.5 c 128,-1,98
 1027 208 1027 208 976 159.5 c 128,-1,99
 925 111 925 111 869 70 c 128,-1,100
 813 29 813 29 754.5 1.5 c 128,-1,101
 696 -26 696 -26 643 -26 c 0,102,103
 616 -26 616 -26 597.5 -17.5 c 128,-1,104
 579 -9 579 -9 567.5 5.5 c 128,-1,105
 556 20 556 20 551 39 c 128,-1,106
 546 58 546 58 546 79 c 0,20,21
EndSplineSet
EndChar

StartChar: l
Encoding: 108 108 16
Width: 444
Flags: W
LayerCount: 2
Fore
SplineSet
133 53 m 0,0,1
 133 70 133 70 135.5 86.5 c 128,-1,2
 138 103 138 103 145.5 123 c 128,-1,3
 153 143 153 143 168 169.5 c 128,-1,4
 183 196 183 196 208 235 c 128,-1,5
 233 274 233 274 269.5 327.5 c 128,-1,6
 306 381 306 381 357 455 c 2,7,-1
 1110 1531 l 1,8,9
 1124 1529 1124 1529 1145 1527.5 c 128,-1,10
 1166 1526 1166 1526 1204 1528 c 0,11,12
 1220 1528 1220 1528 1246 1531 c 1,13,-1
 445 419 l 2,14,15
 386 337 386 337 345 279 c 128,-1,16
 304 221 304 221 276.5 181 c 128,-1,17
 249 141 249 141 233.5 115.5 c 128,-1,18
 218 90 218 90 210.5 74.5 c 128,-1,19
 203 59 203 59 201 50.5 c 128,-1,20
 199 42 199 42 199 34 c 0,21,22
 199 19 199 19 212 10.5 c 128,-1,23
 225 2 225 2 245 2 c 0,24,25
 293 2 293 2 346 27 c 128,-1,26
 399 52 399 52 451.5 90 c 128,-1,27
 504 128 504 128 552.5 173.5 c 128,-1,28
 601 219 601 219 640.5 260 c 128,-1,29
 680 301 680 301 707 332 c 128,-1,30
 734 363 734 363 744 372 c 1,31,-1
 765 356 l 1,32,33
 754 346 754 346 725.5 313.5 c 128,-1,34
 697 281 697 281 655.5 238.5 c 128,-1,35
 614 196 614 196 562.5 149.5 c 128,-1,36
 511 103 511 103 454.5 64 c 128,-1,37
 398 25 398 25 340 -0.5 c 128,-1,38
 282 -26 282 -26 228 -26 c 0,39,40
 186 -26 186 -26 159.5 -3 c 128,-1,41
 133 20 133 20 133 53 c 0,0,1
EndSplineSet
EndChar

StartChar: m
Encoding: 109 109 17
Width: 1399
Flags: W
LayerCount: 2
Fore
SplineSet
179 -10 m 1,0,1
 270 122 270 122 335.5 215 c 128,-1,2
 401 308 401 308 446 371.5 c 128,-1,3
 491 435 491 435 517.5 473.5 c 128,-1,4
 544 512 544 512 558.5 534 c 128,-1,5
 573 556 573 556 577.5 566 c 128,-1,6
 582 576 582 576 583 583 c 0,7,8
 584 595 584 595 580.5 603 c 128,-1,9
 577 611 577 611 562 611 c 0,10,11
 553 611 553 611 537 598 c 128,-1,12
 521 585 521 585 501 564 c 128,-1,13
 481 543 481 543 457.5 516 c 128,-1,14
 434 489 434 489 410.5 460.5 c 128,-1,15
 387 432 387 432 364 404.5 c 128,-1,16
 341 377 341 377 321 356 c 1,17,-1
 300 372 l 1,18,19
 321 392 321 392 344 420 c 128,-1,20
 367 448 367 448 391.5 478.5 c 128,-1,21
 416 509 416 509 441.5 539 c 128,-1,22
 467 569 467 569 493 592.5 c 128,-1,23
 519 616 519 616 544 630.5 c 128,-1,24
 569 645 569 645 593 645 c 0,25,26
 610 645 610 645 626 642.5 c 128,-1,27
 642 640 642 640 654 632.5 c 128,-1,28
 666 625 666 625 672.5 611 c 128,-1,29
 679 597 679 597 677 575 c 0,30,31
 675 558 675 558 666.5 534.5 c 128,-1,32
 658 511 658 511 631 473 c 2,33,-1
 427 189 l 1,34,-1
 432 179 l 1,35,36
 569 337 569 337 663 432 c 128,-1,37
 757 527 757 527 817 570 c 1,38,39
 873 613 873 613 916 629 c 128,-1,40
 959 645 959 645 997 645 c 0,41,42
 1028 645 1028 645 1050 636.5 c 128,-1,43
 1072 628 1072 628 1086 614 c 128,-1,44
 1100 600 1100 600 1106 582 c 128,-1,45
 1112 564 1112 564 1111 546 c 256,46,47
 1110 528 1110 528 1108 513.5 c 128,-1,48
 1106 499 1106 499 1100.5 483.5 c 128,-1,49
 1095 468 1095 468 1086 449.5 c 128,-1,50
 1077 431 1077 431 1061 407 c 1,51,52
 1105 451 1105 451 1142 485.5 c 128,-1,53
 1179 520 1179 520 1211 546 c 0,54,55
 1248 576 1248 576 1277 595 c 128,-1,56
 1306 614 1306 614 1330.5 625 c 128,-1,57
 1355 636 1355 636 1376 640.5 c 128,-1,58
 1397 645 1397 645 1417 645 c 0,59,60
 1448 645 1448 645 1470 636.5 c 128,-1,61
 1492 628 1492 628 1505.5 614 c 128,-1,62
 1519 600 1519 600 1525 582 c 128,-1,63
 1531 564 1531 564 1531 546 c 0,64,65
 1530 517 1530 517 1516.5 479.5 c 128,-1,66
 1503 442 1503 442 1471.5 391.5 c 128,-1,67
 1440 341 1440 341 1386.5 274.5 c 128,-1,68
 1333 208 1333 208 1252 120 c 0,69,70
 1227 94 1227 94 1213 78 c 128,-1,71
 1199 62 1199 62 1192 52 c 128,-1,72
 1185 42 1185 42 1183.5 36.5 c 128,-1,73
 1182 31 1182 31 1182 25 c 1,74,-1
 1176 23 l 1,75,76
 1176 13 1176 13 1188.5 6.5 c 128,-1,77
 1201 0 1201 0 1227 0 c 0,78,79
 1269 0 1269 0 1317.5 25 c 128,-1,80
 1366 50 1366 50 1415.5 88.5 c 128,-1,81
 1465 127 1465 127 1512.5 172.5 c 128,-1,82
 1560 218 1560 218 1598.5 259.5 c 128,-1,83
 1637 301 1637 301 1663.5 332 c 128,-1,84
 1690 363 1690 363 1699 372 c 1,85,-1
 1719 356 l 1,86,87
 1709 346 1709 346 1681 313.5 c 128,-1,88
 1653 281 1653 281 1613 238.5 c 128,-1,89
 1573 196 1573 196 1523.5 149 c 128,-1,90
 1474 102 1474 102 1421.5 62.5 c 128,-1,91
 1369 23 1369 23 1315.5 -2.5 c 128,-1,92
 1262 -28 1262 -28 1215 -28 c 0,93,94
 1192 -28 1192 -28 1172 -22.5 c 128,-1,95
 1152 -17 1152 -17 1137 -7 c 128,-1,96
 1122 3 1122 3 1113 17 c 128,-1,97
 1104 31 1104 31 1104 48 c 0,98,99
 1104 67 1104 67 1110.5 91 c 128,-1,100
 1117 115 1117 115 1139 152 c 128,-1,101
 1161 189 1161 189 1203.5 243.5 c 128,-1,102
 1246 298 1246 298 1318 379 c 0,103,104
 1394 465 1394 465 1424 513 c 128,-1,105
 1454 561 1454 561 1454 585 c 0,106,107
 1454 599 1454 599 1443.5 609.5 c 128,-1,108
 1433 620 1433 620 1405 620 c 0,109,110
 1381 620 1381 620 1345 603 c 128,-1,111
 1309 586 1309 586 1246 539 c 0,112,113
 1169 481 1169 481 1067 377 c 128,-1,114
 965 273 965 273 839 114 c 1,115,-1
 749 -4 l 1,116,117
 735 -2 735 -2 721 -1 c 128,-1,118
 707 0 707 0 693 0 c 0,119,120
 658 0 658 0 634.5 -3 c 128,-1,121
 611 -6 611 -6 600 -10 c 1,122,123
 648 49 648 49 677 84.5 c 128,-1,124
 706 120 706 120 725.5 144 c 128,-1,125
 745 168 745 168 759 186 c 128,-1,126
 773 204 773 204 790.5 227 c 128,-1,127
 808 250 808 250 833.5 284 c 128,-1,128
 859 318 859 318 902 375 c 0,129,130
 944 430 944 430 970 467 c 128,-1,131
 996 504 996 504 1010 528 c 128,-1,132
 1024 552 1024 552 1029 566.5 c 128,-1,133
 1034 581 1034 581 1034 590 c 0,134,135
 1034 605 1034 605 1021 612.5 c 128,-1,136
 1008 620 1008 620 987 620 c 0,137,138
 961 620 961 620 920.5 603 c 128,-1,139
 880 586 880 586 820 538 c 0,140,141
 752 484 752 484 650.5 379.5 c 128,-1,142
 549 275 549 275 418 114 c 1,143,-1
 328 -4 l 1,144,145
 314 -2 314 -2 300 -1 c 128,-1,146
 286 0 286 0 272 0 c 0,147,148
 237 0 237 0 213 -3 c 128,-1,149
 189 -6 189 -6 179 -10 c 1,0,1
EndSplineSet
EndChar

StartChar: n
Encoding: 110 110 18
Width: 1016
Flags: W
LayerCount: 2
Fore
SplineSet
179 -10 m 1,0,1
 270 122 270 122 335.5 215 c 128,-1,2
 401 308 401 308 446 371.5 c 128,-1,3
 491 435 491 435 517.5 473.5 c 128,-1,4
 544 512 544 512 558.5 534 c 128,-1,5
 573 556 573 556 577.5 566 c 128,-1,6
 582 576 582 576 583 583 c 0,7,8
 584 595 584 595 580.5 603 c 128,-1,9
 577 611 577 611 562 611 c 0,10,11
 553 611 553 611 536.5 598 c 128,-1,12
 520 585 520 585 499.5 564 c 128,-1,13
 479 543 479 543 455.5 516 c 128,-1,14
 432 489 432 489 408 460.5 c 128,-1,15
 384 432 384 432 361.5 404.5 c 128,-1,16
 339 377 339 377 321 356 c 0,17,18
 319 354 319 354 313.5 355.5 c 128,-1,19
 308 357 308 357 303 361 c 0,20,21
 301 363 301 363 299 366 c 128,-1,22
 297 369 297 369 300 372 c 0,23,24
 320 392 320 392 342.5 420 c 128,-1,25
 365 448 365 448 390 478.5 c 128,-1,26
 415 509 415 509 440.5 539 c 128,-1,27
 466 569 466 569 492 592.5 c 128,-1,28
 518 616 518 616 543.5 630.5 c 128,-1,29
 569 645 569 645 593 645 c 0,30,31
 610 645 610 645 626 642.5 c 128,-1,32
 642 640 642 640 654 632.5 c 128,-1,33
 666 625 666 625 672.5 611 c 128,-1,34
 679 597 679 597 677 575 c 0,35,36
 675 558 675 558 666.5 534.5 c 128,-1,37
 658 511 658 511 631 473 c 2,38,-1
 427 189 l 1,39,-1
 432 179 l 1,40,41
 508 264 508 264 570.5 330.5 c 128,-1,42
 633 397 633 397 685.5 447.5 c 128,-1,43
 738 498 738 498 780.5 533.5 c 128,-1,44
 823 569 823 569 858 592 c 0,45,46
 905 623 905 623 940.5 634 c 128,-1,47
 976 645 976 645 1006 645 c 0,48,49
 1037 645 1037 645 1059 636.5 c 128,-1,50
 1081 628 1081 628 1094.5 614 c 128,-1,51
 1108 600 1108 600 1114 582 c 128,-1,52
 1120 564 1120 564 1120 546 c 0,53,54
 1119 517 1119 517 1105.5 479.5 c 128,-1,55
 1092 442 1092 442 1060.5 391.5 c 128,-1,56
 1029 341 1029 341 975.5 274.5 c 128,-1,57
 922 208 922 208 841 120 c 0,58,59
 816 94 816 94 802 78 c 128,-1,60
 788 62 788 62 781 52 c 128,-1,61
 774 42 774 42 772.5 36.5 c 128,-1,62
 771 31 771 31 771 25 c 0,63,64
 771 15 771 15 783.5 8.5 c 128,-1,65
 796 2 796 2 822 2 c 0,66,67
 873 2 873 2 927 27 c 128,-1,68
 981 52 981 52 1033 90 c 128,-1,69
 1085 128 1085 128 1132.5 173.5 c 128,-1,70
 1180 219 1180 219 1218 260 c 128,-1,71
 1256 301 1256 301 1281.5 332 c 128,-1,72
 1307 363 1307 363 1316 372 c 1,73,-1
 1337 356 l 1,74,75
 1327 346 1327 346 1300 313.5 c 128,-1,76
 1273 281 1273 281 1233.5 238.5 c 128,-1,77
 1194 196 1194 196 1144 149.5 c 128,-1,78
 1094 103 1094 103 1039 64 c 128,-1,79
 984 25 984 25 925.5 -0.5 c 128,-1,80
 867 -26 867 -26 810 -26 c 0,81,82
 787 -26 787 -26 767 -20.5 c 128,-1,83
 747 -15 747 -15 732 -5 c 128,-1,84
 717 5 717 5 708 19 c 128,-1,85
 699 33 699 33 699 50 c 0,86,87
 699 69 699 69 704.5 93 c 128,-1,88
 710 117 710 117 731 153.5 c 128,-1,89
 752 190 752 190 793.5 244 c 128,-1,90
 835 298 835 298 907 379 c 0,91,92
 945 422 945 422 971 455 c 128,-1,93
 997 488 997 488 1012.5 513 c 128,-1,94
 1028 538 1028 538 1035 555.5 c 128,-1,95
 1042 573 1042 573 1042 585 c 0,96,97
 1042 599 1042 599 1032 609.5 c 128,-1,98
 1022 620 1022 620 996 620 c 0,99,100
 976 620 976 620 943.5 607 c 128,-1,101
 911 594 911 594 866 564 c 0,102,103
 789 511 789 511 676.5 401.5 c 128,-1,104
 564 292 564 292 419 114 c 1,105,-1
 329 -4 l 1,106,107
 313 -2 313 -2 299.5 -1 c 128,-1,108
 286 0 286 0 272 0 c 0,109,110
 237 0 237 0 213.5 -3 c 128,-1,111
 190 -6 190 -6 179 -10 c 1,0,1
EndSplineSet
EndChar

StartChar: o
Encoding: 111 111 19
Width: 716
Flags: W
LayerCount: 2
Fore
SplineSet
176 104 m 0,0,1
 174 137 174 137 182 174 c 128,-1,2
 190 211 190 211 203.5 247 c 128,-1,3
 217 283 217 283 234.5 316 c 128,-1,4
 252 349 252 349 270 375 c 0,5,6
 306 425 306 425 353.5 473.5 c 128,-1,7
 401 522 401 522 457.5 560 c 128,-1,8
 514 598 514 598 576 621.5 c 128,-1,9
 638 645 638 645 702 645 c 0,10,11
 754 645 754 645 792 617.5 c 128,-1,12
 830 590 830 590 833 532 c 0,13,14
 835 490 835 490 826.5 446 c 128,-1,15
 818 402 818 402 800.5 358 c 128,-1,16
 783 314 783 314 757.5 271 c 128,-1,17
 732 228 732 228 701 189 c 1,18,19
 704 177 704 177 714.5 169 c 128,-1,20
 725 161 725 161 744 161 c 0,21,22
 768 161 768 161 796 175 c 128,-1,23
 824 189 824 189 852 210.5 c 128,-1,24
 880 232 880 232 906.5 257.5 c 128,-1,25
 933 283 933 283 955.5 306.5 c 128,-1,26
 978 330 978 330 993.5 348 c 128,-1,27
 1009 366 1009 366 1016 372 c 1,28,-1
 1037 356 l 1,29,30
 1025 344 1025 344 1005.5 323 c 128,-1,31
 986 302 986 302 961.5 277 c 128,-1,32
 937 252 937 252 909 226.5 c 128,-1,33
 881 201 881 201 852.5 180 c 128,-1,34
 824 159 824 159 795.5 146 c 128,-1,35
 767 133 767 133 742 133 c 0,36,37
 696 133 696 133 679 163 c 1,38,39
 643 122 643 122 602 87 c 128,-1,40
 561 52 561 52 517 27 c 128,-1,41
 473 2 473 2 428 -12 c 128,-1,42
 383 -26 383 -26 340 -26 c 0,43,44
 299 -26 299 -26 269 -16 c 128,-1,45
 239 -6 239 -6 219 11.5 c 128,-1,46
 199 29 199 29 188.5 53 c 128,-1,47
 178 77 178 77 176 104 c 0,0,1
284 89 m 0,48,49
 284 75 284 75 288.5 60.5 c 128,-1,50
 293 46 293 46 303 33.5 c 128,-1,51
 313 21 313 21 328 13 c 128,-1,52
 343 5 343 5 366 5 c 0,53,54
 400 5 400 5 444.5 24 c 128,-1,55
 489 43 489 43 534 76 c 0,56,57
 610 130 610 130 670 202 c 1,58,-1
 670 204 l 2,59,60
 670 234 670 234 679 258.5 c 128,-1,61
 688 283 688 283 701.5 301 c 128,-1,62
 715 319 715 319 731.5 330.5 c 128,-1,63
 748 342 748 342 763 347 c 1,64,65
 786 395 786 395 797 441 c 128,-1,66
 808 487 808 487 806 525 c 0,67,68
 803 572 803 572 781 590.5 c 128,-1,69
 759 609 759 609 733 609 c 0,70,71
 676 609 676 609 594 543 c 128,-1,72
 512 477 512 477 410 350 c 0,73,74
 337 259 337 259 309 197 c 128,-1,75
 281 135 281 135 284 89 c 0,48,49
EndSplineSet
EndChar

StartChar: p
Encoding: 112 112 20
Width: 837
Flags: W
LayerCount: 2
Fore
SplineSet
145 -4 m 1,0,1
 104 -58 104 -58 54.5 -129 c 128,-1,2
 5 -200 5 -200 -45.5 -276 c 128,-1,3
 -96 -352 -96 -352 -144.5 -426.5 c 128,-1,4
 -193 -501 -193 -501 -231 -561 c 128,-1,5
 -269 -621 -269 -621 -294 -660.5 c 128,-1,6
 -319 -700 -319 -700 -322 -707 c 1,7,8
 -333 -709 -333 -709 -354.5 -711.5 c 128,-1,9
 -376 -714 -376 -714 -414 -714 c 0,10,11
 -426 -714 -426 -714 -449 -712 c 128,-1,12
 -472 -710 -472 -710 -485 -705 c 1,13,14
 -436 -638 -436 -638 -376.5 -557.5 c 128,-1,15
 -317 -477 -317 -477 -252 -389.5 c 128,-1,16
 -187 -302 -187 -302 -120 -210.5 c 128,-1,17
 -53 -119 -53 -119 12 -29 c 128,-1,18
 77 61 77 61 137.5 146.5 c 128,-1,19
 198 232 198 232 249 306 c 1,20,21
 296 371 296 371 329.5 416.5 c 128,-1,22
 363 462 363 462 391.5 499.5 c 128,-1,23
 420 537 420 537 447.5 574 c 128,-1,24
 475 611 475 611 511 658.5 c 128,-1,25
 547 706 547 706 595 770.5 c 128,-1,26
 643 835 643 835 712 929 c 1,27,28
 747 925 747 925 768.5 924 c 128,-1,29
 790 923 790 923 804 923 c 0,30,31
 833 923 833 923 860 930 c 1,32,33
 795 852 795 852 747 793.5 c 128,-1,34
 699 735 699 735 662 690 c 128,-1,35
 625 645 625 645 597.5 610.5 c 128,-1,36
 570 576 570 576 546 545.5 c 128,-1,37
 522 515 522 515 499 485 c 128,-1,38
 476 455 476 455 449.5 419.5 c 128,-1,39
 423 384 423 384 390 339.5 c 128,-1,40
 357 295 357 295 313 236 c 1,41,-1
 321 228 l 1,42,43
 474 375 474 375 584 465.5 c 128,-1,44
 694 556 694 556 768 594 c 0,45,46
 791 606 791 606 810.5 615.5 c 128,-1,47
 830 625 830 625 850 631.5 c 128,-1,48
 870 638 870 638 892.5 641.5 c 128,-1,49
 915 645 915 645 945 645 c 0,50,51
 994 645 994 645 1015.5 622 c 128,-1,52
 1037 599 1037 599 1037 563 c 0,53,54
 1037 526 1037 526 1022 486 c 128,-1,55
 1007 446 1007 446 972.5 401.5 c 128,-1,56
 938 357 938 357 881.5 306.5 c 128,-1,57
 825 256 825 256 743 198 c 0,58,59
 695 163 695 163 664.5 139.5 c 128,-1,60
 634 116 634 116 617 98.5 c 128,-1,61
 600 81 600 81 594 69 c 128,-1,62
 588 57 588 57 588 46 c 0,63,64
 588 26 588 26 605.5 14 c 128,-1,65
 623 2 623 2 657 2 c 0,66,67
 702 2 702 2 749.5 23 c 128,-1,68
 797 44 797 44 843.5 77 c 128,-1,69
 890 110 890 110 934 151.5 c 128,-1,70
 978 193 978 193 1016.5 234 c 128,-1,71
 1055 275 1055 275 1085.5 311.5 c 128,-1,72
 1116 348 1116 348 1137 372 c 1,73,-1
 1158 356 l 1,74,75
 1139 334 1139 334 1107.5 297 c 128,-1,76
 1076 260 1076 260 1036 217.5 c 128,-1,77
 996 175 996 175 949.5 132 c 128,-1,78
 903 89 903 89 853 53.5 c 128,-1,79
 803 18 803 18 751.5 -4 c 128,-1,80
 700 -26 700 -26 651 -26 c 0,81,82
 594 -26 594 -26 566 0 c 128,-1,83
 538 26 538 26 538 71 c 0,84,85
 538 104 538 104 555.5 143.5 c 128,-1,86
 573 183 573 183 611 230 c 128,-1,87
 649 277 649 277 710.5 332 c 128,-1,88
 772 387 772 387 859 452 c 0,89,90
 902 483 902 483 927 505.5 c 128,-1,91
 952 528 952 528 965 543.5 c 128,-1,92
 978 559 978 559 981.5 569.5 c 128,-1,93
 985 580 985 580 985 589 c 0,94,95
 985 601 985 601 974.5 610.5 c 128,-1,96
 964 620 964 620 944 620 c 0,97,98
 898 620 898 620 854.5 604.5 c 128,-1,99
 811 589 811 589 760 559 c 0,100,101
 718 535 718 535 668.5 498.5 c 128,-1,102
 619 462 619 462 565.5 417 c 128,-1,103
 512 372 512 372 456 320.5 c 128,-1,104
 400 269 400 269 345.5 214.5 c 128,-1,105
 291 160 291 160 240 104.5 c 128,-1,106
 189 49 189 49 145 -4 c 1,0,1
EndSplineSet
EndChar

StartChar: q
Encoding: 113 113 21
Width: 853
Flags: W
LayerCount: 2
Fore
SplineSet
135 100 m 0,0,1
 135 164 135 164 162.5 236 c 128,-1,2
 190 308 190 308 253 380 c 0,3,4
 317 454 317 454 377.5 502.5 c 128,-1,5
 438 551 438 551 495 579.5 c 128,-1,6
 552 608 552 608 606.5 619 c 128,-1,7
 661 630 661 630 713 630 c 0,8,9
 737 630 737 630 759 625.5 c 128,-1,10
 781 621 781 621 797.5 609.5 c 128,-1,11
 814 598 814 598 823.5 579.5 c 128,-1,12
 833 561 833 561 833 533 c 0,13,14
 833 497 833 497 821 464 c 1,15,16
 860 513 860 513 885.5 546.5 c 128,-1,17
 911 580 911 580 934 610 c 1,18,19
 944 607 944 607 960 605 c 128,-1,20
 976 603 976 603 992 603 c 0,21,22
 998 603 998 603 1008 603 c 128,-1,23
 1018 603 1018 603 1028 603.5 c 128,-1,24
 1038 604 1038 604 1047.5 604.5 c 128,-1,25
 1057 605 1057 605 1063 606 c 1,26,27
 1023 558 1023 558 988 513.5 c 128,-1,28
 953 469 953 469 917 423 c 128,-1,29
 881 377 881 377 841 328 c 128,-1,30
 801 279 801 279 750 221 c 2,31,-1
 634 88 l 1,32,33
 641 72 641 72 643 44 c 1,34,35
 648 24 648 24 669.5 12 c 128,-1,36
 691 0 691 0 718 0 c 0,37,38
 756 0 756 0 800.5 25 c 128,-1,39
 845 50 845 50 891 88.5 c 128,-1,40
 937 127 937 127 981 172.5 c 128,-1,41
 1025 218 1025 218 1060.5 259.5 c 128,-1,42
 1096 301 1096 301 1120.5 332 c 128,-1,43
 1145 363 1145 363 1153 372 c 1,44,-1
 1174 356 l 1,45,46
 1165 346 1165 346 1140 313.5 c 128,-1,47
 1115 281 1115 281 1079 238.5 c 128,-1,48
 1043 196 1043 196 998.5 149.5 c 128,-1,49
 954 103 954 103 906.5 64 c 128,-1,50
 859 25 859 25 810.5 -0.5 c 128,-1,51
 762 -26 762 -26 719 -26 c 0,52,53
 690 -26 690 -26 669 -17 c 128,-1,54
 648 -8 648 -8 635 7 c 1,55,56
 611 -99 611 -99 566.5 -204.5 c 128,-1,57
 522 -310 522 -310 465 -406.5 c 128,-1,58
 408 -503 408 -503 343 -585.5 c 128,-1,59
 278 -668 278 -668 212 -729 c 128,-1,60
 146 -790 146 -790 83.5 -825 c 128,-1,61
 21 -860 21 -860 -30 -860 c 0,62,63
 -61 -860 -61 -860 -78 -842 c 128,-1,64
 -95 -824 -95 -824 -95 -790 c 0,65,66
 -95 -735 -95 -735 -52 -643.5 c 128,-1,67
 -9 -552 -9 -552 71.5 -435 c 128,-1,68
 152 -318 152 -318 265.5 -181 c 128,-1,69
 379 -44 379 -44 520 102 c 1,70,71
 435 35 435 35 364.5 5 c 128,-1,72
 294 -25 294 -25 253 -25 c 0,73,74
 192 -25 192 -25 163.5 7.5 c 128,-1,75
 135 40 135 40 135 100 c 0,0,1
214 53 m 0,76,77
 214 27 214 27 224.5 15.5 c 128,-1,78
 235 4 235 4 258 4 c 0,79,80
 291 4 291 4 336.5 20 c 128,-1,81
 382 36 382 36 438 72 c 128,-1,82
 494 108 494 108 559 167 c 128,-1,83
 624 226 624 226 696 312 c 0,84,85
 714 333 714 333 730 352.5 c 128,-1,86
 746 372 746 372 760 389 c 1,87,88
 780 416 780 416 794.5 452.5 c 128,-1,89
 809 489 809 489 809 542 c 0,90,91
 809 557 809 557 802.5 568 c 128,-1,92
 796 579 796 579 785.5 586.5 c 128,-1,93
 775 594 775 594 762.5 597.5 c 128,-1,94
 750 601 750 601 737 601 c 0,95,96
 714 601 714 601 674.5 584 c 128,-1,97
 635 567 635 567 584 532 c 128,-1,98
 533 497 533 497 473.5 443 c 128,-1,99
 414 389 414 389 351 315 c 1,100,101
 280 228 280 228 247 163.5 c 128,-1,102
 214 99 214 99 214 53 c 0,76,77
615 32 m 0,103,104
 619 51 619 51 614 65 c 1,105,106
 553 -5 553 -5 479.5 -92 c 128,-1,107
 406 -179 406 -179 330.5 -270 c 128,-1,108
 255 -361 255 -361 184 -449.5 c 128,-1,109
 113 -538 113 -538 58 -611.5 c 128,-1,110
 3 -685 3 -685 -30.5 -737 c 128,-1,111
 -64 -789 -64 -789 -64 -807 c 0,112,113
 -64 -823 -64 -823 -57 -831 c 128,-1,114
 -50 -839 -50 -839 -30 -839 c 0,115,116
 5 -839 5 -839 61 -801.5 c 128,-1,117
 117 -764 117 -764 181.5 -699 c 128,-1,118
 246 -634 246 -634 314 -548 c 128,-1,119
 382 -462 382 -462 442 -365.5 c 128,-1,120
 502 -269 502 -269 548 -167 c 128,-1,121
 594 -65 594 -65 615 32 c 0,103,104
EndSplineSet
EndChar

StartChar: r
Encoding: 114 114 22
Width: 667
Flags: W
LayerCount: 2
Fore
SplineSet
335 76 m 0,0,1
 335 115 335 115 364.5 162 c 128,-1,2
 394 209 394 209 448.5 263 c 128,-1,3
 503 317 503 317 581 377.5 c 128,-1,4
 659 438 659 438 757 504 c 1,5,6
 657 520 657 520 586 536.5 c 128,-1,7
 515 553 515 553 471 573 c 1,8,9
 452 534 452 534 415 478 c 128,-1,10
 378 422 378 422 321 356 c 0,11,12
 291 322 291 322 273 303.5 c 128,-1,13
 255 285 255 285 245 277 c 128,-1,14
 235 269 235 269 231.5 267.5 c 128,-1,15
 228 266 228 266 227 265 c 0,16,17
 224 263 224 263 223 269.5 c 128,-1,18
 222 276 222 276 224 281 c 0,19,20
 224 283 224 283 227.5 286.5 c 128,-1,21
 231 290 231 290 239 299 c 128,-1,22
 247 308 247 308 262 325.5 c 128,-1,23
 277 343 277 343 300 372 c 0,24,25
 350 434 350 434 388 489.5 c 128,-1,26
 426 545 426 545 446 587 c 1,27,28
 409 610 409 610 405 637 c 1,29,30
 400 660 400 660 405.5 682 c 128,-1,31
 411 704 411 704 423 721 c 128,-1,32
 435 738 435 738 452.5 748.5 c 128,-1,33
 470 759 470 759 491 759 c 0,34,35
 514 759 514 759 528.5 746.5 c 128,-1,36
 543 734 543 734 543 714 c 0,37,38
 543 692 543 692 534 676.5 c 128,-1,39
 525 661 525 661 517 647 c 1,40,41
 499 624 499 624 499 594 c 0,42,43
 499 588 499 588 515 580.5 c 128,-1,44
 531 573 531 573 557 566 c 128,-1,45
 583 559 583 559 615.5 552 c 128,-1,46
 648 545 648 545 680 539.5 c 128,-1,47
 712 534 712 534 740.5 530.5 c 128,-1,48
 769 527 769 527 788 526 c 1,49,50
 806 524 806 524 810 519 c 128,-1,51
 814 514 814 514 814 511 c 0,52,53
 814 506 814 506 808 499 c 128,-1,54
 802 492 802 492 787 479 c 1,55,56
 751 452 751 452 713 416 c 128,-1,57
 675 380 675 380 639 340.5 c 128,-1,58
 603 301 603 301 571 260 c 128,-1,59
 539 219 539 219 514.5 181 c 128,-1,60
 490 143 490 143 476 109.5 c 128,-1,61
 462 76 462 76 462 53 c 0,62,63
 462 28 462 28 472.5 18 c 128,-1,64
 483 8 483 8 499 8 c 0,65,66
 538 8 538 8 585 31.5 c 128,-1,67
 632 55 632 55 680 91 c 128,-1,68
 728 127 728 127 774.5 171 c 128,-1,69
 821 215 821 215 859.5 255 c 128,-1,70
 898 295 898 295 926.5 327 c 128,-1,71
 955 359 955 359 967 372 c 1,72,-1
 987 356 l 1,73,74
 969 339 969 339 938 304 c 128,-1,75
 907 269 907 269 866.5 226.5 c 128,-1,76
 826 184 826 184 778 139.5 c 128,-1,77
 730 95 730 95 677 58 c 128,-1,78
 624 21 624 21 568.5 -2.5 c 128,-1,79
 513 -26 513 -26 457 -26 c 0,80,81
 402 -26 402 -26 368.5 2 c 128,-1,82
 335 30 335 30 335 76 c 0,0,1
EndSplineSet
EndChar

StartChar: s
Encoding: 115 115 23
Width: 581
Flags: W
LayerCount: 2
Fore
SplineSet
46 65 m 0,0,1
 46 98 46 98 61 123 c 128,-1,2
 76 148 76 148 97 164.5 c 128,-1,3
 118 181 118 181 139.5 189.5 c 128,-1,4
 161 198 161 198 175 198 c 0,5,6
 215 198 215 198 215 160 c 1,7,8
 213 145 213 145 193 132 c 128,-1,9
 173 119 173 119 147 119 c 0,10,11
 135 119 135 119 123.5 127 c 128,-1,12
 112 135 112 135 106 139 c 1,13,14
 100 134 100 134 94 127.5 c 128,-1,15
 88 121 88 121 83 112 c 128,-1,16
 78 103 78 103 74.5 91 c 128,-1,17
 71 79 71 79 71 63 c 0,18,19
 71 35 71 35 88 18 c 128,-1,20
 105 1 105 1 128.5 -8 c 128,-1,21
 152 -17 152 -17 177 -20 c 128,-1,22
 202 -23 202 -23 217 -23 c 0,23,24
 249 -23 249 -23 295 -4.5 c 128,-1,25
 341 14 341 14 386 56.5 c 128,-1,26
 431 99 431 99 467.5 168.5 c 128,-1,27
 504 238 504 238 516 341 c 0,28,29
 519 364 519 364 522 397.5 c 128,-1,30
 525 431 525 431 530 468.5 c 128,-1,31
 535 506 535 506 542 546 c 128,-1,32
 549 586 549 586 560 623 c 1,33,34
 531 589 531 589 497 551 c 128,-1,35
 463 513 463 513 430 477 c 128,-1,36
 397 441 397 441 368 409 c 128,-1,37
 339 377 339 377 320 356 c 0,38,39
 302 336 302 336 292 330.5 c 128,-1,40
 282 325 282 325 284 325 c 1,41,42
 282 325 282 325 277 324.5 c 128,-1,43
 272 324 272 324 270 327 c 0,44,45
 268 331 268 331 276.5 343 c 128,-1,46
 285 355 285 355 300 372 c 0,47,48
 325 399 325 399 359 435.5 c 128,-1,49
 393 472 393 472 430 511 c 128,-1,50
 467 550 467 550 502.5 589.5 c 128,-1,51
 538 629 538 629 566 662 c 1,52,53
 569 680 569 680 573 698 c 128,-1,54
 577 716 577 716 583.5 731 c 128,-1,55
 590 746 590 746 599 755.5 c 128,-1,56
 608 765 608 765 622 765 c 0,57,58
 639 765 639 765 650 756.5 c 128,-1,59
 661 748 661 748 661 733 c 1,60,61
 660 721 660 721 649.5 706 c 128,-1,62
 639 691 639 691 616 664 c 0,63,64
 603 648 603 648 596.5 639 c 128,-1,65
 590 630 590 630 588 623.5 c 128,-1,66
 586 617 586 617 586 612 c 128,-1,67
 586 607 586 607 586 599 c 0,68,69
 585 573 585 573 591.5 536.5 c 128,-1,70
 598 500 598 500 606 458 c 128,-1,71
 614 416 614 416 622 372.5 c 128,-1,72
 630 329 630 329 632 290 c 0,73,74
 635 215 635 215 609 155 c 1,75,-1
 620 155 l 2,76,77
 641 155 641 155 666.5 168.5 c 128,-1,78
 692 182 692 182 719 203.5 c 128,-1,79
 746 225 746 225 772 250.5 c 128,-1,80
 798 276 798 276 820 300 c 128,-1,81
 842 324 842 324 858 343.5 c 128,-1,82
 874 363 874 363 881 372 c 1,83,-1
 902 356 l 1,84,85
 885 339 885 339 853 301.5 c 128,-1,86
 821 264 821 264 781 226 c 128,-1,87
 741 188 741 188 698 159.5 c 128,-1,88
 655 131 655 131 617 131 c 0,89,90
 612 131 612 131 607.5 131 c 128,-1,91
 603 131 603 131 598 132 c 1,92,93
 571 82 571 82 528 46 c 128,-1,94
 485 10 485 10 435.5 -13.5 c 128,-1,95
 386 -37 386 -37 335 -48 c 128,-1,96
 284 -59 284 -59 241 -59 c 0,97,98
 221 -59 221 -59 188 -53.5 c 128,-1,99
 155 -48 155 -48 123.5 -34 c 128,-1,100
 92 -20 92 -20 69 4 c 128,-1,101
 46 28 46 28 46 65 c 0,0,1
EndSplineSet
EndChar

StartChar: t
Encoding: 116 116 24
Width: 422
Flags: W
LayerCount: 2
Fore
SplineSet
129 51 m 0,0,1
 129 68 129 68 131.5 84.5 c 128,-1,2
 134 101 134 101 142 121.5 c 128,-1,3
 150 142 150 142 165 169 c 128,-1,4
 180 196 180 196 205 235 c 128,-1,5
 230 274 230 274 267.5 327.5 c 128,-1,6
 305 381 305 381 357 455 c 2,7,-1
 607 808 l 1,8,-1
 501 808 l 2,9,10
 486 808 486 808 479 810.5 c 128,-1,11
 472 813 472 813 472 821 c 0,12,13
 472 832 472 832 482 834.5 c 128,-1,14
 492 837 492 837 509 837 c 2,15,-1
 628 837 l 1,16,-1
 808 1090 l 1,17,18
 820 1088 820 1088 841 1086.5 c 128,-1,19
 862 1085 862 1085 901 1086 c 0,20,21
 909 1086 909 1086 920 1087 c 128,-1,22
 931 1088 931 1088 943 1090 c 1,23,-1
 755 837 l 1,24,-1
 977 837 l 2,25,26
 992 837 992 837 998 833 c 128,-1,27
 1004 829 1004 829 1004 822 c 0,28,29
 1004 808 1004 808 980 808 c 2,30,-1
 734 808 l 1,31,-1
 477 461 l 2,32,33
 416 379 416 379 371.5 317 c 128,-1,34
 327 255 327 255 295.5 210 c 128,-1,35
 264 165 264 165 245 134 c 128,-1,36
 226 103 226 103 215 83 c 128,-1,37
 204 63 204 63 200 51.5 c 128,-1,38
 196 40 196 40 196 33 c 0,39,40
 196 19 196 19 208.5 11 c 128,-1,41
 221 3 221 3 244 2 c 1,42,43
 289 2 289 2 336.5 23.5 c 128,-1,44
 384 45 384 45 430.5 78 c 128,-1,45
 477 111 477 111 521 152.5 c 128,-1,46
 565 194 565 194 603 235 c 128,-1,47
 641 276 641 276 671.5 312 c 128,-1,48
 702 348 702 348 722 372 c 1,49,-1
 743 356 l 1,50,51
 724 334 724 334 693 297 c 128,-1,52
 662 260 662 260 622 217.5 c 128,-1,53
 582 175 582 175 535.5 132 c 128,-1,54
 489 89 489 89 439 53.5 c 128,-1,55
 389 18 389 18 337 -4 c 128,-1,56
 285 -26 285 -26 236 -26 c 0,57,58
 182 -26 182 -26 155.5 -4 c 128,-1,59
 129 18 129 18 129 51 c 0,0,1
EndSplineSet
EndChar

StartChar: u
Encoding: 117 117 25
Width: 864
Flags: W
LayerCount: 2
Fore
SplineSet
134 73 m 0,0,1
 132 109 132 109 146 147.5 c 128,-1,2
 160 186 160 186 188.5 230 c 128,-1,3
 217 274 217 274 259 326 c 128,-1,4
 301 378 301 378 355 441 c 0,5,6
 393 486 393 486 434 537.5 c 128,-1,7
 475 589 475 589 520 639 c 1,8,9
 533 637 533 637 557 634.5 c 128,-1,10
 581 632 581 632 599 632 c 0,11,12
 606 632 606 632 616 632 c 128,-1,13
 626 632 626 632 636.5 632.5 c 128,-1,14
 647 633 647 633 656 634 c 128,-1,15
 665 635 665 635 669 636 c 1,16,17
 628 592 628 592 585.5 544 c 128,-1,18
 543 496 543 496 502.5 448.5 c 128,-1,19
 462 401 462 401 424.5 355.5 c 128,-1,20
 387 310 387 310 354 270 c 0,21,22
 338 250 338 250 314 222.5 c 128,-1,23
 290 195 290 195 267.5 163.5 c 128,-1,24
 245 132 245 132 229 98.5 c 128,-1,25
 213 65 213 65 214 34 c 0,26,27
 215 20 215 20 225 9.5 c 128,-1,28
 235 -1 235 -1 261 -1 c 0,29,30
 281 -1 281 -1 322 11 c 128,-1,31
 363 23 363 23 410 55 c 0,32,33
 476 99 476 99 558 175 c 128,-1,34
 640 251 640 251 739 372 c 0,35,36
 755 392 755 392 766.5 406.5 c 128,-1,37
 778 421 778 421 788 432 c 0,38,39
 824 477 824 477 866.5 528 c 128,-1,40
 909 579 909 579 960 639 c 1,41,42
 975 637 975 637 985.5 635.5 c 128,-1,43
 996 634 996 634 1004 633.5 c 128,-1,44
 1012 633 1012 633 1019.5 632.5 c 128,-1,45
 1027 632 1027 632 1038 632 c 0,46,47
 1085 632 1085 632 1108 636 c 1,48,49
 1065 589 1065 589 1011.5 525.5 c 128,-1,50
 958 462 958 462 903.5 395.5 c 128,-1,51
 849 329 849 329 797 264.5 c 128,-1,52
 745 200 745 200 704 150 c 0,53,54
 681 123 681 123 667 105 c 128,-1,55
 653 87 653 87 645.5 75 c 128,-1,56
 638 63 638 63 635.5 54.5 c 128,-1,57
 633 46 633 46 633 37 c 1,58,59
 634 31 634 31 635.5 25 c 128,-1,60
 637 19 637 19 642 13.5 c 128,-1,61
 647 8 647 8 657 5 c 128,-1,62
 667 2 667 2 685 2 c 0,63,64
 728 2 728 2 778 27 c 128,-1,65
 828 52 828 52 878.5 90 c 128,-1,66
 929 128 929 128 976.5 173.5 c 128,-1,67
 1024 219 1024 219 1063 260 c 128,-1,68
 1102 301 1102 301 1128.5 332 c 128,-1,69
 1155 363 1155 363 1164 372 c 1,70,-1
 1185 356 l 1,71,72
 1175 346 1175 346 1146.5 313.5 c 128,-1,73
 1118 281 1118 281 1077.5 238.5 c 128,-1,74
 1037 196 1037 196 987 149.5 c 128,-1,75
 937 103 937 103 884 64 c 128,-1,76
 831 25 831 25 778 -0.5 c 128,-1,77
 725 -26 725 -26 678 -26 c 0,78,79
 637 -26 637 -26 611.5 -3.5 c 128,-1,80
 586 19 586 19 584 58 c 0,81,82
 582 93 582 93 594 130.5 c 128,-1,83
 606 168 606 168 633 216 c 1,84,85
 570 148 570 148 517.5 102 c 128,-1,86
 465 56 465 56 416 27 c 0,87,88
 365 -3 365 -3 324 -14.5 c 128,-1,89
 283 -26 283 -26 253 -26 c 0,90,91
 221 -26 221 -26 199 -17.5 c 128,-1,92
 177 -9 177 -9 162.5 5 c 128,-1,93
 148 19 148 19 141.5 37 c 128,-1,94
 135 55 135 55 134 73 c 0,0,1
EndSplineSet
EndChar

StartChar: v
Encoding: 118 118 26
Width: 776
Flags: W
LayerCount: 2
Fore
SplineSet
106 56 m 0,0,1
 106 82 106 82 112.5 107.5 c 128,-1,2
 119 133 119 133 139 169 c 128,-1,3
 159 205 159 205 196 255.5 c 128,-1,4
 233 306 233 306 293 381 c 0,5,6
 337 436 337 436 399.5 500 c 128,-1,7
 462 564 462 564 536 639 c 1,8,9
 551 637 551 637 562 635.5 c 128,-1,10
 573 634 573 634 582 633.5 c 128,-1,11
 591 633 591 633 599.5 632.5 c 128,-1,12
 608 632 608 632 619 632 c 0,13,14
 642 632 642 632 658.5 633 c 128,-1,15
 675 634 675 634 689 636 c 1,16,17
 638 591 638 591 604 556.5 c 128,-1,18
 570 522 570 522 542.5 491.5 c 128,-1,19
 515 461 515 461 489 431 c 128,-1,20
 463 401 463 401 429 365 c 0,21,22
 413 348 413 348 388 322.5 c 128,-1,23
 363 297 363 297 334.5 267.5 c 128,-1,24
 306 238 306 238 277 206 c 128,-1,25
 248 174 248 174 225 144 c 128,-1,26
 202 114 202 114 187.5 88 c 128,-1,27
 173 62 173 62 173 45 c 0,28,29
 173 13 173 13 187.5 6.5 c 128,-1,30
 202 0 202 0 228 0 c 0,31,32
 282 0 282 0 343 22.5 c 128,-1,33
 404 45 404 45 467.5 82.5 c 128,-1,34
 531 120 531 120 593.5 167.5 c 128,-1,35
 656 215 656 215 712 265 c 0,36,37
 765 312 765 312 796.5 352.5 c 128,-1,38
 828 393 828 393 845 431 c 128,-1,39
 862 469 862 469 867.5 507 c 128,-1,40
 873 545 873 545 873 586 c 0,41,42
 873 621 873 621 895.5 644.5 c 128,-1,43
 918 668 918 668 950 668 c 0,44,45
 976 668 976 668 990.5 656 c 128,-1,46
 1005 644 1005 644 1005 615 c 0,47,48
 1005 594 1005 594 997.5 567 c 128,-1,49
 990 540 990 540 969 503.5 c 128,-1,50
 948 467 948 467 910 420.5 c 128,-1,51
 872 374 872 374 811 314 c 1,52,-1
 782 287 l 1,53,54
 766 264 766 264 756 242.5 c 128,-1,55
 746 221 746 221 745 203.5 c 128,-1,56
 744 186 744 186 754 175.5 c 128,-1,57
 764 165 764 165 790 165 c 0,58,59
 823 165 823 165 865 189.5 c 128,-1,60
 907 214 907 214 947.5 247.5 c 128,-1,61
 988 281 988 281 1022.5 316 c 128,-1,62
 1057 351 1057 351 1076 372 c 1,63,-1
 1097 356 l 1,64,65
 1072 329 1072 329 1034.5 292 c 128,-1,66
 997 255 997 255 954 221.5 c 128,-1,67
 911 188 911 188 866 164 c 128,-1,68
 821 140 821 140 782 140 c 0,69,70
 734 140 734 140 722.5 168 c 128,-1,71
 711 196 711 196 731 242 c 1,72,73
 677 197 677 197 611 149.5 c 128,-1,74
 545 102 545 102 476 63 c 128,-1,75
 407 24 407 24 339.5 -1 c 128,-1,76
 272 -26 272 -26 215 -26 c 0,77,78
 160 -26 160 -26 133 -4 c 128,-1,79
 106 18 106 18 106 56 c 0,0,1
EndSplineSet
EndChar

StartChar: w
Encoding: 119 119 27
Width: 1132
Flags: W
LayerCount: 2
Fore
SplineSet
121 37 m 0,0,1
 121 83 121 83 150 147.5 c 128,-1,2
 179 212 179 212 233.5 290 c 128,-1,3
 288 368 288 368 367.5 456.5 c 128,-1,4
 447 545 447 545 548 639 c 1,5,6
 561 637 561 637 584.5 634.5 c 128,-1,7
 608 632 608 632 627 632 c 0,8,9
 633 632 633 632 643 632 c 128,-1,10
 653 632 653 632 663.5 632.5 c 128,-1,11
 674 633 674 633 683 634 c 128,-1,12
 692 635 692 635 697 636 c 1,13,14
 638 575 638 575 573.5 508 c 128,-1,15
 509 441 509 441 449.5 377 c 128,-1,16
 390 313 390 313 339.5 258 c 128,-1,17
 289 203 289 203 258 166 c 0,18,19
 210 108 210 108 187 74.5 c 128,-1,20
 164 41 164 41 164 23 c 0,21,22
 164 12 164 12 168.5 7 c 128,-1,23
 173 2 173 2 190 2 c 0,24,25
 209 2 209 2 236 9.5 c 128,-1,26
 263 17 263 17 299.5 35 c 128,-1,27
 336 53 336 53 383 83 c 128,-1,28
 430 113 430 113 489 157 c 0,29,30
 554 205 554 205 613.5 259 c 128,-1,31
 673 313 673 313 718 365 c 1,32,-1
 744 396 l 1,33,-1
 747 400 l 1,34,-1
 746 399 l 1,35,36
 791 451 791 451 847.5 510.5 c 128,-1,37
 904 570 904 570 976 639 c 1,38,39
 991 637 991 637 1001 635.5 c 128,-1,40
 1011 634 1011 634 1019.5 633.5 c 128,-1,41
 1028 633 1028 633 1036 632.5 c 128,-1,42
 1044 632 1044 632 1055 632 c 0,43,44
 1078 632 1078 632 1094.5 633 c 128,-1,45
 1111 634 1111 634 1125 636 c 1,46,47
 1080 589 1080 589 1020.5 525.5 c 128,-1,48
 961 462 961 462 898.5 395.5 c 128,-1,49
 836 329 836 329 777.5 264.5 c 128,-1,50
 719 200 719 200 676 150 c 0,51,52
 653 123 653 123 637.5 102.5 c 128,-1,53
 622 82 622 82 613 67 c 128,-1,54
 604 52 604 52 600.5 42 c 128,-1,55
 597 32 597 32 597 25 c 0,56,57
 597 11 597 11 604 6.5 c 128,-1,58
 611 2 611 2 621 2 c 0,59,60
 643 2 643 2 676 12 c 128,-1,61
 709 22 709 22 748.5 40 c 128,-1,62
 788 58 788 58 832.5 84 c 128,-1,63
 877 110 877 110 922.5 141.5 c 128,-1,64
 968 173 968 173 1012 210 c 128,-1,65
 1056 247 1056 247 1095 288 c 0,66,67
 1144 339 1144 339 1175.5 376.5 c 128,-1,68
 1207 414 1207 414 1225 447 c 128,-1,69
 1243 480 1243 480 1250 512.5 c 128,-1,70
 1257 545 1257 545 1257 586 c 0,71,72
 1257 604 1257 604 1261.5 620.5 c 128,-1,73
 1266 637 1266 637 1275 649.5 c 128,-1,74
 1284 662 1284 662 1296.5 670 c 128,-1,75
 1309 678 1309 678 1325 678 c 0,76,77
 1359 678 1359 678 1374 661 c 128,-1,78
 1389 644 1389 644 1389 615 c 0,79,80
 1389 594 1389 594 1381.5 567.5 c 128,-1,81
 1374 541 1374 541 1352.5 505 c 128,-1,82
 1331 469 1331 469 1293 422 c 128,-1,83
 1255 375 1255 375 1195 314 c 0,84,85
 1178 297 1178 297 1158 279 c 128,-1,86
 1138 261 1138 261 1115 242 c 1,87,88
 1109 226 1109 226 1107 212 c 128,-1,89
 1105 198 1105 198 1109.5 187.5 c 128,-1,90
 1114 177 1114 177 1124.5 171 c 128,-1,91
 1135 165 1135 165 1154 165 c 0,92,93
 1176 165 1176 165 1202 176.5 c 128,-1,94
 1228 188 1228 188 1254.5 206 c 128,-1,95
 1281 224 1281 224 1307.5 247 c 128,-1,96
 1334 270 1334 270 1357.5 293 c 128,-1,97
 1381 316 1381 316 1400 337 c 128,-1,98
 1419 358 1419 358 1432 372 c 1,99,-1
 1453 356 l 1,100,101
 1428 329 1428 329 1392 292 c 128,-1,102
 1356 255 1356 255 1314.5 221.5 c 128,-1,103
 1273 188 1273 188 1229 164 c 128,-1,104
 1185 140 1185 140 1146 140 c 0,105,106
 1106 140 1106 140 1090 160 c 128,-1,107
 1074 180 1074 180 1081 214 c 1,108,109
 1024 170 1024 170 958.5 127 c 128,-1,110
 893 84 893 84 829 50 c 128,-1,111
 765 16 765 16 707.5 -5 c 128,-1,112
 650 -26 650 -26 610 -26 c 0,113,114
 577 -26 577 -26 563 -7.5 c 128,-1,115
 549 11 549 11 549 38 c 0,116,117
 549 73 549 73 564 118.5 c 128,-1,118
 579 164 579 164 616 224 c 1,119,120
 584 195 584 195 552.5 169 c 128,-1,121
 521 143 521 143 489 120 c 0,122,123
 386 44 386 44 312 9 c 128,-1,124
 238 -26 238 -26 185 -26 c 0,125,126
 156 -26 156 -26 138.5 -10.5 c 128,-1,127
 121 5 121 5 121 37 c 0,0,1
EndSplineSet
EndChar

StartChar: x
Encoding: 120 120 28
Width: 882
Flags: W
LayerCount: 2
Fore
SplineSet
106 27 m 0,0,1
 106 44 106 44 123 58 c 128,-1,2
 140 72 140 72 165 72 c 0,3,4
 176 72 176 72 185 69 c 128,-1,5
 194 66 194 66 205 58 c 0,6,7
 216 49 216 49 224 45 c 128,-1,8
 232 41 232 41 243 41 c 0,9,10
 290 41 290 41 341 67 c 128,-1,11
 392 93 392 93 443 140.5 c 128,-1,12
 494 188 494 188 543 254 c 128,-1,13
 592 320 592 320 635 401 c 1,14,15
 656 432 656 432 669 455.5 c 128,-1,16
 682 479 682 479 689 498 c 128,-1,17
 696 517 696 517 698 532.5 c 128,-1,18
 700 548 700 548 700 563 c 0,19,20
 700 587 700 587 689.5 601 c 128,-1,21
 679 615 679 615 654 615 c 0,22,23
 630 615 630 615 602.5 606.5 c 128,-1,24
 575 598 575 598 537.5 570.5 c 128,-1,25
 500 543 500 543 448 492 c 128,-1,26
 396 441 396 441 321 356 c 1,27,28
 313 354 313 354 303 362 c 0,29,30
 301 364 301 364 299.5 366.5 c 128,-1,31
 298 369 298 369 300 372 c 0,32,33
 379 461 379 461 434.5 515 c 128,-1,34
 490 569 490 569 530.5 598 c 128,-1,35
 571 627 571 627 602 636 c 128,-1,36
 633 645 633 645 665 645 c 0,37,38
 721 645 721 645 752.5 609.5 c 128,-1,39
 784 574 784 574 784 511 c 0,40,41
 784 476 784 476 766 415 c 1,42,43
 800 460 800 460 840.5 501.5 c 128,-1,44
 881 543 881 543 924.5 575 c 128,-1,45
 968 607 968 607 1013 626 c 128,-1,46
 1058 645 1058 645 1101 645 c 0,47,48
 1127 645 1127 645 1144.5 638 c 128,-1,49
 1162 631 1162 631 1172.5 620.5 c 128,-1,50
 1183 610 1183 610 1187.5 598 c 128,-1,51
 1192 586 1192 586 1192 575 c 0,52,53
 1192 544 1192 544 1173.5 530 c 128,-1,54
 1155 516 1155 516 1137 516 c 0,55,56
 1104 516 1104 516 1086 537.5 c 128,-1,57
 1068 559 1068 559 1066 596 c 1,58,59
 1061 597 1061 597 1056.5 597 c 128,-1,60
 1052 597 1052 597 1049 597 c 0,61,62
 1018 597 1018 597 976 573 c 128,-1,63
 934 549 934 549 888.5 507 c 128,-1,64
 843 465 843 465 797.5 407 c 128,-1,65
 752 349 752 349 713 281 c 0,66,67
 705 267 705 267 697.5 252.5 c 128,-1,68
 690 238 690 238 682 224 c 1,69,70
 653 163 653 163 643 124.5 c 128,-1,71
 633 86 633 86 633 57 c 0,72,73
 633 27 633 27 651.5 14.5 c 128,-1,74
 670 2 670 2 698 2 c 0,75,76
 747 2 747 2 801.5 28.5 c 128,-1,77
 856 55 856 55 909 95 c 128,-1,78
 962 135 962 135 1010.5 182.5 c 128,-1,79
 1059 230 1059 230 1096 271 c 128,-1,80
 1133 312 1133 312 1156.5 341 c 128,-1,81
 1180 370 1180 370 1183 373 c 1,82,-1
 1203 356 l 1,83,84
 1199 352 1199 352 1174 322.5 c 128,-1,85
 1149 293 1149 293 1109.5 250.5 c 128,-1,86
 1070 208 1070 208 1019 159.5 c 128,-1,87
 968 111 968 111 912 70 c 128,-1,88
 856 29 856 29 797.5 1.5 c 128,-1,89
 739 -26 739 -26 686 -26 c 0,90,91
 659 -26 659 -26 633.5 -18 c 128,-1,92
 608 -10 608 -10 588 7.5 c 128,-1,93
 568 25 568 25 556 53 c 128,-1,94
 544 81 544 81 544 122 c 0,95,96
 544 165 544 165 569 239 c 1,97,98
 520 171 520 171 466.5 121.5 c 128,-1,99
 413 72 413 72 362 39 c 128,-1,100
 311 6 311 6 266 -10 c 128,-1,101
 221 -26 221 -26 188 -26 c 0,102,103
 141 -26 141 -26 123.5 -12.5 c 128,-1,104
 106 1 106 1 106 27 c 0,0,1
EndSplineSet
EndChar

StartChar: y
Encoding: 121 121 29
Width: 857
Flags: W
LayerCount: 2
Fore
SplineSet
138 56 m 0,0,1
 138 82 138 82 144 107.5 c 128,-1,2
 150 133 150 133 168 169 c 128,-1,3
 186 205 186 205 218.5 255.5 c 128,-1,4
 251 306 251 306 305 381 c 1,5,6
 349 436 349 436 411.5 500 c 128,-1,7
 474 564 474 564 548 639 c 1,8,9
 563 637 563 637 574 635.5 c 128,-1,10
 585 634 585 634 594 633.5 c 128,-1,11
 603 633 603 633 611.5 632.5 c 128,-1,12
 620 632 620 632 631 632 c 0,13,14
 654 632 654 632 670.5 633 c 128,-1,15
 687 634 687 634 701 636 c 1,16,17
 650 591 650 591 616 556.5 c 128,-1,18
 582 522 582 522 554.5 491.5 c 128,-1,19
 527 461 527 461 501 431 c 128,-1,20
 475 401 475 401 441 365 c 0,21,22
 426 348 426 348 403 322.5 c 128,-1,23
 380 297 380 297 353.5 267.5 c 128,-1,24
 327 238 327 238 300.5 206 c 128,-1,25
 274 174 274 174 253 144 c 128,-1,26
 232 114 232 114 218.5 88 c 128,-1,27
 205 62 205 62 205 45 c 0,28,29
 205 29 205 29 210 20 c 128,-1,30
 215 11 215 11 222.5 6.5 c 128,-1,31
 230 2 230 2 238.5 1 c 128,-1,32
 247 0 247 0 254 0 c 0,33,34
 320 0 320 0 390 29.5 c 128,-1,35
 460 59 460 59 527 106.5 c 128,-1,36
 594 154 594 154 655.5 213.5 c 128,-1,37
 717 273 717 273 766 333 c 1,38,39
 815 388 815 388 854.5 433 c 128,-1,40
 894 478 894 478 924.5 514.5 c 128,-1,41
 955 551 955 551 979 581 c 128,-1,42
 1003 611 1003 611 1023 636 c 1,43,44
 1034 633 1034 633 1050 631 c 128,-1,45
 1066 629 1066 629 1083 629 c 0,46,47
 1096 629 1096 629 1119 629.5 c 128,-1,48
 1142 630 1142 630 1155 632 c 1,49,-1
 815 214 l 1,50,51
 723 89 723 89 643.5 -16.5 c 128,-1,52
 564 -122 564 -122 492 -213 c 1,53,54
 569 -173 569 -173 643.5 -120.5 c 128,-1,55
 718 -68 718 -68 786 -11.5 c 128,-1,56
 854 45 854 45 914 102.5 c 128,-1,57
 974 160 974 160 1022 211.5 c 128,-1,58
 1070 263 1070 263 1104.5 305 c 128,-1,59
 1139 347 1139 347 1157 372 c 1,60,-1
 1177 356 l 1,61,62
 1155 325 1155 325 1115 277.5 c 128,-1,63
 1075 230 1075 230 1021 174 c 128,-1,64
 967 118 967 118 901 57 c 128,-1,65
 835 -4 835 -4 762.5 -61.5 c 128,-1,66
 690 -119 690 -119 612.5 -170 c 128,-1,67
 535 -221 535 -221 457 -256 c 1,68,69
 360 -377 360 -377 279.5 -469 c 128,-1,70
 199 -561 199 -561 129.5 -628 c 128,-1,71
 60 -695 60 -695 0 -739.5 c 128,-1,72
 -60 -784 -60 -784 -115.5 -811 c 128,-1,73
 -171 -838 -171 -838 -223.5 -849 c 128,-1,74
 -276 -860 -276 -860 -331 -860 c 0,75,76
 -368 -860 -368 -860 -387.5 -839 c 128,-1,77
 -407 -818 -407 -818 -407 -795 c 0,78,79
 -407 -745 -407 -745 -365.5 -688.5 c 128,-1,80
 -324 -632 -324 -632 -234.5 -567.5 c 128,-1,81
 -145 -503 -145 -503 -5 -429.5 c 128,-1,82
 135 -356 135 -356 332 -271 c 1,83,84
 417 -168 417 -168 516 -42 c 128,-1,85
 615 84 615 84 734 238 c 1,86,-1
 725 242 l 1,87,88
 683 198 683 198 625.5 150.5 c 128,-1,89
 568 103 568 103 503.5 64 c 128,-1,90
 439 25 439 25 372.5 -0.5 c 128,-1,91
 306 -26 306 -26 247 -26 c 0,92,93
 192 -26 192 -26 165 -4 c 128,-1,94
 138 18 138 18 138 56 c 0,0,1
300 -310 m 1,95,96
 139 -384 139 -384 13.5 -453.5 c 128,-1,97
 -112 -523 -112 -523 -198.5 -585.5 c 128,-1,98
 -285 -648 -285 -648 -330 -701 c 128,-1,99
 -375 -754 -375 -754 -375 -795 c 0,100,101
 -375 -806 -375 -806 -364.5 -820 c 128,-1,102
 -354 -834 -354 -834 -328 -834 c 0,103,104
 -273 -834 -273 -834 -214.5 -808.5 c 128,-1,105
 -156 -783 -156 -783 -83 -722.5 c 128,-1,106
 -10 -662 -10 -662 83 -561.5 c 128,-1,107
 176 -461 176 -461 300 -310 c 1,95,96
EndSplineSet
EndChar

StartChar: z
Encoding: 122 122 30
Width: 679
Flags: W
LayerCount: 2
Fore
SplineSet
164 -98 m 0,0,1
 164 -93 164 -93 173 -84.5 c 128,-1,2
 182 -76 182 -76 211 -63 c 256,3,4
 240 -50 240 -50 263 -37.5 c 128,-1,5
 286 -25 286 -25 307 -7.5 c 128,-1,6
 328 10 328 10 348.5 35 c 128,-1,7
 369 60 369 60 393.5 97.5 c 128,-1,8
 418 135 418 135 447.5 187.5 c 128,-1,9
 477 240 477 240 516 313 c 1,10,11
 555 383 555 383 599 441 c 1,12,13
 545 449 545 449 507.5 472 c 128,-1,14
 470 495 470 495 446 524 c 1,15,16
 428 491 428 491 398 449.5 c 128,-1,17
 368 408 368 408 321 356 c 0,18,19
 260 289 260 289 221 254 c 128,-1,20
 182 219 182 219 180 217 c 0,21,22
 177 215 177 215 176 221.5 c 128,-1,23
 175 228 175 228 177 233 c 0,24,25
 177 235 177 235 187.5 246 c 128,-1,26
 198 257 198 257 215 275.5 c 128,-1,27
 232 294 232 294 254 318.5 c 128,-1,28
 276 343 276 343 300 372 c 0,29,30
 346 426 346 426 378 469 c 128,-1,31
 410 512 410 512 429 548 c 1,32,33
 415 573 415 573 408 599 c 128,-1,34
 401 625 401 625 401 650 c 0,35,36
 401 671 401 671 408 690.5 c 128,-1,37
 415 710 415 710 427.5 725.5 c 128,-1,38
 440 741 440 741 457.5 750 c 128,-1,39
 475 759 475 759 496 759 c 0,40,41
 519 759 519 759 533 745 c 128,-1,42
 547 731 547 731 547 714 c 0,43,44
 547 674 547 674 514 657 c 0,45,46
 501 650 501 650 491 640 c 128,-1,47
 481 630 481 630 479 616 c 0,48,49
 468 565 468 565 502 522 c 128,-1,50
 536 479 536 479 615 461 c 1,51,52
 701 567 701 567 787.5 617 c 128,-1,53
 874 667 874 667 943 667 c 0,54,55
 1016 667 1016 667 1016 624 c 0,56,57
 1016 600 1016 600 992.5 572.5 c 128,-1,58
 969 545 969 545 930 519.5 c 128,-1,59
 891 494 891 494 839.5 472.5 c 128,-1,60
 788 451 788 451 733 441 c 1,61,62
 690 335 690 335 644 259.5 c 128,-1,63
 598 184 598 184 551.5 131 c 128,-1,64
 505 78 505 78 458.5 43.5 c 128,-1,65
 412 9 412 9 369 -15 c 1,66,67
 458 -23 458 -23 480 -103 c 1,68,69
 584 -29 584 -29 658 33.5 c 128,-1,70
 732 96 732 96 788.5 152.5 c 128,-1,71
 845 209 845 209 889.5 262.5 c 128,-1,72
 934 316 934 316 979 372 c 1,73,-1
 999 356 l 1,74,75
 964 315 964 315 933.5 278 c 128,-1,76
 903 241 903 241 871.5 205 c 128,-1,77
 840 169 840 169 804 132 c 128,-1,78
 768 95 768 95 722.5 55 c 128,-1,79
 677 15 677 15 619 -29.5 c 128,-1,80
 561 -74 561 -74 485 -126 c 1,81,82
 487 -140 487 -140 487.5 -155.5 c 128,-1,83
 488 -171 488 -171 487 -189 c 0,84,85
 483 -253 483 -253 443.5 -327.5 c 128,-1,86
 404 -402 404 -402 341.5 -476.5 c 128,-1,87
 279 -551 279 -551 200 -620.5 c 128,-1,88
 121 -690 121 -690 37.5 -743 c 128,-1,89
 -46 -796 -46 -796 -126.5 -828 c 128,-1,90
 -207 -860 -207 -860 -272 -860 c 0,91,92
 -318 -860 -318 -860 -338 -836 c 128,-1,93
 -358 -812 -358 -812 -358 -780 c 0,94,95
 -358 -746 -358 -746 -331.5 -702.5 c 128,-1,96
 -305 -659 -305 -659 -256.5 -608.5 c 128,-1,97
 -208 -558 -208 -558 -140 -501.5 c 128,-1,98
 -72 -445 -72 -445 11 -386.5 c 128,-1,99
 94 -328 94 -328 188.5 -268.5 c 128,-1,100
 283 -209 283 -209 386 -151 c 1,101,102
 388 -140 388 -140 389 -130.5 c 128,-1,103
 390 -121 390 -121 390 -111 c 0,104,105
 390 -69 390 -69 375 -49.5 c 128,-1,106
 360 -30 360 -30 342 -30 c 1,107,108
 311 -46 311 -46 283 -60 c 128,-1,109
 255 -74 255 -74 230 -89 c 0,110,111
 208 -103 208 -103 203.5 -108 c 128,-1,112
 199 -113 199 -113 192 -113 c 0,113,114
 186 -113 186 -113 175 -106.5 c 128,-1,115
 164 -100 164 -100 164 -98 c 0,0,1
743 464 m 1,116,117
 791 474 791 474 833.5 492.5 c 128,-1,118
 876 511 876 511 907.5 532 c 128,-1,119
 939 553 939 553 957.5 575.5 c 128,-1,120
 976 598 976 598 976 616 c 0,121,122
 976 631 976 631 966 638.5 c 128,-1,123
 956 646 956 646 941 646 c 0,124,125
 920 646 920 646 894.5 636 c 128,-1,126
 869 626 869 626 842.5 604 c 128,-1,127
 816 582 816 582 790.5 547.5 c 128,-1,128
 765 513 765 513 743 464 c 1,116,117
379 -182 m 1,129,130
 288 -236 288 -236 200 -291.5 c 128,-1,131
 112 -347 112 -347 33 -402 c 128,-1,132
 -46 -457 -46 -457 -112 -510 c 128,-1,133
 -178 -563 -178 -563 -226 -612.5 c 128,-1,134
 -274 -662 -274 -662 -301 -705.5 c 128,-1,135
 -328 -749 -328 -749 -328 -785 c 0,136,137
 -328 -805 -328 -805 -316 -820 c 128,-1,138
 -304 -835 -304 -835 -272 -835 c 0,139,140
 -235 -835 -235 -835 -177 -805.5 c 128,-1,141
 -119 -776 -119 -776 -52.5 -726 c 128,-1,142
 14 -676 14 -676 83 -610 c 128,-1,143
 152 -544 152 -544 211.5 -471.5 c 128,-1,144
 271 -399 271 -399 316 -324.5 c 128,-1,145
 361 -250 361 -250 379 -182 c 1,129,130
EndSplineSet
EndChar

StartChar: A
Encoding: 65 65 31
Width: 1478
Flags: W
LayerCount: 2
Fore
SplineSet
79 144 m 256,0,1
 79 173 79 173 97.5 192.5 c 128,-1,2
 116 212 116 212 145 212 c 0,3,4
 168 212 168 212 184.5 196.5 c 128,-1,5
 201 181 201 181 201 161 c 0,6,7
 201 140 201 140 186.5 128 c 128,-1,8
 172 116 172 116 148 116 c 0,9,10
 138 116 138 116 126 121 c 1,11,12
 130 97 130 97 145 75.5 c 128,-1,13
 160 54 160 54 184 37.5 c 128,-1,14
 208 21 208 21 240.5 11.5 c 128,-1,15
 273 2 273 2 314 2 c 0,16,17
 380 2 380 2 446.5 28 c 128,-1,18
 513 54 513 54 588 106 c 0,19,20
 626 133 626 133 663 162.5 c 128,-1,21
 700 192 700 192 740 225 c 1,22,23
 663 252 663 252 603 291.5 c 128,-1,24
 543 331 543 331 501 379 c 128,-1,25
 459 427 459 427 436 481.5 c 128,-1,26
 413 536 413 536 410 593 c 0,27,28
 408 636 408 636 424.5 679 c 128,-1,29
 441 722 441 722 474.5 755.5 c 128,-1,30
 508 789 508 789 556.5 808 c 128,-1,31
 605 827 605 827 666 823 c 0,32,33
 733 818 733 818 794.5 794 c 128,-1,34
 856 770 856 770 908.5 731.5 c 128,-1,35
 961 693 961 693 1003 642 c 128,-1,36
 1045 591 1045 591 1074 533 c 1,37,-1
 1124 581 l 2,38,39
 1246 699 1246 699 1345 791.5 c 128,-1,40
 1444 884 1444 884 1524 955 c 128,-1,41
 1604 1026 1604 1026 1668 1078.5 c 128,-1,42
 1732 1131 1732 1131 1783.5 1169.5 c 128,-1,43
 1835 1208 1835 1208 1876.5 1234.5 c 128,-1,44
 1918 1261 1918 1261 1954 1280 c 0,45,46
 2026 1318 2026 1318 2072.5 1332 c 128,-1,47
 2119 1346 2119 1346 2145 1346 c 0,48,49
 2154 1346 2154 1346 2158 1344.5 c 128,-1,50
 2162 1343 2162 1343 2162 1337 c 0,51,52
 2162 1335 2162 1335 2158 1332 c 128,-1,53
 2154 1329 2154 1329 2142 1324 c 0,54,55
 2130 1320 2130 1320 2108.5 1301 c 128,-1,56
 2087 1282 2087 1282 2047 1236.5 c 128,-1,57
 2007 1191 2007 1191 1945 1113.5 c 128,-1,58
 1883 1036 1883 1036 1789.5 916 c 128,-1,59
 1696 796 1696 796 1566.5 627 c 128,-1,60
 1437 458 1437 458 1263 230 c 1,61,62
 1368 256 1368 256 1474 309.5 c 128,-1,63
 1580 363 1580 363 1665 449 c 1,64,65
 1768 551 1768 551 1823 698 c 0,66,67
 1833 727 1833 727 1838 727 c 0,68,69
 1842 727 1842 727 1848 719 c 128,-1,70
 1854 711 1854 711 1854 699 c 0,71,72
 1854 625 1854 625 1810 553 c 128,-1,73
 1766 481 1766 481 1695 417 c 0,74,75
 1650 376 1650 376 1596.5 341 c 128,-1,76
 1543 306 1543 306 1484 278 c 128,-1,77
 1425 250 1425 250 1362.5 229 c 128,-1,78
 1300 208 1300 208 1237 195 c 1,79,-1
 1070 -24 l 1,80,81
 1040 -22 1040 -22 1008 -20.5 c 128,-1,82
 976 -19 976 -19 958 -19 c 0,83,84
 941 -19 941 -19 928 -20.5 c 128,-1,85
 915 -22 915 -22 901 -24 c 1,86,-1
 1053 158 l 1,87,-1
 1063 176 l 1,88,-1
 1050 176 l 2,89,90
 972 176 972 176 903 186 c 128,-1,91
 834 196 834 196 773 214 c 1,92,93
 701 153 701 153 647.5 112.5 c 128,-1,94
 594 72 594 72 556 48 c 0,95,96
 493 9 493 9 431 -9.5 c 128,-1,97
 369 -28 369 -28 304 -28 c 0,98,99
 250 -28 250 -28 208 -12 c 128,-1,100
 166 4 166 4 137.5 29.5 c 128,-1,101
 109 55 109 55 94 85 c 128,-1,102
 79 115 79 115 79 144 c 256,0,1
1118 235 m 1,103,104
 1324 481 1324 481 1482 662.5 c 128,-1,105
 1640 844 1640 844 1755.5 972 c 128,-1,106
 1871 1100 1871 1100 1947 1179 c 128,-1,107
 2023 1258 2023 1258 2064 1298 c 1,108,109
 2035 1287 2035 1287 2003 1275.5 c 128,-1,110
 1971 1264 1971 1264 1927 1238 c 0,111,112
 1868 1202 1868 1202 1795 1146.5 c 128,-1,113
 1722 1091 1722 1091 1630.5 1011.5 c 128,-1,114
 1539 932 1539 932 1426 826.5 c 128,-1,115
 1313 721 1313 721 1174 585 c 0,116,117
 1151 563 1151 563 1130 542.5 c 128,-1,118
 1109 522 1109 522 1088 502 c 1,119,120
 1107 457 1107 457 1117 409.5 c 128,-1,121
 1127 362 1127 362 1127 314 c 0,122,123
 1127 274 1127 274 1118 235 c 1,103,104
483 576 m 0,124,125
 489 468 489 468 565.5 384.5 c 128,-1,126
 642 301 642 301 773 254 c 1,127,128
 833 305 833 305 901 368 c 128,-1,129
 969 431 969 431 1053 512 c 1,130,131
 1026 573 1026 573 985.5 624 c 128,-1,132
 945 675 945 675 895.5 711.5 c 128,-1,133
 846 748 846 748 791 768 c 128,-1,134
 736 788 736 788 680 788 c 0,135,136
 630 788 630 788 592 772 c 128,-1,137
 554 756 554 756 529 727.5 c 128,-1,138
 504 699 504 699 492 660 c 128,-1,139
 480 621 480 621 483 576 c 0,124,125
806 243 m 1,140,141
 866 225 866 225 933 215.5 c 128,-1,142
 1000 206 1000 206 1075 206 c 1,143,144
 1086 235 1086 235 1090.5 264.5 c 128,-1,145
 1095 294 1095 294 1095 315 c 0,146,147
 1095 359 1095 359 1087.5 400.5 c 128,-1,148
 1080 442 1080 442 1066 481 c 1,149,150
 989 408 989 408 925 349.5 c 128,-1,151
 861 291 861 291 806 243 c 1,140,141
EndSplineSet
EndChar

StartChar: B
Encoding: 66 66 32
Width: 1559
Flags: W
LayerCount: 2
Fore
SplineSet
118 134 m 0,0,1
 118 167 118 167 138.5 186.5 c 128,-1,2
 159 206 159 206 191 206 c 0,3,4
 211 206 211 206 229.5 193 c 128,-1,5
 248 180 248 180 248 156 c 0,6,7
 248 137 248 137 231.5 125 c 128,-1,8
 215 113 215 113 193 113 c 0,9,10
 174 113 174 113 159 119 c 1,11,12
 163 96 163 96 178.5 74.5 c 128,-1,13
 194 53 194 53 218.5 37 c 128,-1,14
 243 21 243 21 276 11.5 c 128,-1,15
 309 2 309 2 350 2 c 0,16,17
 382 2 382 2 417 11 c 128,-1,18
 452 20 452 20 496.5 46 c 128,-1,19
 541 72 541 72 599 119.5 c 128,-1,20
 657 167 657 167 735 244 c 128,-1,21
 813 321 813 321 916 432 c 128,-1,22
 1019 543 1019 543 1153 696 c 0,23,24
 1338 907 1338 907 1502.5 1040.5 c 128,-1,25
 1667 1174 1667 1174 1798 1245 c 1,26,27
 1741 1298 1741 1298 1642.5 1325.5 c 128,-1,28
 1544 1353 1544 1353 1418 1353 c 0,29,30
 1349 1353 1349 1353 1279 1340 c 128,-1,31
 1209 1327 1209 1327 1140 1302 c 0,32,33
 1062 1273 1062 1273 986 1228.5 c 128,-1,34
 910 1184 910 1184 841 1130 c 128,-1,35
 772 1076 772 1076 714 1016 c 128,-1,36
 656 956 656 956 613 897 c 128,-1,37
 570 838 570 838 546 783.5 c 128,-1,38
 522 729 522 729 522 686 c 0,39,40
 522 635 522 635 548.5 606.5 c 128,-1,41
 575 578 575 578 631 578 c 0,42,43
 684 578 684 578 752.5 609 c 128,-1,44
 821 640 821 640 893.5 691 c 128,-1,45
 966 742 966 742 1035 808 c 128,-1,46
 1104 874 1104 874 1158.5 943.5 c 128,-1,47
 1213 1013 1213 1013 1246.5 1081 c 128,-1,48
 1280 1149 1280 1149 1280 1205 c 0,49,50
 1280 1225 1280 1225 1284 1230.5 c 128,-1,51
 1288 1236 1288 1236 1293 1236 c 256,52,53
 1298 1236 1298 1236 1301.5 1230 c 128,-1,54
 1305 1224 1305 1224 1305 1215 c 0,55,56
 1305 1130 1305 1130 1271 1048 c 128,-1,57
 1237 966 1237 966 1181.5 892.5 c 128,-1,58
 1126 819 1126 819 1054 756.5 c 128,-1,59
 982 694 982 694 905.5 648 c 128,-1,60
 829 602 829 602 754 576.5 c 128,-1,61
 679 551 679 551 618 551 c 0,62,63
 560 551 560 551 525 587 c 128,-1,64
 490 623 490 623 490 689 c 0,65,66
 490 765 490 765 526.5 845.5 c 128,-1,67
 563 926 563 926 627.5 1003 c 128,-1,68
 692 1080 692 1080 781 1148.5 c 128,-1,69
 870 1217 870 1217 975 1268.5 c 128,-1,70
 1080 1320 1080 1320 1196.5 1350 c 128,-1,71
 1313 1380 1313 1380 1433 1380 c 0,72,73
 1561 1380 1561 1380 1665.5 1350.5 c 128,-1,74
 1770 1321 1770 1321 1842 1267 c 1,75,76
 1921 1306 1921 1306 1984 1323.5 c 128,-1,77
 2047 1341 2047 1341 2092 1341 c 0,78,79
 2125 1341 2125 1341 2125 1327 c 0,80,81
 2125 1322 2125 1322 2120 1319 c 128,-1,82
 2115 1316 2115 1316 2095 1316 c 0,83,84
 2063 1316 2063 1316 2004.5 1301.5 c 128,-1,85
 1946 1287 1946 1287 1868 1245 c 1,86,87
 1915 1203 1915 1203 1940.5 1149 c 128,-1,88
 1966 1095 1966 1095 1966 1032 c 0,89,90
 1966 967 1966 967 1938 909.5 c 128,-1,91
 1910 852 1910 852 1860.5 801.5 c 128,-1,92
 1811 751 1811 751 1743 708.5 c 128,-1,93
 1675 666 1675 666 1594 632 c 1,94,95
 1585 627 1585 627 1576 624 c 128,-1,96
 1567 621 1567 621 1559 617 c 1,97,98
 1601 585 1601 585 1624.5 538 c 128,-1,99
 1648 491 1648 491 1648 434 c 0,100,101
 1648 379 1648 379 1627 323.5 c 128,-1,102
 1606 268 1606 268 1568.5 216.5 c 128,-1,103
 1531 165 1531 165 1479.5 121 c 128,-1,104
 1428 77 1428 77 1366.5 44 c 128,-1,105
 1305 11 1305 11 1236 -7.5 c 128,-1,106
 1167 -26 1167 -26 1095 -26 c 0,107,108
 1054 -26 1054 -26 1026 -19 c 128,-1,109
 998 -12 998 -12 981 0 c 128,-1,110
 964 12 964 12 957 27.5 c 128,-1,111
 950 43 950 43 950 59 c 0,112,113
 950 92 950 92 970 132.5 c 128,-1,114
 990 173 990 173 1025 214.5 c 128,-1,115
 1060 256 1060 256 1108 295.5 c 128,-1,116
 1156 335 1156 335 1211.5 365.5 c 128,-1,117
 1267 396 1267 396 1327.5 414.5 c 128,-1,118
 1388 433 1388 433 1449 433 c 0,119,120
 1459 433 1459 433 1464.5 429.5 c 128,-1,121
 1470 426 1470 426 1470 422 c 0,122,123
 1470 414 1470 414 1461.5 411 c 128,-1,124
 1453 408 1453 408 1440 408 c 0,125,126
 1389 408 1389 408 1335 391 c 128,-1,127
 1281 374 1281 374 1230.5 345.5 c 128,-1,128
 1180 317 1180 317 1134.5 280.5 c 128,-1,129
 1089 244 1089 244 1055.5 205.5 c 128,-1,130
 1022 167 1022 167 1002 129.5 c 128,-1,131
 982 92 982 92 982 62 c 0,132,133
 982 50 982 50 987.5 39 c 128,-1,134
 993 28 993 28 1006.5 19.5 c 128,-1,135
 1020 11 1020 11 1042 6.5 c 128,-1,136
 1064 2 1064 2 1098 2 c 0,137,138
 1144 2 1144 2 1196 24.5 c 128,-1,139
 1248 47 1248 47 1298.5 85.5 c 128,-1,140
 1349 124 1349 124 1395 175.5 c 128,-1,141
 1441 227 1441 227 1476 284.5 c 128,-1,142
 1511 342 1511 342 1531.5 402.5 c 128,-1,143
 1552 463 1552 463 1552 521 c 0,144,145
 1552 557 1552 557 1541 581 c 1,146,147
 1533 593 1533 593 1522 602 c 1,148,149
 1444 573 1444 573 1397.5 564.5 c 128,-1,150
 1351 556 1351 556 1325 556 c 0,151,152
 1288 556 1288 556 1271 568 c 128,-1,153
 1254 580 1254 580 1254 595 c 0,154,155
 1254 607 1254 607 1266 619.5 c 128,-1,156
 1278 632 1278 632 1298 642.5 c 128,-1,157
 1318 653 1318 653 1345.5 660 c 128,-1,158
 1373 667 1373 667 1404 667 c 0,159,160
 1473 667 1473 667 1526 638 c 1,161,162
 1586 668 1586 668 1646.5 714 c 128,-1,163
 1707 760 1707 760 1755.5 819 c 128,-1,164
 1804 878 1804 878 1834.5 948.5 c 128,-1,165
 1865 1019 1865 1019 1865 1100 c 0,166,167
 1865 1166 1865 1166 1823 1219 c 1,168,169
 1802 1206 1802 1206 1780 1191.5 c 128,-1,170
 1758 1177 1758 1177 1735 1160 c 0,171,172
 1674 1115 1674 1115 1614.5 1062 c 128,-1,173
 1555 1009 1555 1009 1493 943 c 128,-1,174
 1431 877 1431 877 1363.5 795.5 c 128,-1,175
 1296 714 1296 714 1220 612 c 0,176,177
 1128 489 1128 489 1037.5 391 c 128,-1,178
 947 293 947 293 859.5 218 c 128,-1,179
 772 143 772 143 688.5 90 c 128,-1,180
 605 37 605 37 527 5 c 0,181,182
 477 -16 477 -16 434.5 -21 c 128,-1,183
 392 -26 392 -26 342 -26 c 0,184,185
 291 -26 291 -26 250 -11 c 128,-1,186
 209 4 209 4 179.5 27.5 c 128,-1,187
 150 51 150 51 134 79 c 128,-1,188
 118 107 118 107 118 134 c 0,0,1
1311 600 m 0,189,190
 1311 592 1311 592 1318.5 588 c 128,-1,191
 1326 584 1326 584 1345 584 c 0,192,193
 1374 584 1374 584 1411.5 593.5 c 128,-1,194
 1449 603 1449 603 1492 622 c 1,195,196
 1474 630 1474 630 1452.5 635 c 128,-1,197
 1431 640 1431 640 1408 640 c 0,198,199
 1360 640 1360 640 1335.5 626 c 128,-1,200
 1311 612 1311 612 1311 600 c 0,189,190
EndSplineSet
EndChar

StartChar: C
Encoding: 67 67 33
Width: 1316
Flags: W
LayerCount: 2
Fore
SplineSet
460 195 m 0,0,1
 460 253 460 253 474.5 314 c 128,-1,2
 489 375 489 375 516 437.5 c 128,-1,3
 543 500 543 500 581.5 563 c 128,-1,4
 620 626 620 626 668 688 c 1,5,6
 553 711 553 711 498.5 778 c 128,-1,7
 444 845 444 845 444 948 c 0,8,9
 444 1003 444 1003 468.5 1058.5 c 128,-1,10
 493 1114 493 1114 537.5 1165 c 128,-1,11
 582 1216 582 1216 644 1260.5 c 128,-1,12
 706 1305 706 1305 780 1337.5 c 128,-1,13
 854 1370 854 1370 937.5 1388.5 c 128,-1,14
 1021 1407 1021 1407 1110 1407 c 0,15,16
 1142 1407 1142 1407 1165.5 1402.5 c 128,-1,17
 1189 1398 1189 1398 1189 1390 c 256,18,19
 1189 1382 1189 1382 1177 1382 c 0,20,21
 1172 1382 1172 1382 1162.5 1383 c 128,-1,22
 1153 1384 1153 1384 1143 1385 c 0,23,24
 1135 1386 1135 1386 1126 1386 c 128,-1,25
 1117 1386 1117 1386 1106 1386 c 0,26,27
 1041 1386 1041 1386 970 1369 c 128,-1,28
 899 1352 899 1352 830 1321 c 128,-1,29
 761 1290 761 1290 699 1246.5 c 128,-1,30
 637 1203 637 1203 590 1149 c 128,-1,31
 543 1095 543 1095 515 1033 c 128,-1,32
 487 971 487 971 487 903 c 0,33,34
 487 831 487 831 538 781 c 128,-1,35
 589 731 589 731 687 713 c 1,36,37
 753 795 753 795 832 872.5 c 128,-1,38
 911 950 911 950 998 1018 c 128,-1,39
 1085 1086 1085 1086 1177 1142.5 c 128,-1,40
 1269 1199 1269 1199 1362 1240 c 128,-1,41
 1455 1281 1455 1281 1545 1303.5 c 128,-1,42
 1635 1326 1635 1326 1718 1326 c 0,43,44
 1760 1326 1760 1326 1787.5 1308 c 128,-1,45
 1815 1290 1815 1290 1815 1250 c 0,46,47
 1815 1196 1815 1196 1771 1134 c 128,-1,48
 1727 1072 1727 1072 1652 1010 c 128,-1,49
 1577 948 1577 948 1478 891 c 128,-1,50
 1379 834 1379 834 1269 788.5 c 128,-1,51
 1159 743 1159 743 1045 713.5 c 128,-1,52
 931 684 931 684 826 679 c 1,53,54
 761 606 761 606 706 534 c 128,-1,55
 651 462 651 462 611 395 c 128,-1,56
 571 328 571 328 548.5 268 c 128,-1,57
 526 208 526 208 526 159 c 0,58,59
 526 108 526 108 551 71 c 128,-1,60
 576 34 576 34 626 16 c 1,61,62
 636 94 636 94 665.5 174.5 c 128,-1,63
 695 255 695 255 739 330 c 128,-1,64
 783 405 783 405 839 470.5 c 128,-1,65
 895 536 895 536 958.5 585 c 128,-1,66
 1022 634 1022 634 1090.5 662.5 c 128,-1,67
 1159 691 1159 691 1227 691 c 0,68,69
 1310 691 1310 691 1353 654 c 128,-1,70
 1396 617 1396 617 1396 554 c 256,71,72
 1396 491 1396 491 1370 422.5 c 128,-1,73
 1344 354 1344 354 1297 287.5 c 128,-1,74
 1250 221 1250 221 1184 161 c 128,-1,75
 1118 101 1118 101 1038 55 c 0,76,77
 970 17 970 17 888 -4.5 c 128,-1,78
 806 -26 806 -26 716 -26 c 0,79,80
 699 -26 699 -26 683.5 -24.5 c 128,-1,81
 668 -23 668 -23 654 -21 c 1,82,83
 653 -32 653 -32 652.5 -43.5 c 128,-1,84
 652 -55 652 -55 652 -66 c 0,85,86
 652 -85 652 -85 654 -105.5 c 128,-1,87
 656 -126 656 -126 659.5 -146 c 128,-1,88
 663 -166 663 -166 668 -183.5 c 128,-1,89
 673 -201 673 -201 679 -213 c 0,90,91
 681 -217 681 -217 681.5 -219 c 128,-1,92
 682 -221 682 -221 682 -223 c 0,93,94
 682 -231 682 -231 674 -231 c 256,95,96
 666 -231 666 -231 657 -218 c 128,-1,97
 648 -205 648 -205 640.5 -181.5 c 128,-1,98
 633 -158 633 -158 627.5 -125 c 128,-1,99
 622 -92 622 -92 622 -51 c 0,100,101
 622 -42 622 -42 622 -33 c 128,-1,102
 622 -24 622 -24 623 -14 c 1,103,104
 548 6 548 6 504 58.5 c 128,-1,105
 460 111 460 111 460 195 c 0,0,1
853 709 m 1,106,107
 942 719 942 719 1046.5 752 c 128,-1,108
 1151 785 1151 785 1255 831.5 c 128,-1,109
 1359 878 1359 878 1456 934.5 c 128,-1,110
 1553 991 1553 991 1627.5 1047.5 c 128,-1,111
 1702 1104 1702 1104 1746.5 1156 c 128,-1,112
 1791 1208 1791 1208 1791 1247 c 0,113,114
 1791 1276 1791 1276 1770.5 1289 c 128,-1,115
 1750 1302 1750 1302 1716 1302 c 0,116,117
 1668 1302 1668 1302 1605 1279 c 128,-1,118
 1542 1256 1542 1256 1469.5 1215.5 c 128,-1,119
 1397 1175 1397 1175 1318 1119.5 c 128,-1,120
 1239 1064 1239 1064 1159 998 c 128,-1,121
 1079 932 1079 932 1001 858.5 c 128,-1,122
 923 785 923 785 853 709 c 1,106,107
657 8 m 1,123,124
 685 2 685 2 722 2 c 0,125,126
 752 2 752 2 778.5 5.5 c 128,-1,127
 805 9 805 9 832.5 18 c 128,-1,128
 860 27 860 27 889.5 42.5 c 128,-1,129
 919 58 919 58 955 82 c 0,130,131
 1002 114 1002 114 1046 156 c 128,-1,132
 1090 198 1090 198 1129 245 c 128,-1,133
 1168 292 1168 292 1200.5 341 c 128,-1,134
 1233 390 1233 390 1256.5 436 c 128,-1,135
 1280 482 1280 482 1293 521.5 c 128,-1,136
 1306 561 1306 561 1306 589 c 0,137,138
 1306 629 1306 629 1285 647 c 128,-1,139
 1264 665 1264 665 1217 665 c 0,140,141
 1161 665 1161 665 1100.5 638.5 c 128,-1,142
 1040 612 1040 612 981 565.5 c 128,-1,143
 922 519 922 519 868 456 c 128,-1,144
 814 393 814 393 770.5 320 c 128,-1,145
 727 247 727 247 697 167 c 128,-1,146
 667 87 667 87 657 8 c 1,123,124
EndSplineSet
EndChar

StartChar: D
Encoding: 68 68 34
Width: 1689
Flags: W
LayerCount: 2
Fore
SplineSet
260 40 m 256,0,1
 260 52 260 52 273 67 c 128,-1,2
 286 82 286 82 311.5 95 c 128,-1,3
 337 108 337 108 374.5 117 c 128,-1,4
 412 126 412 126 461 126 c 0,5,6
 486 126 486 126 512.5 123.5 c 128,-1,7
 539 121 539 121 570.5 114.5 c 128,-1,8
 602 108 602 108 641 98 c 128,-1,9
 680 88 680 88 731 73 c 1,10,-1
 739 70 l 1,11,12
 793 98 793 98 852.5 141.5 c 128,-1,13
 912 185 912 185 981 248.5 c 128,-1,14
 1050 312 1050 312 1129 397 c 128,-1,15
 1208 482 1208 482 1300 594 c 0,16,17
 1342 645 1342 645 1382 692.5 c 128,-1,18
 1422 740 1422 740 1464 786.5 c 128,-1,19
 1506 833 1506 833 1552 880 c 128,-1,20
 1598 927 1598 927 1652 978 c 0,21,22
 1684 1008 1684 1008 1714.5 1032.5 c 128,-1,23
 1745 1057 1745 1057 1774 1078 c 1,24,25
 1737 1134 1737 1134 1687 1175.5 c 128,-1,26
 1637 1217 1637 1217 1577.5 1244 c 128,-1,27
 1518 1271 1518 1271 1450.5 1284.5 c 128,-1,28
 1383 1298 1383 1298 1311 1298 c 0,29,30
 1270 1298 1270 1298 1225 1288.5 c 128,-1,31
 1180 1279 1180 1279 1135 1261 c 1,32,33
 1057 1241 1057 1241 985 1204 c 128,-1,34
 913 1167 913 1167 851 1120 c 128,-1,35
 789 1073 789 1073 738.5 1020 c 128,-1,36
 688 967 688 967 652 914.5 c 128,-1,37
 616 862 616 862 596.5 813 c 128,-1,38
 577 764 577 764 577 726 c 0,39,40
 577 691 577 691 589.5 660.5 c 128,-1,41
 602 630 602 630 625.5 607.5 c 128,-1,42
 649 585 649 585 683.5 572 c 128,-1,43
 718 559 718 559 762 559 c 0,44,45
 810 559 810 559 873.5 583.5 c 128,-1,46
 937 608 937 608 1005 650.5 c 128,-1,47
 1073 693 1073 693 1139.5 748.5 c 128,-1,48
 1206 804 1206 804 1259.5 866.5 c 128,-1,49
 1313 929 1313 929 1347.5 994 c 128,-1,50
 1382 1059 1382 1059 1387 1120 c 0,51,52
 1389 1134 1389 1134 1391 1138 c 128,-1,53
 1393 1142 1393 1142 1398 1142 c 0,54,55
 1402 1142 1402 1142 1405.5 1138.5 c 128,-1,56
 1409 1135 1409 1135 1409 1122 c 0,57,58
 1409 1052 1409 1052 1384 981 c 128,-1,59
 1359 910 1359 910 1314.5 844 c 128,-1,60
 1270 778 1270 778 1209 721 c 128,-1,61
 1148 664 1148 664 1076 622 c 128,-1,62
 1004 580 1004 580 923 555.5 c 128,-1,63
 842 531 842 531 759 531 c 0,64,65
 706 531 706 531 663.5 547.5 c 128,-1,66
 621 564 621 564 591 593.5 c 128,-1,67
 561 623 561 623 545 662.5 c 128,-1,68
 529 702 529 702 529 748 c 0,69,70
 529 823 529 823 558 895 c 128,-1,71
 587 967 587 967 639 1031.5 c 128,-1,72
 691 1096 691 1096 763 1150 c 128,-1,73
 835 1204 835 1204 921 1243 c 128,-1,74
 1007 1282 1007 1282 1104 1304 c 128,-1,75
 1201 1326 1201 1326 1304 1326 c 0,76,77
 1467 1326 1467 1326 1597 1266.5 c 128,-1,78
 1727 1207 1727 1207 1808 1101 c 1,79,80
 1844 1124 1844 1124 1878.5 1144 c 128,-1,81
 1913 1164 1913 1164 1948 1185 c 0,82,83
 1984 1207 1984 1207 2023.5 1223 c 128,-1,84
 2063 1239 2063 1239 2100 1250 c 128,-1,85
 2137 1261 2137 1261 2166.5 1266.5 c 128,-1,86
 2196 1272 2196 1272 2212 1273 c 0,87,88
 2227 1273 2227 1273 2227 1263 c 0,89,90
 2227 1258 2227 1258 2222 1255.5 c 128,-1,91
 2217 1253 2217 1253 2194 1247 c 0,92,93
 2100 1223 2100 1223 2010.5 1177.5 c 128,-1,94
 1921 1132 1921 1132 1836 1061 c 1,95,96
 1874 999 1874 999 1895 926.5 c 128,-1,97
 1916 854 1916 854 1916 773 c 0,98,99
 1916 668 1916 668 1883.5 568.5 c 128,-1,100
 1851 469 1851 469 1793 380 c 128,-1,101
 1735 291 1735 291 1656 216.5 c 128,-1,102
 1577 142 1577 142 1484.5 88 c 128,-1,103
 1392 34 1392 34 1289.5 4 c 128,-1,104
 1187 -26 1187 -26 1083 -26 c 0,105,106
 1049 -26 1049 -26 1016.5 -23.5 c 128,-1,107
 984 -21 984 -21 950 -15.5 c 128,-1,108
 916 -10 916 -10 879.5 -1.5 c 128,-1,109
 843 7 843 7 801 19 c 1,110,111
 751 1 751 1 705 -8.5 c 128,-1,112
 659 -18 659 -18 614 -21.5 c 128,-1,113
 569 -25 569 -25 525 -25.5 c 128,-1,114
 481 -26 481 -26 436 -26 c 0,115,116
 388 -26 388 -26 354.5 -20 c 128,-1,117
 321 -14 321 -14 300 -4.5 c 128,-1,118
 279 5 279 5 269.5 16.5 c 128,-1,119
 260 28 260 28 260 40 c 256,0,1
854 42 m 1,120,121
 906 31 906 31 967.5 24.5 c 128,-1,122
 1029 18 1029 18 1107 18 c 0,123,124
 1197 18 1197 18 1288 41.5 c 128,-1,125
 1379 65 1379 65 1462.5 110 c 128,-1,126
 1546 155 1546 155 1618 220.5 c 128,-1,127
 1690 286 1690 286 1743 369.5 c 128,-1,128
 1796 453 1796 453 1826.5 554 c 128,-1,129
 1857 655 1857 655 1857 771 c 0,130,131
 1857 848 1857 848 1842.5 912.5 c 128,-1,132
 1828 977 1828 977 1801 1031 c 1,133,134
 1747 981 1747 981 1695 921.5 c 128,-1,135
 1643 862 1643 862 1594 790 c 1,136,137
 1513 675 1513 675 1441 574.5 c 128,-1,138
 1369 474 1369 474 1291.5 385.5 c 128,-1,139
 1214 297 1214 297 1124 219.5 c 128,-1,140
 1034 142 1034 142 918 75 c 0,141,142
 884 55 884 55 854 42 c 1,120,121
290 40 m 0,143,144
 290 22 290 22 328 12 c 128,-1,145
 366 2 366 2 452 2 c 0,146,147
 512 2 512 2 571 11.5 c 128,-1,148
 630 21 630 21 696 50 c 1,149,150
 633 67 633 67 574.5 76 c 128,-1,151
 516 85 516 85 454 85 c 0,152,153
 370 85 370 85 330 69.5 c 128,-1,154
 290 54 290 54 290 40 c 0,143,144
EndSplineSet
EndChar

StartChar: E
Encoding: 69 69 35
Width: 1099
Flags: W
LayerCount: 2
Fore
SplineSet
254 242 m 0,0,1
 252 341 252 341 296 426.5 c 128,-1,2
 340 512 340 512 419 575 c 128,-1,3
 498 638 498 638 605.5 674 c 128,-1,4
 713 710 713 710 839 710 c 2,5,-1
 841 710 l 1,6,7
 824 735 824 735 813 769 c 1,8,9
 653 798 653 798 552.5 866 c 128,-1,10
 452 934 452 934 409 1031 c 0,11,12
 406 1038 406 1038 404.5 1045.5 c 128,-1,13
 403 1053 403 1053 403 1056 c 0,14,15
 403 1068 403 1068 411 1068 c 0,16,17
 416 1068 416 1068 421 1063 c 128,-1,18
 426 1058 426 1058 432 1044 c 0,19,20
 521 844 521 844 805 793 c 1,21,22
 800 818 800 818 800 841 c 0,23,24
 799 915 799 915 825 980 c 128,-1,25
 851 1045 851 1045 895.5 1099 c 128,-1,26
 940 1153 940 1153 1000.5 1195 c 128,-1,27
 1061 1237 1061 1237 1129.5 1266.5 c 128,-1,28
 1198 1296 1198 1296 1271 1311 c 128,-1,29
 1344 1326 1344 1326 1414 1326 c 0,30,31
 1563 1326 1563 1326 1637.5 1273.5 c 128,-1,32
 1712 1221 1712 1221 1714 1130 c 0,33,34
 1715 1082 1715 1082 1690.5 1034.5 c 128,-1,35
 1666 987 1666 987 1621.5 945 c 128,-1,36
 1577 903 1577 903 1514.5 867 c 128,-1,37
 1452 831 1452 831 1377 805 c 128,-1,38
 1302 779 1302 779 1216 764.5 c 128,-1,39
 1130 750 1130 750 1038 750 c 0,40,41
 996 750 996 750 957 752 c 128,-1,42
 918 754 918 754 881 758 c 1,43,44
 885 745 885 745 891 732 c 128,-1,45
 897 719 897 719 905 707 c 1,46,47
 1006 698 1006 698 1055.5 669 c 128,-1,48
 1105 640 1105 640 1106 609 c 0,49,50
 1106 592 1106 592 1092.5 585 c 128,-1,51
 1079 578 1079 578 1055 578 c 0,52,53
 1011 578 1011 578 959.5 604 c 128,-1,54
 908 630 908 630 868 675 c 1,55,56
 806 668 806 668 743 643.5 c 128,-1,57
 680 619 680 619 621.5 582.5 c 128,-1,58
 563 546 563 546 512 500 c 128,-1,59
 461 454 461 454 423.5 403.5 c 128,-1,60
 386 353 386 353 365 301 c 128,-1,61
 344 249 344 249 345 201 c 0,62,63
 346 123 346 123 398 71.5 c 128,-1,64
 450 20 450 20 542 4 c 1,65,66
 553 90 553 90 589.5 174.5 c 128,-1,67
 626 259 626 259 682 325.5 c 128,-1,68
 738 392 738 392 812.5 433.5 c 128,-1,69
 887 475 887 475 974 475 c 0,70,71
 1043 475 1043 475 1075.5 442 c 128,-1,72
 1108 409 1108 409 1110 354 c 1,73,74
 1111 283 1111 283 1071.5 215 c 128,-1,75
 1032 147 1032 147 963.5 93.5 c 128,-1,76
 895 40 895 40 804 7 c 128,-1,77
 713 -26 713 -26 612 -26 c 0,78,79
 600 -26 600 -26 588 -25.5 c 128,-1,80
 576 -25 576 -25 565 -24 c 1,81,82
 564 -38 564 -38 563.5 -51.5 c 128,-1,83
 563 -65 563 -65 563 -79 c 0,84,85
 563 -106 563 -106 566.5 -135 c 128,-1,86
 570 -164 570 -164 577 -191 c 128,-1,87
 584 -218 584 -218 594.5 -241 c 128,-1,88
 605 -264 605 -264 618 -278 c 0,89,90
 628 -288 628 -288 628 -292 c 256,91,92
 628 -296 628 -296 624.5 -298.5 c 128,-1,93
 621 -301 621 -301 616 -301 c 256,94,95
 611 -301 611 -301 606.5 -299 c 128,-1,96
 602 -297 602 -297 592 -288 c 1,97,98
 578 -272 578 -272 568 -248 c 128,-1,99
 558 -224 558 -224 551.5 -196.5 c 128,-1,100
 545 -169 545 -169 542 -139 c 128,-1,101
 539 -109 539 -109 538 -81 c 0,102,103
 537 -66 537 -66 537.5 -51 c 128,-1,104
 538 -36 538 -36 540 -20 c 1,105,106
 474 -11 474 -11 421.5 14 c 128,-1,107
 369 39 369 39 332 74.5 c 128,-1,108
 295 110 295 110 275 153 c 128,-1,109
 255 196 255 196 254 242 c 0,0,1
875 783 m 1,110,111
 909 779 909 779 945.5 777.5 c 128,-1,112
 982 776 982 776 1020 776 c 0,113,114
 1093 776 1093 776 1170.5 789 c 128,-1,115
 1248 802 1248 802 1322 826 c 128,-1,116
 1396 850 1396 850 1461.5 884.5 c 128,-1,117
 1527 919 1527 919 1576 961.5 c 128,-1,118
 1625 1004 1625 1004 1653.5 1054 c 128,-1,119
 1682 1104 1682 1104 1681 1159 c 0,120,121
 1680 1221 1680 1221 1616.5 1261 c 128,-1,122
 1553 1301 1553 1301 1439 1301 c 0,123,124
 1369 1301 1369 1301 1300 1275.5 c 128,-1,125
 1231 1250 1231 1250 1168 1208.5 c 128,-1,126
 1105 1167 1105 1167 1051 1114 c 128,-1,127
 997 1061 997 1061 957.5 1005 c 128,-1,128
 918 949 918 949 895.5 895.5 c 128,-1,129
 873 842 873 842 874 800 c 0,130,131
 874 795 874 795 874 791.5 c 128,-1,132
 874 788 874 788 875 783 c 1,110,111
928 677 m 1,133,134
 957 643 957 643 995.5 621.5 c 128,-1,135
 1034 600 1034 600 1069 600 c 0,136,137
 1084 600 1084 600 1084 612 c 0,138,139
 1084 620 1084 620 1072 630.5 c 128,-1,140
 1060 641 1060 641 1039 651 c 128,-1,141
 1018 661 1018 661 989.5 668 c 128,-1,142
 961 675 961 675 928 677 c 1,133,134
568 0 m 1,143,144
 580 -1 580 -1 592 -1.5 c 128,-1,145
 604 -2 604 -2 617 -2 c 0,146,147
 663 -2 663 -2 715.5 18.5 c 128,-1,148
 768 39 768 39 819 72.5 c 128,-1,149
 870 106 870 106 916.5 147.5 c 128,-1,150
 963 189 963 189 998.5 231.5 c 128,-1,151
 1034 274 1034 274 1054.5 312.5 c 128,-1,152
 1075 351 1075 351 1075 378 c 0,153,154
 1074 413 1074 413 1053 429 c 128,-1,155
 1032 445 1032 445 981 445 c 0,156,157
 915 445 915 445 847 411.5 c 128,-1,158
 779 378 779 378 721.5 319 c 128,-1,159
 664 260 664 260 622.5 178 c 128,-1,160
 581 96 581 96 568 0 c 1,143,144
EndSplineSet
EndChar

StartChar: F
Encoding: 70 70 36
Width: 1260
Flags: W
LayerCount: 2
Fore
SplineSet
653 903 m 0,0,1
 653 965 653 965 689.5 1027.5 c 128,-1,2
 726 1090 726 1090 794 1146.5 c 128,-1,3
 862 1203 862 1203 957.5 1249 c 128,-1,4
 1053 1295 1053 1295 1172 1323 c 0,5,6
 1259 1343 1259 1343 1347 1349 c 128,-1,7
 1435 1355 1435 1355 1525 1355 c 0,8,9
 1577 1355 1577 1355 1628 1349.5 c 128,-1,10
 1679 1344 1679 1344 1729 1338 c 128,-1,11
 1779 1332 1779 1332 1828.5 1326.5 c 128,-1,12
 1878 1321 1878 1321 1929 1321 c 0,13,14
 1998 1321 1998 1321 2054 1334 c 128,-1,15
 2110 1347 2110 1347 2154 1370 c 128,-1,16
 2198 1393 2198 1393 2231 1424.5 c 128,-1,17
 2264 1456 2264 1456 2287 1494 c 0,18,19
 2295 1506 2295 1506 2299.5 1508.5 c 128,-1,20
 2304 1511 2304 1511 2308 1511 c 0,21,22
 2317 1511 2317 1511 2317 1504 c 0,23,24
 2317 1500 2317 1500 2315.5 1496 c 128,-1,25
 2314 1492 2314 1492 2308 1484 c 0,26,27
 2272 1427 2272 1427 2223.5 1380.5 c 128,-1,28
 2175 1334 2175 1334 2113 1301.5 c 128,-1,29
 2051 1269 2051 1269 1975 1251.5 c 128,-1,30
 1899 1234 1899 1234 1807 1234 c 0,31,32
 1740 1234 1740 1234 1675 1241 c 128,-1,33
 1610 1248 1610 1248 1545.5 1257 c 128,-1,34
 1481 1266 1481 1266 1416.5 1273 c 128,-1,35
 1352 1280 1352 1280 1285 1280 c 0,36,37
 1211 1280 1211 1280 1137.5 1265 c 128,-1,38
 1064 1250 1064 1250 996.5 1223.5 c 128,-1,39
 929 1197 929 1197 871.5 1161.5 c 128,-1,40
 814 1126 814 1126 771.5 1085 c 128,-1,41
 729 1044 729 1044 705 1000 c 128,-1,42
 681 956 681 956 681 913 c 0,43,44
 681 865 681 865 705.5 836 c 128,-1,45
 730 807 730 807 785 807 c 0,46,47
 830 807 830 807 878.5 823.5 c 128,-1,48
 927 840 927 840 973.5 868 c 128,-1,49
 1020 896 1020 896 1061.5 932 c 128,-1,50
 1103 968 1103 968 1136 1006.5 c 128,-1,51
 1169 1045 1169 1045 1190 1084 c 128,-1,52
 1211 1123 1211 1123 1215 1156 c 0,53,54
 1217 1167 1217 1167 1218 1172 c 128,-1,55
 1219 1177 1219 1177 1223 1177 c 0,56,57
 1233 1177 1233 1177 1233 1156 c 0,58,59
 1233 1107 1233 1107 1215.5 1060 c 128,-1,60
 1198 1013 1198 1013 1167.5 970 c 128,-1,61
 1137 927 1137 927 1096 890.5 c 128,-1,62
 1055 854 1055 854 1009 827 c 128,-1,63
 963 800 963 800 913.5 785 c 128,-1,64
 864 770 864 770 816 770 c 0,65,66
 741 770 741 770 697 804.5 c 128,-1,67
 653 839 653 839 653 903 c 0,0,1
161 56 m 0,68,69
 124 91 124 91 124 130 c 0,70,71
 124 153 124 153 142 167.5 c 128,-1,72
 160 182 160 182 182 182 c 0,73,74
 206 182 206 182 221 170 c 128,-1,75
 236 158 236 158 236 141 c 0,76,77
 236 123 236 123 222.5 111 c 128,-1,78
 209 99 209 99 191 99 c 0,79,80
 185 99 185 99 176 102 c 1,81,82
 188 78 188 78 202.5 59 c 128,-1,83
 217 40 217 40 239 27.5 c 128,-1,84
 261 15 261 15 292 8.5 c 128,-1,85
 323 2 323 2 368 2 c 0,86,87
 411 2 411 2 458.5 11 c 128,-1,88
 506 20 506 20 558 43.5 c 128,-1,89
 610 67 610 67 667 108 c 128,-1,90
 724 149 724 149 786 214.5 c 128,-1,91
 848 280 848 280 916 372 c 128,-1,92
 984 464 984 464 1058 589 c 0,93,94
 1059 591 1059 591 1060 593 c 128,-1,95
 1061 595 1061 595 1063 597 c 1,96,97
 945 571 945 571 854 538 c 128,-1,98
 763 505 763 505 696.5 468 c 128,-1,99
 630 431 630 431 587.5 392 c 128,-1,100
 545 353 545 353 523 316 c 0,101,102
 516 304 516 304 512.5 300.5 c 128,-1,103
 509 297 509 297 504 297 c 0,104,105
 498 297 498 297 498 304 c 256,106,107
 498 311 498 311 504 321 c 1,108,109
 523 364 523 364 574 410.5 c 128,-1,110
 625 457 625 457 701 499.5 c 128,-1,111
 777 542 777 542 874 577.5 c 128,-1,112
 971 613 971 613 1082 636 c 0,113,114
 1085 636 1085 636 1087 637 c 1,115,116
 1146 730 1146 730 1210 805 c 128,-1,117
 1274 880 1274 880 1337.5 938.5 c 128,-1,118
 1401 997 1401 997 1462.5 1039.5 c 128,-1,119
 1524 1082 1524 1082 1579.5 1109.5 c 128,-1,120
 1635 1137 1635 1137 1681.5 1150.5 c 128,-1,121
 1728 1164 1728 1164 1762 1164 c 0,122,123
 1784 1164 1784 1164 1784 1156 c 0,124,125
 1784 1151 1784 1151 1776.5 1149.5 c 128,-1,126
 1769 1148 1769 1148 1743 1140 c 0,127,128
 1685 1123 1685 1123 1620 1084 c 128,-1,129
 1555 1045 1555 1045 1488.5 985.5 c 128,-1,130
 1422 926 1422 926 1355 846.5 c 128,-1,131
 1288 767 1288 767 1226 670 c 1,132,133
 1289 686 1289 686 1347 702 c 128,-1,134
 1405 718 1405 718 1443 732 c 1,135,136
 1453 737 1453 737 1462 746 c 128,-1,137
 1471 755 1471 755 1479 772 c 1,138,139
 1488 772 1488 772 1508.5 771 c 128,-1,140
 1529 770 1529 770 1552 768 c 128,-1,141
 1575 766 1575 766 1596.5 763.5 c 128,-1,142
 1618 761 1618 761 1627 758 c 1,143,144
 1593 742 1593 742 1556 713.5 c 128,-1,145
 1519 685 1519 685 1484 648 c 128,-1,146
 1449 611 1449 611 1419.5 567 c 128,-1,147
 1390 523 1390 523 1372 477 c 1,148,149
 1367 467 1367 467 1364 464 c 128,-1,150
 1361 461 1361 461 1356 461 c 0,151,152
 1344 461 1344 461 1344 474 c 0,153,154
 1344 479 1344 479 1345.5 485 c 128,-1,155
 1347 491 1347 491 1352 505 c 0,156,157
 1363 534 1363 534 1373 558.5 c 128,-1,158
 1383 583 1383 583 1393 604.5 c 128,-1,159
 1403 626 1403 626 1414 645 c 128,-1,160
 1425 664 1425 664 1437 683 c 1,161,162
 1396 670 1396 670 1331.5 655 c 128,-1,163
 1267 640 1267 640 1199 626 c 1,164,165
 1086 444 1086 444 982.5 319.5 c 128,-1,166
 879 195 879 195 780 118 c 128,-1,167
 681 41 681 41 583.5 7.5 c 128,-1,168
 486 -26 486 -26 385 -26 c 0,169,170
 338 -26 338 -26 304.5 -20.5 c 128,-1,171
 271 -15 271 -15 245.5 -4.5 c 128,-1,172
 220 6 220 6 200.5 21 c 128,-1,173
 181 36 181 36 161 56 c 0,68,69
EndSplineSet
EndChar

StartChar: G
Encoding: 71 71 37
Width: 1104
Flags: W
LayerCount: 2
Fore
SplineSet
127 137 m 0,0,1
 127 169 127 169 146 189 c 128,-1,2
 165 209 165 209 190 209 c 0,3,4
 211 209 211 209 225 199 c 128,-1,5
 239 189 239 189 239 171 c 0,6,7
 239 151 239 151 225.5 140.5 c 128,-1,8
 212 130 212 130 194 130 c 0,9,10
 178 130 178 130 165 136 c 1,11,12
 164 133 164 133 164 127 c 0,13,14
 164 109 164 109 175 86.5 c 128,-1,15
 186 64 186 64 213 44.5 c 128,-1,16
 240 25 240 25 285 12 c 128,-1,17
 330 -1 330 -1 398 -1 c 0,18,19
 458 -1 458 -1 518 20.5 c 128,-1,20
 578 42 578 42 644.5 92 c 128,-1,21
 711 142 711 142 786.5 224 c 128,-1,22
 862 306 862 306 953 427 c 0,23,24
 974 455 974 455 1003 490.5 c 128,-1,25
 1032 526 1032 526 1063.5 562.5 c 128,-1,26
 1095 599 1095 599 1126.5 634.5 c 128,-1,27
 1158 670 1158 670 1185 699 c 1,28,29
 1105 641 1105 641 1038 601.5 c 128,-1,30
 971 562 971 562 915.5 537.5 c 128,-1,31
 860 513 860 513 813.5 502.5 c 128,-1,32
 767 492 767 492 728 492 c 0,33,34
 695 492 695 492 668.5 497 c 128,-1,35
 642 502 642 502 623 515 c 128,-1,36
 604 528 604 528 594 550 c 128,-1,37
 584 572 584 572 584 606 c 0,38,39
 584 611 584 611 584 616.5 c 128,-1,40
 584 622 584 622 585 627 c 1,41,42
 550 624 550 624 518 624 c 0,43,44
 454 624 454 624 402 635.5 c 128,-1,45
 350 647 350 647 315 667 c 0,46,47
 300 675 300 675 294.5 680.5 c 128,-1,48
 289 686 289 686 289 691 c 0,49,50
 289 701 289 701 299 701 c 0,51,52
 303 701 303 701 312 696 c 0,53,54
 337 682 337 682 361 672.5 c 128,-1,55
 385 663 385 663 411 657 c 128,-1,56
 437 651 437 651 467.5 648 c 128,-1,57
 498 645 498 645 535 645 c 0,58,59
 560 645 560 645 587 648 c 1,60,61
 599 727 599 727 649.5 812.5 c 128,-1,62
 700 898 700 898 775.5 979 c 128,-1,63
 851 1060 851 1060 945.5 1133 c 128,-1,64
 1040 1206 1040 1206 1139 1261 c 128,-1,65
 1238 1316 1238 1316 1335.5 1348 c 128,-1,66
 1433 1380 1433 1380 1516 1380 c 0,67,68
 1569 1380 1569 1380 1591 1362 c 128,-1,69
 1613 1344 1613 1344 1613 1316 c 0,70,71
 1613 1269 1613 1269 1567 1198.5 c 128,-1,72
 1521 1128 1521 1128 1439 1049 c 128,-1,73
 1357 970 1357 970 1243.5 891 c 128,-1,74
 1130 812 1130 812 995 748 c 0,75,76
 918 711 918 711 840 683.5 c 128,-1,77
 762 656 762 656 683 641 c 1,78,79
 675 620 675 620 670 602 c 128,-1,80
 665 584 665 584 665 569 c 0,81,82
 665 551 665 551 681 534.5 c 128,-1,83
 697 518 697 518 742 518 c 0,84,85
 786 518 786 518 840 534 c 128,-1,86
 894 550 894 550 962.5 586 c 128,-1,87
 1031 622 1031 622 1117.5 680 c 128,-1,88
 1204 738 1204 738 1313 822 c 1,89,90
 1365 864 1365 864 1406.5 888.5 c 128,-1,91
 1448 913 1448 913 1463 913 c 0,92,93
 1471 913 1471 913 1479 910 c 128,-1,94
 1487 907 1487 907 1487 902 c 0,95,96
 1487 898 1487 898 1484 894.5 c 128,-1,97
 1481 891 1481 891 1470 886 c 0,98,99
 1443 873 1443 873 1412.5 847.5 c 128,-1,100
 1382 822 1382 822 1344.5 778 c 128,-1,101
 1307 734 1307 734 1261 668.5 c 128,-1,102
 1215 603 1215 603 1156 511 c 0,103,104
 985 244 985 244 800 108.5 c 128,-1,105
 615 -27 615 -27 401 -27 c 0,106,107
 334 -27 334 -27 282.5 -14 c 128,-1,108
 231 -1 231 -1 196.5 21.5 c 128,-1,109
 162 44 162 44 144.5 73.5 c 128,-1,110
 127 103 127 103 127 137 c 0,0,1
696 668 m 1,111,112
 767 686 767 686 848 718 c 128,-1,113
 929 750 929 750 1017 797 c 0,114,115
 1100 842 1100 842 1174.5 894.5 c 128,-1,116
 1249 947 1249 947 1313 1001 c 128,-1,117
 1377 1055 1377 1055 1428 1107 c 128,-1,118
 1479 1159 1479 1159 1515 1203 c 128,-1,119
 1551 1247 1551 1247 1570.5 1279 c 128,-1,120
 1590 1311 1590 1311 1590 1326 c 0,121,122
 1590 1345 1590 1345 1574.5 1351.5 c 128,-1,123
 1559 1358 1559 1358 1533 1358 c 0,124,125
 1469 1358 1469 1358 1390.5 1324 c 128,-1,126
 1312 1290 1312 1290 1229 1233.5 c 128,-1,127
 1146 1177 1146 1177 1064 1104.5 c 128,-1,128
 982 1032 982 1032 910.5 955.5 c 128,-1,129
 839 879 839 879 782.5 804 c 128,-1,130
 726 729 726 729 696 668 c 1,111,112
EndSplineSet
EndChar

StartChar: H
Encoding: 72 72 38
Width: 1546
Flags: W
LayerCount: 2
Fore
SplineSet
32 68 m 0,0,1
 10 68 10 68 0 80 c 1,2,3
 0 66 0 66 11.5 52 c 128,-1,4
 23 38 23 38 44.5 26.5 c 128,-1,5
 66 15 66 15 96.5 7.5 c 128,-1,6
 127 0 127 0 166 0 c 0,7,8
 207 0 207 0 244.5 11.5 c 128,-1,9
 282 23 282 23 322 43 c 1,10,11
 361 61 361 61 404 92.5 c 128,-1,12
 447 124 447 124 501 177 c 128,-1,13
 555 230 555 230 623.5 308.5 c 128,-1,14
 692 387 692 387 781 499 c 1,15,16
 748 490 748 490 719 481.5 c 128,-1,17
 690 473 690 473 665 465 c 0,18,19
 612 446 612 446 558.5 421 c 128,-1,20
 505 396 505 396 457 365 c 128,-1,21
 409 334 409 334 369 297.5 c 128,-1,22
 329 261 329 261 302 220 c 0,23,24
 297 211 297 211 291 211 c 256,25,26
 285 211 285 211 287 219 c 0,27,28
 288 222 288 222 288.5 226 c 128,-1,29
 289 230 289 230 293 239 c 0,30,31
 305 265 305 265 326.5 291 c 128,-1,32
 348 317 348 317 373.5 340 c 128,-1,33
 399 363 399 363 427 382.5 c 128,-1,34
 455 402 455 402 481 416 c 0,35,36
 537 446 537 446 614 473.5 c 128,-1,37
 691 501 691 501 806 532 c 1,38,39
 864 611 864 611 919 679.5 c 128,-1,40
 974 748 974 748 1023 805 c 128,-1,41
 1072 862 1072 862 1112.5 906 c 128,-1,42
 1153 950 1153 950 1183 980 c 1,43,44
 1085 919 1085 919 1019 896 c 128,-1,45
 953 873 953 873 906 873 c 0,46,47
 855 873 855 873 822.5 897.5 c 128,-1,48
 790 922 790 922 790 970 c 0,49,50
 790 994 790 994 796 1017.5 c 128,-1,51
 802 1041 802 1041 817.5 1065.5 c 128,-1,52
 833 1090 833 1090 859 1117.5 c 128,-1,53
 885 1145 885 1145 925 1177 c 0,54,55
 943 1192 943 1192 954.5 1202 c 128,-1,56
 966 1212 966 1212 972 1219 c 128,-1,57
 978 1226 978 1226 980 1231.5 c 128,-1,58
 982 1237 982 1237 982 1242 c 0,59,60
 982 1271 982 1271 951.5 1289.5 c 128,-1,61
 921 1308 921 1308 855 1308 c 0,62,63
 782 1308 782 1308 709.5 1281.5 c 128,-1,64
 637 1255 637 1255 580 1202 c 0,65,66
 571 1194 571 1194 565.5 1191 c 128,-1,67
 560 1188 560 1188 556 1188 c 0,68,69
 545 1188 545 1188 545 1198 c 0,70,71
 545 1203 545 1203 549.5 1208.5 c 128,-1,72
 554 1214 554 1214 562 1222 c 0,73,74
 618 1271 618 1271 695.5 1300 c 128,-1,75
 773 1329 773 1329 855 1329 c 0,76,77
 936 1329 936 1329 981 1299 c 128,-1,78
 1026 1269 1026 1269 1026 1218 c 0,79,80
 1026 1191 1026 1191 1019 1164 c 128,-1,81
 1012 1137 1012 1137 995 1110.5 c 128,-1,82
 978 1084 978 1084 949 1056.5 c 128,-1,83
 920 1029 920 1029 876 1001 c 0,84,85
 844 981 844 981 835.5 971 c 128,-1,86
 827 961 827 961 827 948 c 0,87,88
 827 941 827 941 831.5 932.5 c 128,-1,89
 836 924 836 924 846.5 917 c 128,-1,90
 857 910 857 910 874.5 905 c 128,-1,91
 892 900 892 900 918 900 c 0,92,93
 949 900 949 900 988.5 911.5 c 128,-1,94
 1028 923 1028 923 1072.5 945.5 c 128,-1,95
 1117 968 1117 968 1164.5 999.5 c 128,-1,96
 1212 1031 1212 1031 1258 1072 c 0,97,98
 1325 1132 1325 1132 1375 1174.5 c 128,-1,99
 1425 1217 1425 1217 1462.5 1246.5 c 128,-1,100
 1500 1276 1500 1276 1529 1295.5 c 128,-1,101
 1558 1315 1558 1315 1584 1329 c 1,102,103
 1613 1342 1613 1342 1620 1342 c 0,104,105
 1623 1342 1623 1342 1628 1340 c 128,-1,106
 1633 1338 1633 1338 1633 1336 c 256,107,108
 1633 1334 1633 1334 1629 1331 c 128,-1,109
 1625 1328 1625 1328 1613 1321 c 0,110,111
 1609 1319 1609 1319 1604 1316 c 128,-1,112
 1599 1313 1599 1313 1591 1307.5 c 128,-1,113
 1583 1302 1583 1302 1571 1294 c 128,-1,114
 1559 1286 1559 1286 1542 1273 c 0,115,116
 1444 1193 1444 1193 1330.5 1048 c 128,-1,117
 1217 903 1217 903 1071 699 c 1,118,-1
 973 574 l 1,119,120
 1036 590 1036 590 1109 606.5 c 128,-1,121
 1182 623 1182 623 1267 643 c 0,122,123
 1286 647 1286 647 1306 652 c 128,-1,124
 1326 657 1326 657 1346 662 c 1,125,126
 1357 676 1357 676 1368 689.5 c 128,-1,127
 1379 703 1379 703 1391 717 c 0,128,129
 1463 802 1463 802 1543.5 882 c 128,-1,130
 1624 962 1624 962 1706 1032.5 c 128,-1,131
 1788 1103 1788 1103 1867.5 1161.5 c 128,-1,132
 1947 1220 1947 1220 2018 1262 c 128,-1,133
 2089 1304 2089 1304 2148 1327.5 c 128,-1,134
 2207 1351 2207 1351 2247 1351 c 0,135,136
 2290 1351 2290 1351 2312 1331 c 128,-1,137
 2334 1311 2334 1311 2334 1282 c 0,138,139
 2334 1250 2334 1250 2304.5 1205 c 128,-1,140
 2275 1160 2275 1160 2221 1107.5 c 128,-1,141
 2167 1055 2167 1055 2091 998.5 c 128,-1,142
 2015 942 2015 942 1922 886 c 128,-1,143
 1829 830 1829 830 1721.5 777.5 c 128,-1,144
 1614 725 1614 725 1498 682 c 1,145,146
 1421 588 1421 588 1353.5 496.5 c 128,-1,147
 1286 405 1286 405 1236.5 326 c 128,-1,148
 1187 247 1187 247 1158.5 185.5 c 128,-1,149
 1130 124 1130 124 1130 89 c 0,150,151
 1130 41 1130 41 1144.5 20 c 128,-1,152
 1159 -1 1159 -1 1203 -1 c 0,153,154
 1257 -1 1257 -1 1313 30.5 c 128,-1,155
 1369 62 1369 62 1422.5 119.5 c 128,-1,156
 1476 177 1476 177 1523.5 259.5 c 128,-1,157
 1571 342 1571 342 1609 444 c 0,158,159
 1620 473 1620 473 1625 473 c 0,160,161
 1634 473 1634 473 1634 445 c 0,162,163
 1634 409 1634 409 1616 360 c 128,-1,164
 1598 311 1598 311 1567 259 c 128,-1,165
 1536 207 1536 207 1494 155.5 c 128,-1,166
 1452 104 1452 104 1403 64 c 128,-1,167
 1354 24 1354 24 1301 -1 c 128,-1,168
 1248 -26 1248 -26 1196 -26 c 0,169,170
 1134 -26 1134 -26 1107 4.5 c 128,-1,171
 1080 35 1080 35 1080 80 c 0,172,173
 1080 127 1080 127 1090.5 184 c 128,-1,174
 1101 241 1101 241 1128.5 309.5 c 128,-1,175
 1156 378 1156 378 1202.5 458 c 128,-1,176
 1249 538 1249 538 1321 631 c 1,177,178
 1270 617 1270 617 1218 603 c 128,-1,179
 1166 589 1166 589 1115 578 c 2,180,-1
 943 538 l 1,181,182
 866 445 866 445 797 368.5 c 128,-1,183
 728 292 728 292 664 231 c 128,-1,184
 600 170 600 170 540 124 c 128,-1,185
 480 78 480 78 422 45 c 0,186,187
 356 7 356 7 290.5 -9.5 c 128,-1,188
 225 -26 225 -26 165 -26 c 0,189,190
 118 -26 118 -26 82 -16.5 c 128,-1,191
 46 -7 46 -7 20.5 8.5 c 128,-1,192
 -5 24 -5 24 -18 44 c 128,-1,193
 -31 64 -31 64 -31 84 c 0,194,195
 -31 96 -31 96 -27 107.5 c 128,-1,196
 -23 119 -23 119 -15 128.5 c 128,-1,197
 -7 138 -7 138 5 144 c 128,-1,198
 17 150 17 150 32 150 c 0,199,200
 50 150 50 150 63.5 139 c 128,-1,201
 77 128 77 128 77 109 c 0,202,203
 77 91 77 91 65 79.5 c 128,-1,204
 53 68 53 68 32 68 c 0,0,1
1527 716 m 1,205,206
 1634 759 1634 759 1732.5 813 c 128,-1,207
 1831 867 1831 867 1917 924.5 c 128,-1,208
 2003 982 2003 982 2073.5 1040 c 128,-1,209
 2144 1098 2144 1098 2194.5 1148 c 128,-1,210
 2245 1198 2245 1198 2272.5 1237.5 c 128,-1,211
 2300 1277 2300 1277 2300 1298 c 0,212,213
 2300 1330 2300 1330 2253 1330 c 0,214,215
 2216 1330 2216 1330 2165.5 1306 c 128,-1,216
 2115 1282 2115 1282 2056 1240 c 128,-1,217
 1997 1198 1997 1198 1931 1140 c 128,-1,218
 1865 1082 1865 1082 1797 1013.5 c 128,-1,219
 1729 945 1729 945 1660.5 869.5 c 128,-1,220
 1592 794 1592 794 1527 716 c 1,205,206
EndSplineSet
EndChar

StartChar: I
Encoding: 73 73 39
Width: 1082
Flags: W
LayerCount: 2
Fore
SplineSet
46 103 m 1,0,1
 57 61 57 61 96.5 31.5 c 128,-1,2
 136 2 136 2 199 2 c 0,3,4
 256 2 256 2 313.5 18 c 128,-1,5
 371 34 371 34 432.5 72 c 128,-1,6
 494 110 494 110 562.5 174 c 128,-1,7
 631 238 631 238 712 334 c 1,8,9
 685 350 685 350 662.5 372.5 c 128,-1,10
 640 395 640 395 624 422 c 128,-1,11
 608 449 608 449 599 479 c 128,-1,12
 590 509 590 509 590 541 c 0,13,14
 590 638 590 638 630 735 c 128,-1,15
 670 832 670 832 742.5 920 c 128,-1,16
 815 1008 815 1008 914.5 1083.5 c 128,-1,17
 1014 1159 1014 1159 1133 1214.5 c 128,-1,18
 1252 1270 1252 1270 1385.5 1301.5 c 128,-1,19
 1519 1333 1519 1333 1660 1333 c 0,20,21
 1683 1333 1683 1333 1703.5 1331 c 128,-1,22
 1724 1329 1724 1329 1744 1327 c 0,23,24
 1767 1325 1767 1325 1788 1322.5 c 128,-1,25
 1809 1320 1809 1320 1830 1320 c 0,26,27
 1854 1320 1854 1320 1878.5 1323.5 c 128,-1,28
 1903 1327 1903 1327 1930 1327 c 0,29,30
 1950 1327 1950 1327 1958 1323 c 128,-1,31
 1966 1319 1966 1319 1966 1313 c 0,32,33
 1966 1306 1966 1306 1959 1301 c 128,-1,34
 1952 1296 1952 1296 1933 1294 c 0,35,36
 1896 1292 1896 1292 1867.5 1292.5 c 128,-1,37
 1839 1293 1839 1293 1813 1293 c 1,38,39
 1785 1286 1785 1286 1764.5 1279 c 128,-1,40
 1744 1272 1744 1272 1722 1263 c 0,41,42
 1571 1196 1571 1196 1407.5 1035.5 c 128,-1,43
 1244 875 1244 875 1075 618 c 0,44,45
 1022 538 1022 538 965 467 c 128,-1,46
 908 396 908 396 848 333 c 1,47,48
 909 338 909 338 981 370.5 c 128,-1,49
 1053 403 1053 403 1125.5 454 c 128,-1,50
 1198 505 1198 505 1265.5 570.5 c 128,-1,51
 1333 636 1333 636 1385 707 c 128,-1,52
 1437 778 1437 778 1468 849.5 c 128,-1,53
 1499 921 1499 921 1499 986 c 0,54,55
 1499 1003 1499 1003 1503 1009.5 c 128,-1,56
 1507 1016 1507 1016 1510 1016 c 0,57,58
 1518 1016 1518 1016 1519.5 1002 c 128,-1,59
 1521 988 1521 988 1521 971 c 0,60,61
 1521 908 1521 908 1488.5 834.5 c 128,-1,62
 1456 761 1456 761 1401.5 687.5 c 128,-1,63
 1347 614 1347 614 1275.5 546 c 128,-1,64
 1204 478 1204 478 1126.5 425 c 128,-1,65
 1049 372 1049 372 970 340 c 128,-1,66
 891 308 891 308 822 306 c 1,67,68
 744 228 744 228 664.5 166.5 c 128,-1,69
 585 105 585 105 506.5 62 c 128,-1,70
 428 19 428 19 353.5 -3.5 c 128,-1,71
 279 -26 279 -26 212 -26 c 0,72,73
 164 -26 164 -26 126.5 -13 c 128,-1,74
 89 0 89 0 63 21 c 128,-1,75
 37 42 37 42 23.5 68 c 128,-1,76
 10 94 10 94 10 120 c 0,77,78
 10 134 10 134 15 147.5 c 128,-1,79
 20 161 20 161 28.5 172 c 128,-1,80
 37 183 37 183 49 189.5 c 128,-1,81
 61 196 61 196 76 196 c 0,82,83
 95 196 95 196 105 185 c 128,-1,84
 115 174 115 174 115 160 c 0,85,86
 115 113 115 113 46 103 c 1,0,1
729 355 m 1,87,88
 797 438 797 438 877 548 c 0,89,90
 1015 738 1015 738 1142 873 c 128,-1,91
 1269 1008 1269 1008 1381 1097 c 128,-1,92
 1493 1186 1493 1186 1588.5 1234.5 c 128,-1,93
 1684 1283 1684 1283 1759 1300 c 1,94,95
 1734 1303 1734 1303 1707 1304.5 c 128,-1,96
 1680 1306 1680 1306 1662 1306 c 0,97,98
 1561 1306 1561 1306 1445.5 1268 c 128,-1,99
 1330 1230 1330 1230 1215 1167 c 128,-1,100
 1100 1104 1100 1104 994 1022 c 128,-1,101
 888 940 888 940 806.5 853 c 128,-1,102
 725 766 725 766 676.5 679.5 c 128,-1,103
 628 593 628 593 628 520 c 0,104,105
 628 467 628 467 655 423.5 c 128,-1,106
 682 380 682 380 729 355 c 1,87,88
EndSplineSet
EndChar

StartChar: J
Encoding: 74 74 40
Width: 1055
Flags: W
LayerCount: 2
Fore
SplineSet
436 16 m 1,0,1
 481 76 481 76 524 136 c 128,-1,2
 567 196 567 196 611 256 c 1,3,4
 549 288 549 288 514.5 350.5 c 128,-1,5
 480 413 480 413 480 504 c 0,6,7
 480 601 480 601 523 700.5 c 128,-1,8
 566 800 566 800 642 892 c 128,-1,9
 718 984 718 984 821 1064.5 c 128,-1,10
 924 1145 924 1145 1044 1204.5 c 128,-1,11
 1164 1264 1164 1264 1296 1298.5 c 128,-1,12
 1428 1333 1428 1333 1562 1333 c 0,13,14
 1584 1333 1584 1333 1610.5 1331 c 128,-1,15
 1637 1329 1637 1329 1658 1327 c 0,16,17
 1680 1325 1680 1325 1701 1322.5 c 128,-1,18
 1722 1320 1722 1320 1744 1320 c 0,19,20
 1768 1320 1768 1320 1792.5 1323.5 c 128,-1,21
 1817 1327 1817 1327 1844 1327 c 0,22,23
 1864 1327 1864 1327 1872 1323 c 128,-1,24
 1880 1319 1880 1319 1880 1313 c 0,25,26
 1880 1306 1880 1306 1873 1301 c 128,-1,27
 1866 1296 1866 1296 1847 1294 c 0,28,29
 1810 1292 1810 1292 1780 1293.5 c 128,-1,30
 1750 1295 1750 1295 1724 1295 c 1,31,32
 1699 1291 1699 1291 1677.5 1281.5 c 128,-1,33
 1656 1272 1656 1272 1634 1262 c 0,34,35
 1596 1245 1596 1245 1558 1221 c 128,-1,36
 1520 1197 1520 1197 1478 1160.5 c 128,-1,37
 1436 1124 1436 1124 1388 1073 c 128,-1,38
 1340 1022 1340 1022 1281.5 951 c 128,-1,39
 1223 880 1223 880 1151.5 785.5 c 128,-1,40
 1080 691 1080 691 991 569 c 0,41,42
 928 482 928 482 870 403 c 128,-1,43
 812 324 812 324 756 252 c 1,44,45
 816 253 816 253 889.5 285.5 c 128,-1,46
 963 318 963 318 1037.5 372.5 c 128,-1,47
 1112 427 1112 427 1182 499 c 128,-1,48
 1252 571 1252 571 1306.5 652.5 c 128,-1,49
 1361 734 1361 734 1394 819.5 c 128,-1,50
 1427 905 1427 905 1427 986 c 0,51,52
 1427 1003 1427 1003 1430.5 1009.5 c 128,-1,53
 1434 1016 1434 1016 1439 1016 c 256,54,55
 1444 1016 1444 1016 1448 1002 c 128,-1,56
 1452 988 1452 988 1452 971 c 0,57,58
 1452 893 1452 893 1419.5 808 c 128,-1,59
 1387 723 1387 723 1332 640.5 c 128,-1,60
 1277 558 1277 558 1205 483 c 128,-1,61
 1133 408 1133 408 1053.5 351.5 c 128,-1,62
 974 295 974 295 893 261.5 c 128,-1,63
 812 228 812 228 740 228 c 2,64,-1
 738 228 l 1,65,66
 705 184 705 184 673 143.5 c 128,-1,67
 641 103 641 103 611 65 c 1,68,69
 662 80 662 80 703.5 92.5 c 128,-1,70
 745 105 745 105 779.5 117 c 128,-1,71
 814 129 814 129 845 141 c 128,-1,72
 876 153 876 153 907.5 166.5 c 128,-1,73
 939 180 939 180 973 195.5 c 128,-1,74
 1007 211 1007 211 1048 230 c 0,75,76
 1068 239 1068 239 1075.5 244 c 128,-1,77
 1083 249 1083 249 1087 249 c 1,78,-1
 1091 247 l 2,79,80
 1096 244 1096 244 1096 242 c 0,81,82
 1095 237 1095 237 1089.5 230 c 128,-1,83
 1084 223 1084 223 1064 214 c 0,84,85
 1021 193 1021 193 978.5 171.5 c 128,-1,86
 936 150 936 150 881.5 127 c 128,-1,87
 827 104 827 104 754 78.5 c 128,-1,88
 681 53 681 53 578 23 c 1,89,90
 456 -129 456 -129 352 -245.5 c 128,-1,91
 248 -362 248 -362 158.5 -447.5 c 128,-1,92
 69 -533 69 -533 -7 -590 c 128,-1,93
 -83 -647 -83 -647 -150.5 -681.5 c 128,-1,94
 -218 -716 -218 -716 -278 -730.5 c 128,-1,95
 -338 -745 -338 -745 -395 -745 c 0,96,97
 -438 -745 -438 -745 -456.5 -726 c 128,-1,98
 -475 -707 -475 -707 -475 -675 c 0,99,100
 -475 -620 -475 -620 -445 -557 c 128,-1,101
 -415 -494 -415 -494 -359.5 -429.5 c 128,-1,102
 -304 -365 -304 -365 -223.5 -301 c 128,-1,103
 -143 -237 -143 -237 -41.5 -178.5 c 128,-1,104
 60 -120 60 -120 180 -70.5 c 128,-1,105
 300 -21 300 -21 436 16 c 1,0,1
650 310 m 1,106,107
 816 540 816 540 965 715 c 128,-1,108
 1114 890 1114 890 1243.5 1012 c 128,-1,109
 1373 1134 1373 1134 1481.5 1206 c 128,-1,110
 1590 1278 1590 1278 1675 1303 c 1,111,112
 1649 1306 1649 1306 1619 1308.5 c 128,-1,113
 1589 1311 1589 1311 1564 1311 c 0,114,115
 1483 1311 1483 1311 1396 1286.5 c 128,-1,116
 1309 1262 1309 1262 1220.5 1220 c 128,-1,117
 1132 1178 1132 1178 1046.5 1120.5 c 128,-1,118
 961 1063 961 1063 884 997 c 128,-1,119
 807 931 807 931 741.5 859 c 128,-1,120
 676 787 676 787 628 715.5 c 128,-1,121
 580 644 580 644 553 576.5 c 128,-1,122
 526 509 526 509 526 451 c 0,123,124
 526 391 526 391 553.5 347.5 c 128,-1,125
 581 304 581 304 628 280 c 1,126,-1
 650 310 l 1,106,107
408 -21 m 1,127,128
 347 -39 347 -39 277.5 -70.5 c 128,-1,129
 208 -102 208 -102 137 -143 c 128,-1,130
 66 -184 66 -184 -5 -231.5 c 128,-1,131
 -76 -279 -76 -279 -140.5 -329 c 128,-1,132
 -205 -379 -205 -379 -260.5 -429.5 c 128,-1,133
 -316 -480 -316 -480 -357 -526.5 c 128,-1,134
 -398 -573 -398 -573 -421 -613 c 128,-1,135
 -444 -653 -444 -653 -444 -682 c 0,136,137
 -444 -701 -444 -701 -434.5 -711 c 128,-1,138
 -425 -721 -425 -721 -393 -721 c 0,139,140
 -307 -721 -307 -721 -211.5 -665 c 128,-1,141
 -116 -609 -116 -609 -14 -513.5 c 128,-1,142
 88 -418 88 -418 194 -291 c 128,-1,143
 300 -164 300 -164 408 -21 c 1,127,128
EndSplineSet
EndChar

StartChar: K
Encoding: 75 75 41
Width: 1650
Flags: W
LayerCount: 2
Fore
SplineSet
93 147 m 0,0,1
 93 188 93 188 113 213.5 c 128,-1,2
 133 239 133 239 168 239 c 0,3,4
 196 239 196 239 213 223 c 128,-1,5
 230 207 230 207 230 187 c 0,6,7
 230 165 230 165 214.5 150 c 128,-1,8
 199 135 199 135 173 135 c 0,9,10
 161 135 161 135 149 140 c 128,-1,11
 137 145 137 145 129 154 c 1,12,-1
 129 148 l 2,13,14
 129 115 129 115 142.5 87.5 c 128,-1,15
 156 60 156 60 180.5 40.5 c 128,-1,16
 205 21 205 21 239.5 10.5 c 128,-1,17
 274 0 274 0 317 0 c 0,18,19
 372 0 372 0 439 25.5 c 128,-1,20
 506 51 506 51 586 112 c 128,-1,21
 666 173 666 173 760.5 273 c 128,-1,22
 855 373 855 373 965 522 c 0,23,24
 1006 577 1006 577 1063 640.5 c 128,-1,25
 1120 704 1120 704 1188 773 c 128,-1,26
 1256 842 1256 842 1334 915.5 c 128,-1,27
 1412 989 1412 989 1495 1066 c 1,28,29
 1401 1003 1401 1003 1319.5 969 c 128,-1,30
 1238 935 1238 935 1160 935 c 0,31,32
 1116 935 1116 935 1090.5 959.5 c 128,-1,33
 1065 984 1065 984 1065 1023 c 0,34,35
 1065 1072 1065 1072 1099.5 1115 c 128,-1,36
 1134 1158 1134 1158 1208 1211 c 0,37,38
 1232 1228 1232 1228 1242.5 1241.5 c 128,-1,39
 1253 1255 1253 1255 1253 1266 c 0,40,41
 1253 1278 1253 1278 1243 1289 c 128,-1,42
 1233 1300 1233 1300 1216.5 1308 c 128,-1,43
 1200 1316 1200 1316 1178 1320.5 c 128,-1,44
 1156 1325 1156 1325 1132 1325 c 0,45,46
 1070 1325 1070 1325 1015 1307 c 128,-1,47
 960 1289 960 1289 912 1258.5 c 128,-1,48
 864 1228 864 1228 824.5 1188.5 c 128,-1,49
 785 1149 785 1149 755.5 1106.5 c 128,-1,50
 726 1064 726 1064 707 1020.5 c 128,-1,51
 688 977 688 977 681 940 c 0,52,53
 678 926 678 926 675 920.5 c 128,-1,54
 672 915 672 915 668 915 c 0,55,56
 657 915 657 915 657 932 c 0,57,58
 657 937 657 937 657 940 c 128,-1,59
 657 943 657 943 659 948 c 0,60,61
 665 976 665 976 681.5 1016.5 c 128,-1,62
 698 1057 698 1057 725.5 1102 c 128,-1,63
 753 1147 753 1147 791.5 1191.5 c 128,-1,64
 830 1236 830 1236 881.5 1272 c 128,-1,65
 933 1308 933 1308 996.5 1330 c 128,-1,66
 1060 1352 1060 1352 1138 1352 c 0,67,68
 1171 1352 1171 1352 1200.5 1344.5 c 128,-1,69
 1230 1337 1230 1337 1251.5 1322 c 128,-1,70
 1273 1307 1273 1307 1285.5 1285 c 128,-1,71
 1298 1263 1298 1263 1298 1235 c 0,72,73
 1298 1206 1298 1206 1292 1182.5 c 128,-1,74
 1286 1159 1286 1159 1270.5 1137 c 128,-1,75
 1255 1115 1255 1115 1229.5 1093.5 c 128,-1,76
 1204 1072 1204 1072 1165 1048 c 0,77,78
 1138 1031 1138 1031 1124.5 1021 c 128,-1,79
 1111 1011 1111 1011 1111 995 c 0,80,81
 1111 982 1111 982 1125.5 972 c 128,-1,82
 1140 962 1140 962 1160 962 c 0,83,84
 1268 962 1268 962 1385 1024.5 c 128,-1,85
 1502 1087 1502 1087 1636 1200 c 1,86,87
 1706 1257 1706 1257 1757 1293 c 128,-1,88
 1808 1329 1808 1329 1842.5 1350 c 128,-1,89
 1877 1371 1877 1371 1898 1378.5 c 128,-1,90
 1919 1386 1919 1386 1930 1386 c 0,91,92
 1943 1386 1943 1386 1943 1378 c 256,93,94
 1943 1370 1943 1370 1933 1367 c 0,95,96
 1912 1361 1912 1361 1881.5 1345 c 128,-1,97
 1851 1329 1851 1329 1808 1296 c 128,-1,98
 1765 1263 1765 1263 1707.5 1209 c 128,-1,99
 1650 1155 1650 1155 1575.5 1073 c 128,-1,100
 1501 991 1501 991 1408.5 877 c 128,-1,101
 1316 763 1316 763 1202 611 c 0,102,103
 1076 443 1076 443 954 322.5 c 128,-1,104
 832 202 832 202 719 124.5 c 128,-1,105
 606 47 606 47 504.5 10.5 c 128,-1,106
 403 -26 403 -26 318 -26 c 0,107,108
 262 -26 262 -26 220 -12 c 128,-1,109
 178 2 178 2 150 25.5 c 128,-1,110
 122 49 122 49 107.5 80.5 c 128,-1,111
 93 112 93 112 93 147 c 0,0,1
1182 70 m 0,112,113
 1182 101 1182 101 1192.5 139 c 128,-1,114
 1203 177 1203 177 1234 228.5 c 128,-1,115
 1265 280 1265 280 1320.5 347 c 128,-1,116
 1376 414 1376 414 1466 503 c 0,117,118
 1503 539 1503 539 1518.5 570.5 c 128,-1,119
 1534 602 1534 602 1534 625 c 0,120,121
 1534 643 1534 643 1523 660 c 1,122,123
 1475 648 1475 648 1430 648 c 0,124,125
 1382 648 1382 648 1352 665.5 c 128,-1,126
 1322 683 1322 683 1322 702 c 0,127,128
 1322 718 1322 718 1343.5 732 c 128,-1,129
 1365 746 1365 746 1399 746 c 0,130,131
 1437 746 1437 746 1472.5 733 c 128,-1,132
 1508 720 1508 720 1534 694 c 1,133,134
 1595 722 1595 722 1661.5 781.5 c 128,-1,135
 1728 841 1728 841 1810 934 c 1,136,137
 1909 1043 1909 1043 2009.5 1122 c 128,-1,138
 2110 1201 2110 1201 2203.5 1252.5 c 128,-1,139
 2297 1304 2297 1304 2380 1328.5 c 128,-1,140
 2463 1353 2463 1353 2529 1353 c 0,141,142
 2565 1353 2565 1353 2593 1343.5 c 128,-1,143
 2621 1334 2621 1334 2638.5 1316.5 c 128,-1,144
 2656 1299 2656 1299 2663 1276 c 128,-1,145
 2670 1253 2670 1253 2665 1226 c 0,146,147
 2657 1179 2657 1179 2628 1153.5 c 128,-1,148
 2599 1128 2599 1128 2569 1128 c 0,149,150
 2540 1128 2540 1128 2528.5 1146 c 128,-1,151
 2517 1164 2517 1164 2520 1184 c 0,152,153
 2524 1204 2524 1204 2543 1220 c 128,-1,154
 2562 1236 2562 1236 2587 1236 c 256,155,156
 2612 1236 2612 1236 2629 1222 c 1,157,-1
 2633 1239 l 2,158,159
 2636 1252 2636 1252 2631.5 1267.5 c 128,-1,160
 2627 1283 2627 1283 2614 1297 c 128,-1,161
 2601 1311 2601 1311 2580 1320.5 c 128,-1,162
 2559 1330 2559 1330 2529 1330 c 0,163,164
 2485 1330 2485 1330 2443.5 1317.5 c 128,-1,165
 2402 1305 2402 1305 2351.5 1273.5 c 128,-1,166
 2301 1242 2301 1242 2236.5 1188 c 128,-1,167
 2172 1134 2172 1134 2083 1051 c 1,168,169
 1938 907 1938 907 1806 807 c 128,-1,170
 1674 707 1674 707 1555 669 c 1,171,172
 1567 650 1567 650 1574 627.5 c 128,-1,173
 1581 605 1581 605 1581 579 c 0,174,175
 1581 538 1581 538 1571.5 496 c 128,-1,176
 1562 454 1562 454 1533.5 405 c 128,-1,177
 1505 356 1505 356 1454 297.5 c 128,-1,178
 1403 239 1403 239 1320 165 c 0,179,180
 1291 139 1291 139 1274 120.5 c 128,-1,181
 1257 102 1257 102 1248 88.5 c 128,-1,182
 1239 75 1239 75 1236 64.5 c 128,-1,183
 1233 54 1233 54 1233 45 c 0,184,185
 1233 -10 1233 -10 1312 -10 c 0,186,187
 1363 -10 1363 -10 1428 23 c 128,-1,188
 1493 56 1493 56 1557 116.5 c 128,-1,189
 1621 177 1621 177 1675 262.5 c 128,-1,190
 1729 348 1729 348 1759 454 c 0,191,192
 1767 484 1767 484 1773 484 c 0,193,194
 1778 484 1778 484 1781 474 c 128,-1,195
 1784 464 1784 464 1784 448 c 0,196,197
 1784 401 1784 401 1762 347 c 128,-1,198
 1740 293 1740 293 1703 239.5 c 128,-1,199
 1666 186 1666 186 1618 136 c 128,-1,200
 1570 86 1570 86 1517 47.5 c 128,-1,201
 1464 9 1464 9 1410.5 -14 c 128,-1,202
 1357 -37 1357 -37 1310 -37 c 0,203,204
 1252 -37 1252 -37 1217 -9 c 128,-1,205
 1182 19 1182 19 1182 70 c 0,112,113
1359 702 m 0,206,207
 1359 693 1359 693 1375.5 682 c 128,-1,208
 1392 671 1392 671 1431 671 c 0,209,210
 1465 671 1465 671 1503 682 c 1,211,212
 1482 701 1482 701 1454 712.5 c 128,-1,213
 1426 724 1426 724 1402 724 c 0,214,215
 1379 724 1379 724 1369 716 c 128,-1,216
 1359 708 1359 708 1359 702 c 0,206,207
EndSplineSet
EndChar

StartChar: L
Encoding: 76 76 42
Width: 1313
Flags: W
LayerCount: 2
Fore
SplineSet
40 47 m 0,0,1
 40 70 40 70 54.5 89.5 c 128,-1,2
 69 109 69 109 95 123.5 c 128,-1,3
 121 138 121 138 157.5 146 c 128,-1,4
 194 154 194 154 239 154 c 0,5,6
 276 154 276 154 311.5 149 c 128,-1,7
 347 144 347 144 384 135 c 128,-1,8
 421 126 421 126 461 112.5 c 128,-1,9
 501 99 501 99 549 82 c 1,10,11
 586 105 586 105 624.5 138 c 128,-1,12
 663 171 663 171 705 216 c 128,-1,13
 747 261 747 261 793.5 319 c 128,-1,14
 840 377 840 377 893 450 c 1,15,16
 781 451 781 451 697.5 474.5 c 128,-1,17
 614 498 614 498 559 537.5 c 128,-1,18
 504 577 504 577 476.5 630 c 128,-1,19
 449 683 449 683 449 743 c 0,20,21
 449 809 449 809 484 872 c 128,-1,22
 519 935 519 935 574.5 983.5 c 128,-1,23
 630 1032 630 1032 698 1062 c 128,-1,24
 766 1092 766 1092 833 1092 c 0,25,26
 846 1092 846 1092 849.5 1088 c 128,-1,27
 853 1084 853 1084 853 1081 c 0,28,29
 853 1076 853 1076 848.5 1073.5 c 128,-1,30
 844 1071 844 1071 824 1069 c 0,31,32
 762 1061 762 1061 708 1034 c 128,-1,33
 654 1007 654 1007 614 967 c 128,-1,34
 574 927 574 927 551 877.5 c 128,-1,35
 528 828 528 828 528 776 c 0,36,37
 528 633 528 633 624.5 554.5 c 128,-1,38
 721 476 721 476 908 476 c 2,39,-1
 912 476 l 1,40,41
 969 555 969 555 1034 653 c 0,42,43
 1155 835 1155 835 1278 966.5 c 128,-1,44
 1401 1098 1401 1098 1516 1183.5 c 128,-1,45
 1631 1269 1631 1269 1734 1309.5 c 128,-1,46
 1837 1350 1837 1350 1920 1350 c 0,47,48
 1992 1350 1992 1350 2027 1324 c 128,-1,49
 2062 1298 2062 1298 2062 1254 c 0,50,51
 2062 1187 2062 1187 2015.5 1109 c 128,-1,52
 1969 1031 1969 1031 1891 951 c 128,-1,53
 1813 871 1813 871 1710 793.5 c 128,-1,54
 1607 716 1607 716 1494 651 c 128,-1,55
 1381 586 1381 586 1265.5 537.5 c 128,-1,56
 1150 489 1150 489 1046 467 c 1,57,58
 931 320 931 320 820.5 221 c 128,-1,59
 710 122 710 122 598 63 c 1,60,61
 639 48 639 48 680.5 36 c 128,-1,62
 722 24 722 24 769 15 c 128,-1,63
 816 6 816 6 870.5 1.5 c 128,-1,64
 925 -3 925 -3 991 -3 c 0,65,66
 1072 -3 1072 -3 1130 10.5 c 128,-1,67
 1188 24 1188 24 1226 42 c 128,-1,68
 1264 60 1264 60 1284.5 77.5 c 128,-1,69
 1305 95 1305 95 1313 103 c 1,70,-1
 1313 69 l 1,71,72
 1274 33 1274 33 1233.5 10.5 c 128,-1,73
 1193 -12 1193 -12 1151.5 -25 c 128,-1,74
 1110 -38 1110 -38 1068 -43 c 128,-1,75
 1026 -48 1026 -48 984 -48 c 0,76,77
 931 -48 931 -48 877.5 -38 c 128,-1,78
 824 -28 824 -28 771.5 -13.5 c 128,-1,79
 719 1 719 1 668 18 c 128,-1,80
 617 35 617 35 569 49 c 1,81,82
 487 11 487 11 404.5 -7.5 c 128,-1,83
 322 -26 322 -26 234 -26 c 0,84,85
 135 -26 135 -26 87.5 -4 c 128,-1,86
 40 18 40 18 40 47 c 0,0,1
1070 498 m 1,87,88
 1169 522 1169 522 1276 570 c 128,-1,89
 1383 618 1383 618 1485.5 681 c 128,-1,90
 1588 744 1588 744 1680 817 c 128,-1,91
 1772 890 1772 890 1841.5 966 c 128,-1,92
 1911 1042 1911 1042 1952 1115.5 c 128,-1,93
 1993 1189 1993 1189 1993 1253 c 0,94,95
 1993 1279 1993 1279 1974.5 1300.5 c 128,-1,96
 1956 1322 1956 1322 1912 1322 c 0,97,98
 1833 1322 1833 1322 1752 1287 c 128,-1,99
 1671 1252 1671 1252 1591 1186.5 c 128,-1,100
 1511 1121 1511 1121 1434 1027.5 c 128,-1,101
 1357 934 1357 934 1285 817 c 0,102,103
 1229 726 1229 726 1176 646.5 c 128,-1,104
 1123 567 1123 567 1070 498 c 1,87,88
68 49 m 0,105,106
 68 32 68 32 108.5 19 c 128,-1,107
 149 6 149 6 221 6 c 0,108,109
 308 6 308 6 379 17 c 128,-1,110
 450 28 450 28 518 64 c 1,111,112
 454 81 454 81 386 93.5 c 128,-1,113
 318 106 318 106 263 106 c 0,114,115
 219 106 219 106 183 101 c 128,-1,116
 147 96 147 96 121.5 88 c 128,-1,117
 96 80 96 80 82 70 c 128,-1,118
 68 60 68 60 68 49 c 0,105,106
EndSplineSet
EndChar

StartChar: M
Encoding: 77 77 43
Width: 1706
Flags: W
LayerCount: 2
Fore
SplineSet
-12 115 m 0,0,1
 -12 153 -12 153 8 178.5 c 128,-1,2
 28 204 28 204 60 204 c 0,3,4
 82 204 82 204 97 191.5 c 128,-1,5
 112 179 112 179 112 159 c 0,6,7
 112 138 112 138 98.5 125 c 128,-1,8
 85 112 85 112 66 112 c 0,9,10
 43 112 43 112 28 128 c 1,11,12
 27 124 27 124 27 115 c 0,13,14
 27 92 27 92 38 71.5 c 128,-1,15
 49 51 49 51 69 35.5 c 128,-1,16
 89 20 89 20 116.5 11 c 128,-1,17
 144 2 144 2 177 2 c 0,18,19
 244 2 244 2 336.5 44.5 c 128,-1,20
 429 87 429 87 560 188 c 128,-1,21
 691 289 691 289 865.5 458 c 128,-1,22
 1040 627 1040 627 1271 879 c 0,23,24
 1416 1038 1416 1038 1522 1142.5 c 128,-1,25
 1628 1247 1628 1247 1698 1309.5 c 128,-1,26
 1768 1372 1768 1372 1804.5 1397.5 c 128,-1,27
 1841 1423 1841 1423 1848 1423 c 256,28,29
 1855 1423 1855 1423 1865 1420.5 c 128,-1,30
 1875 1418 1875 1418 1875 1413 c 256,31,32
 1875 1408 1875 1408 1871.5 1405 c 128,-1,33
 1868 1402 1868 1402 1860 1394 c 1,34,35
 1850 1386 1850 1386 1836 1373.5 c 128,-1,36
 1822 1361 1822 1361 1801 1340 c 1,37,38
 1779 1316 1779 1316 1736 1256 c 128,-1,39
 1693 1196 1693 1196 1637 1112 c 128,-1,40
 1581 1028 1581 1028 1516 926 c 128,-1,41
 1451 824 1451 824 1384 717.5 c 128,-1,42
 1317 611 1317 611 1252.5 506 c 128,-1,43
 1188 401 1188 401 1133.5 310 c 128,-1,44
 1079 219 1079 219 1038.5 148.5 c 128,-1,45
 998 78 998 78 979 41 c 1,46,47
 1067 142 1067 142 1140 225.5 c 128,-1,48
 1213 309 1213 309 1281 383.5 c 128,-1,49
 1349 458 1349 458 1415.5 527.5 c 128,-1,50
 1482 597 1482 597 1555.5 671 c 128,-1,51
 1629 745 1629 745 1715 827.5 c 128,-1,52
 1801 910 1801 910 1907 1010 c 1,53,54
 2033 1127 2033 1127 2125.5 1207 c 128,-1,55
 2218 1287 2218 1287 2284.5 1335.5 c 128,-1,56
 2351 1384 2351 1384 2394.5 1405 c 128,-1,57
 2438 1426 2438 1426 2464 1426 c 0,58,59
 2474 1426 2474 1426 2474 1418 c 0,60,61
 2474 1415 2474 1415 2467 1408.5 c 128,-1,62
 2460 1402 2460 1402 2448.5 1393.5 c 128,-1,63
 2437 1385 2437 1385 2423 1374 c 128,-1,64
 2409 1363 2409 1363 2394 1351 c 1,65,66
 2330 1294 2330 1294 2258 1215.5 c 128,-1,67
 2186 1137 2186 1137 2110 1043.5 c 128,-1,68
 2034 950 2034 950 1955.5 845.5 c 128,-1,69
 1877 741 1877 741 1799.5 634.5 c 128,-1,70
 1722 528 1722 528 1648 422 c 128,-1,71
 1574 316 1574 316 1506 220 c 0,72,73
 1471 169 1471 169 1451 138.5 c 128,-1,74
 1431 108 1431 108 1420.5 89.5 c 128,-1,75
 1410 71 1410 71 1407 61 c 128,-1,76
 1404 51 1404 51 1404 43 c 0,77,78
 1404 25 1404 25 1419 13.5 c 128,-1,79
 1434 2 1434 2 1461 2 c 0,80,81
 1479 2 1479 2 1507 8.5 c 128,-1,82
 1535 15 1535 15 1568 28.5 c 128,-1,83
 1601 42 1601 42 1635.5 62.5 c 128,-1,84
 1670 83 1670 83 1700 112 c 1,85,86
 1705 109 1705 109 1705 99 c 0,87,88
 1705 90 1705 90 1703.5 84.5 c 128,-1,89
 1702 79 1702 79 1700 77 c 0,90,91
 1668 50 1668 50 1633.5 30.5 c 128,-1,92
 1599 11 1599 11 1565.5 -1.5 c 128,-1,93
 1532 -14 1532 -14 1500.5 -20 c 128,-1,94
 1469 -26 1469 -26 1445 -26 c 0,95,96
 1385 -26 1385 -26 1356 0.5 c 128,-1,97
 1327 27 1327 27 1327 68 c 0,98,99
 1327 82 1327 82 1332.5 103.5 c 128,-1,100
 1338 125 1338 125 1353 157.5 c 128,-1,101
 1368 190 1368 190 1393.5 234.5 c 128,-1,102
 1419 279 1419 279 1459 339 c 0,103,104
 1521 431 1521 431 1594 524.5 c 128,-1,105
 1667 618 1667 618 1744.5 710 c 128,-1,106
 1822 802 1822 802 1902.5 890 c 128,-1,107
 1983 978 1983 978 2059.5 1058.5 c 128,-1,108
 2136 1139 2136 1139 2207 1210 c 128,-1,109
 2278 1281 2278 1281 2337 1339 c 1,110,111
 2307 1317 2307 1317 2274.5 1290.5 c 128,-1,112
 2242 1264 2242 1264 2201 1229 c 128,-1,113
 2160 1194 2160 1194 2108.5 1148 c 128,-1,114
 2057 1102 2057 1102 1990.5 1040 c 128,-1,115
 1924 978 1924 978 1839 898 c 128,-1,116
 1754 818 1754 818 1646 715 c 0,117,118
 1563 636 1563 636 1411.5 475.5 c 128,-1,119
 1260 315 1260 315 1043 70 c 0,120,121
 1017 40 1017 40 1000.5 23 c 128,-1,122
 984 6 984 6 973.5 -3 c 128,-1,123
 963 -12 963 -12 956.5 -14.5 c 128,-1,124
 950 -17 950 -17 945 -17 c 0,125,126
 938 -17 938 -17 932.5 -9 c 128,-1,127
 927 -1 927 -1 927 14 c 0,128,129
 927 69 927 69 952.5 148 c 128,-1,130
 978 227 978 227 1025.5 324 c 128,-1,131
 1073 421 1073 421 1141 533.5 c 128,-1,132
 1209 646 1209 646 1294 767.5 c 128,-1,133
 1379 889 1379 889 1480 1017 c 128,-1,134
 1581 1145 1581 1145 1694 1273 c 1,135,136
 1635 1217 1635 1217 1487 1062 c 128,-1,137
 1339 907 1339 907 1098 647 c 0,138,139
 873 405 873 405 697 254.5 c 128,-1,140
 521 104 521 104 385 35 c 0,141,142
 322 3 322 3 268 -11.5 c 128,-1,143
 214 -26 214 -26 167 -26 c 0,144,145
 130 -26 130 -26 97.5 -15 c 128,-1,146
 65 -4 65 -4 40.5 15 c 128,-1,147
 16 34 16 34 2 60 c 128,-1,148
 -12 86 -12 86 -12 115 c 0,0,1
EndSplineSet
EndChar

StartChar: N
Encoding: 78 78 44
Width: 1396
Flags: W
LayerCount: 2
Fore
SplineSet
58 124 m 0,0,1
 58 149 58 149 66 171 c 128,-1,2
 74 193 74 193 87 209.5 c 128,-1,3
 100 226 100 226 117.5 235.5 c 128,-1,4
 135 245 135 245 153 245 c 0,5,6
 176 245 176 245 190.5 233 c 128,-1,7
 205 221 205 221 205 201 c 256,8,9
 205 181 205 181 190 169 c 128,-1,10
 175 157 175 157 152 157 c 0,11,12
 141 157 141 157 127.5 161.5 c 128,-1,13
 114 166 114 166 105 173 c 1,14,15
 100 162 100 162 96.5 148 c 128,-1,16
 93 134 93 134 93 123 c 0,17,18
 93 68 93 68 129.5 35 c 128,-1,19
 166 2 166 2 241 2 c 0,20,21
 286 2 286 2 349 29.5 c 128,-1,22
 412 57 412 57 496.5 120.5 c 128,-1,23
 581 184 581 184 689 287 c 128,-1,24
 797 390 797 390 932 540 c 0,25,26
 1087 712 1087 712 1204 848.5 c 128,-1,27
 1321 985 1321 985 1400.5 1083 c 128,-1,28
 1480 1181 1480 1181 1523 1237.5 c 128,-1,29
 1566 1294 1566 1294 1574 1306 c 0,30,31
 1583 1318 1583 1318 1588 1322.5 c 128,-1,32
 1593 1327 1593 1327 1598 1327 c 0,33,34
 1607 1327 1607 1327 1607 1318 c 0,35,36
 1607 1311 1607 1311 1603 1306 c 1,37,38
 1601 1301 1601 1301 1597.5 1295 c 128,-1,39
 1594 1289 1594 1289 1589 1281 c 0,40,41
 1565 1239 1565 1239 1554 1201 c 128,-1,42
 1543 1163 1543 1163 1531 1122 c 0,43,44
 1520 1084 1520 1084 1508.5 1046 c 128,-1,45
 1497 1008 1497 1008 1482.5 963 c 128,-1,46
 1468 918 1468 918 1448.5 862.5 c 128,-1,47
 1429 807 1429 807 1402 734 c 0,48,49
 1382 680 1382 680 1363.5 633.5 c 128,-1,50
 1345 587 1345 587 1325 543.5 c 128,-1,51
 1305 500 1305 500 1283.5 457 c 128,-1,52
 1262 414 1262 414 1237 367 c 128,-1,53
 1212 320 1212 320 1182.5 267 c 128,-1,54
 1153 214 1153 214 1118 151 c 1,55,56
 1149 188 1149 188 1194 242.5 c 128,-1,57
 1239 297 1239 297 1294.5 362.5 c 128,-1,58
 1350 428 1350 428 1413 501.5 c 128,-1,59
 1476 575 1476 575 1542.5 650.5 c 128,-1,60
 1609 726 1609 726 1677 799.5 c 128,-1,61
 1745 873 1745 873 1809 940 c 0,62,63
 1939 1074 1939 1074 2046.5 1168 c 128,-1,64
 2154 1262 2154 1262 2248 1321 c 128,-1,65
 2342 1380 2342 1380 2426 1407 c 128,-1,66
 2510 1434 2510 1434 2593 1434 c 0,67,68
 2645 1434 2645 1434 2685.5 1420.5 c 128,-1,69
 2726 1407 2726 1407 2754 1382.5 c 128,-1,70
 2782 1358 2782 1358 2796 1324 c 128,-1,71
 2810 1290 2810 1290 2810 1249 c 0,72,73
 2810 1204 2810 1204 2785.5 1152 c 128,-1,74
 2761 1100 2761 1100 2716 1049 c 128,-1,75
 2671 998 2671 998 2608 950.5 c 128,-1,76
 2545 903 2545 903 2469 866 c 0,77,78
 2453 858 2453 858 2438 853.5 c 128,-1,79
 2423 849 2423 849 2415 849 c 0,80,81
 2409 849 2409 849 2406 852 c 128,-1,82
 2403 855 2403 855 2403 858 c 0,83,84
 2403 866 2403 866 2420 873 c 0,85,86
 2479 896 2479 896 2539 939 c 128,-1,87
 2599 982 2599 982 2648 1035.5 c 128,-1,88
 2697 1089 2697 1089 2727.5 1147 c 128,-1,89
 2758 1205 2758 1205 2758 1258 c 0,90,91
 2758 1328 2758 1328 2712.5 1367.5 c 128,-1,92
 2667 1407 2667 1407 2592 1407 c 0,93,94
 2511 1407 2511 1407 2419 1372.5 c 128,-1,95
 2327 1338 2327 1338 2219 1263.5 c 128,-1,96
 2111 1189 2111 1189 1983.5 1071 c 128,-1,97
 1856 953 1856 953 1703 786 c 0,98,99
 1581 653 1581 653 1476.5 532 c 128,-1,100
 1372 411 1372 411 1287 309.5 c 128,-1,101
 1202 208 1202 208 1137.5 130 c 128,-1,102
 1073 52 1073 52 1031 5 c 0,103,104
 1005 -25 1005 -25 994 -33.5 c 128,-1,105
 983 -42 983 -42 977 -42 c 0,106,107
 972 -42 972 -42 967.5 -37.5 c 128,-1,108
 963 -33 963 -33 963 -28 c 0,109,110
 963 -21 963 -21 971 -15 c 0,111,112
 975 -12 975 -12 980 -7.5 c 128,-1,113
 985 -3 985 -3 989 2 c 0,114,115
 1007 24 1007 24 1024.5 55 c 128,-1,116
 1042 86 1042 86 1060.5 130 c 128,-1,117
 1079 174 1079 174 1098.5 232.5 c 128,-1,118
 1118 291 1118 291 1141 368 c 0,119,120
 1167 455 1167 455 1202 549 c 128,-1,121
 1237 643 1237 643 1280.5 742 c 128,-1,122
 1324 841 1324 841 1375.5 942.5 c 128,-1,123
 1427 1044 1427 1044 1486 1145 c 1,124,125
 1437 1084 1437 1084 1394 1030.5 c 128,-1,126
 1351 977 1351 977 1309.5 927 c 128,-1,127
 1268 877 1268 877 1227 828 c 128,-1,128
 1186 779 1186 779 1140 726 c 128,-1,129
 1094 673 1094 673 1041.5 614 c 128,-1,130
 989 555 989 555 926 486 c 0,131,132
 812 361 812 361 713.5 265.5 c 128,-1,133
 615 170 615 170 530 105.5 c 128,-1,134
 445 41 445 41 372 7.5 c 128,-1,135
 299 -26 299 -26 236 -26 c 0,136,137
 197 -26 197 -26 164 -14 c 128,-1,138
 131 -2 131 -2 107.5 18.5 c 128,-1,139
 84 39 84 39 71 66.5 c 128,-1,140
 58 94 58 94 58 124 c 0,0,1
559 769 m 0,141,142
 500 769 500 769 448 786.5 c 128,-1,143
 396 804 396 804 356.5 838.5 c 128,-1,144
 317 873 317 873 294 924.5 c 128,-1,145
 271 976 271 976 271 1044 c 0,146,147
 271 1107 271 1107 301 1165 c 128,-1,148
 331 1223 331 1223 386 1267.5 c 128,-1,149
 441 1312 441 1312 519 1338.5 c 128,-1,150
 597 1365 597 1365 692 1365 c 0,151,152
 728 1365 728 1365 761 1362.5 c 128,-1,153
 794 1360 794 1360 827.5 1353.5 c 128,-1,154
 861 1347 861 1347 895.5 1336.5 c 128,-1,155
 930 1326 930 1326 968 1311 c 0,156,157
 993 1301 993 1301 1015 1291.5 c 128,-1,158
 1037 1282 1037 1282 1058.5 1271.5 c 128,-1,159
 1080 1261 1080 1261 1103.5 1250 c 128,-1,160
 1127 1239 1127 1239 1155 1226 c 0,161,162
 1221 1194 1221 1194 1284 1194 c 0,163,164
 1320 1194 1320 1194 1354.5 1204.5 c 128,-1,165
 1389 1215 1389 1215 1415 1238 c 0,166,167
 1425 1246 1425 1246 1429 1249.5 c 128,-1,168
 1433 1253 1433 1253 1438 1253 c 0,169,170
 1441 1253 1441 1253 1443 1250 c 128,-1,171
 1445 1247 1445 1247 1445 1245 c 0,172,173
 1445 1241 1445 1241 1442.5 1236 c 128,-1,174
 1440 1231 1440 1231 1432 1223 c 0,175,176
 1412 1204 1412 1204 1385.5 1189.5 c 128,-1,177
 1359 1175 1359 1175 1330 1165 c 128,-1,178
 1301 1155 1301 1155 1271 1150 c 128,-1,179
 1241 1145 1241 1145 1215 1145 c 0,180,181
 1184 1145 1184 1145 1149.5 1150.5 c 128,-1,182
 1115 1156 1115 1156 1080 1166.5 c 128,-1,183
 1045 1177 1045 1177 1010.5 1192 c 128,-1,184
 976 1207 976 1207 946 1225 c 0,185,186
 888 1258 888 1258 844.5 1278 c 128,-1,187
 801 1298 801 1298 766.5 1309 c 128,-1,188
 732 1320 732 1320 702.5 1323.5 c 128,-1,189
 673 1327 673 1327 643 1327 c 0,190,191
 572 1327 572 1327 509 1306 c 128,-1,192
 446 1285 446 1285 399 1247 c 128,-1,193
 352 1209 352 1209 324.5 1156.5 c 128,-1,194
 297 1104 297 1104 297 1041 c 0,195,196
 297 991 297 991 317.5 947 c 128,-1,197
 338 903 338 903 374 870 c 128,-1,198
 410 837 410 837 458 817.5 c 128,-1,199
 506 798 506 798 562 798 c 0,200,201
 601 798 601 798 646 813.5 c 128,-1,202
 691 829 691 829 729.5 859 c 128,-1,203
 768 889 768 889 793.5 932 c 128,-1,204
 819 975 819 975 819 1030 c 0,205,206
 819 1051 819 1051 811.5 1068 c 128,-1,207
 804 1085 804 1085 793 1097 c 1,208,209
 786 1089 786 1089 777 1083 c 128,-1,210
 768 1077 768 1077 755 1077 c 0,211,212
 736 1077 736 1077 721.5 1089 c 128,-1,213
 707 1101 707 1101 707 1121 c 0,214,215
 707 1137 707 1137 719 1150.5 c 128,-1,216
 731 1164 731 1164 754 1164 c 0,217,218
 772 1164 772 1164 788.5 1154.5 c 128,-1,219
 805 1145 805 1145 818 1128.5 c 128,-1,220
 831 1112 831 1112 838.5 1088.5 c 128,-1,221
 846 1065 846 1065 846 1038 c 0,222,223
 846 979 846 979 822.5 929.5 c 128,-1,224
 799 880 799 880 759.5 844.5 c 128,-1,225
 720 809 720 809 668 789 c 128,-1,226
 616 769 616 769 559 769 c 0,141,142
EndSplineSet
EndChar

StartChar: O
Encoding: 79 79 45
Width: 1237
Flags: W
LayerCount: 2
Fore
SplineSet
341 281 m 0,0,1
 341 371 341 371 371 463.5 c 128,-1,2
 401 556 401 556 454 646.5 c 128,-1,3
 507 737 507 737 580 822.5 c 128,-1,4
 653 908 653 908 738.5 983.5 c 128,-1,5
 824 1059 824 1059 919.5 1122 c 128,-1,6
 1015 1185 1015 1185 1113 1230.5 c 128,-1,7
 1211 1276 1211 1276 1308.5 1301 c 128,-1,8
 1406 1326 1406 1326 1496 1326 c 0,9,10
 1557 1326 1557 1326 1605 1310.5 c 128,-1,11
 1653 1295 1653 1295 1687 1266.5 c 128,-1,12
 1721 1238 1721 1238 1739 1197 c 128,-1,13
 1757 1156 1757 1156 1757 1106 c 0,14,15
 1757 1068 1757 1068 1744 1033.5 c 128,-1,16
 1731 999 1731 999 1716 978 c 1,17,18
 1698 955 1698 955 1690 955 c 256,19,20
 1682 955 1682 955 1682 964 c 0,21,22
 1682 968 1682 968 1692 981 c 0,23,24
 1705 996 1705 996 1717.5 1027 c 128,-1,25
 1730 1058 1730 1058 1730 1103 c 0,26,27
 1730 1194 1730 1194 1666 1246 c 128,-1,28
 1602 1298 1602 1298 1485 1298 c 0,29,30
 1415 1298 1415 1298 1331 1266 c 128,-1,31
 1247 1234 1247 1234 1158 1178.5 c 128,-1,32
 1069 1123 1069 1123 978.5 1048.5 c 128,-1,33
 888 974 888 974 804.5 888 c 128,-1,34
 721 802 721 802 648 709 c 128,-1,35
 575 616 575 616 521 524.5 c 128,-1,36
 467 433 467 433 436 346.5 c 128,-1,37
 405 260 405 260 405 188 c 0,38,39
 405 142 405 142 423 107.5 c 128,-1,40
 441 73 441 73 472 49.5 c 128,-1,41
 503 26 503 26 544 14 c 128,-1,42
 585 2 585 2 632 2 c 0,43,44
 720 2 720 2 817.5 44 c 128,-1,45
 915 86 915 86 1010.5 156.5 c 128,-1,46
 1106 227 1106 227 1192.5 317.5 c 128,-1,47
 1279 408 1279 408 1345.5 505.5 c 128,-1,48
 1412 603 1412 603 1451 699.5 c 128,-1,49
 1490 796 1490 796 1490 878 c 0,50,51
 1490 963 1490 963 1450.5 1001.5 c 128,-1,52
 1411 1040 1411 1040 1333 1040 c 0,53,54
 1272 1040 1272 1040 1206.5 1011 c 128,-1,55
 1141 982 1141 982 1078 931 c 128,-1,56
 1015 880 1015 880 958.5 811 c 128,-1,57
 902 742 902 742 859.5 661 c 128,-1,58
 817 580 817 580 792 491 c 128,-1,59
 767 402 767 402 767 312 c 0,60,61
 767 294 767 294 769 273 c 128,-1,62
 771 252 771 252 774.5 232 c 128,-1,63
 778 212 778 212 783 195 c 128,-1,64
 788 178 788 178 794 166 c 0,65,66
 797 158 797 158 797 156 c 0,67,68
 797 147 797 147 790 147 c 0,69,70
 782 147 782 147 772 160 c 128,-1,71
 762 173 762 173 753.5 196.5 c 128,-1,72
 745 220 745 220 739.5 253 c 128,-1,73
 734 286 734 286 734 327 c 0,74,75
 734 413 734 413 759 502 c 128,-1,76
 784 591 784 591 827 673.5 c 128,-1,77
 870 756 870 756 928.5 828 c 128,-1,78
 987 900 987 900 1055 953.5 c 128,-1,79
 1123 1007 1123 1007 1196.5 1038 c 128,-1,80
 1270 1069 1270 1069 1343 1069 c 0,81,82
 1382 1069 1382 1069 1417.5 1056.5 c 128,-1,83
 1453 1044 1453 1044 1480 1017.5 c 128,-1,84
 1507 991 1507 991 1522.5 950 c 128,-1,85
 1538 909 1538 909 1538 853 c 0,86,87
 1538 768 1538 768 1499.5 670 c 128,-1,88
 1461 572 1461 572 1393.5 474 c 128,-1,89
 1326 376 1326 376 1236 286 c 128,-1,90
 1146 196 1146 196 1042.5 126.5 c 128,-1,91
 939 57 939 57 828 15.5 c 128,-1,92
 717 -26 717 -26 608 -26 c 0,93,94
 551 -26 551 -26 502.5 -9.5 c 128,-1,95
 454 7 454 7 418 43.5 c 128,-1,96
 382 80 382 80 361.5 138.5 c 128,-1,97
 341 197 341 197 341 281 c 0,0,1
EndSplineSet
EndChar

StartChar: P
Encoding: 80 80 46
Width: 1243
Flags: W
LayerCount: 2
Fore
SplineSet
75 122 m 0,0,1
 75 152 75 152 94.5 174.5 c 128,-1,2
 114 197 114 197 141 197 c 0,3,4
 176 197 176 197 176 163 c 0,5,6
 176 146 176 146 159 133 c 128,-1,7
 142 120 142 120 115 114 c 1,8,-1
 115 106 l 2,9,10
 115 88 115 88 125 69.5 c 128,-1,11
 135 51 135 51 154.5 36 c 128,-1,12
 174 21 174 21 202 11.5 c 128,-1,13
 230 2 230 2 267 2 c 0,14,15
 309 2 309 2 347 10 c 128,-1,16
 385 18 385 18 425.5 40.5 c 128,-1,17
 466 63 466 63 512 102.5 c 128,-1,18
 558 142 558 142 615 204.5 c 128,-1,19
 672 267 672 267 743 355.5 c 128,-1,20
 814 444 814 444 905 565 c 1,21,22
 852 601 852 601 852 651 c 0,23,24
 852 673 852 673 862.5 691.5 c 128,-1,25
 873 710 873 710 889.5 723.5 c 128,-1,26
 906 737 906 737 927.5 744.5 c 128,-1,27
 949 752 949 752 970 752 c 0,28,29
 988 752 988 752 991.5 748 c 128,-1,30
 995 744 995 744 995 742 c 256,31,32
 995 740 995 740 992.5 738.5 c 128,-1,33
 990 737 990 737 982 735 c 0,34,35
 937 727 937 727 914 699 c 128,-1,36
 891 671 891 671 891 633 c 0,37,38
 891 611 891 611 923 589 c 1,39,-1
 937 608 l 2,40,41
 1016 714 1016 714 1088 800.5 c 128,-1,42
 1160 887 1160 887 1230 959 c 128,-1,43
 1300 1031 1300 1031 1371.5 1091.5 c 128,-1,44
 1443 1152 1443 1152 1520 1205 c 1,45,46
 1470 1250 1470 1250 1381.5 1274 c 128,-1,47
 1293 1298 1293 1298 1156 1298 c 0,48,49
 1049 1298 1049 1298 945 1270 c 128,-1,50
 841 1242 841 1242 748 1194.5 c 128,-1,51
 655 1147 655 1147 576 1084.5 c 128,-1,52
 497 1022 497 1022 439.5 952 c 128,-1,53
 382 882 382 882 349.5 809.5 c 128,-1,54
 317 737 317 737 317 670 c 0,55,56
 317 618 317 618 343 583.5 c 128,-1,57
 369 549 369 549 428 549 c 0,58,59
 467 549 467 549 522.5 577.5 c 128,-1,60
 578 606 578 606 638 655 c 128,-1,61
 698 704 698 704 758 767.5 c 128,-1,62
 818 831 818 831 865 902 c 128,-1,63
 912 973 912 973 941.5 1045.5 c 128,-1,64
 971 1118 971 1118 971 1184 c 0,65,66
 971 1208 971 1208 982 1208 c 0,67,68
 987 1208 987 1208 992 1199.5 c 128,-1,69
 997 1191 997 1191 997 1170 c 0,70,71
 997 1098 997 1098 973.5 1022 c 128,-1,72
 950 946 950 946 908.5 874 c 128,-1,73
 867 802 867 802 811.5 738 c 128,-1,74
 756 674 756 674 691.5 626 c 128,-1,75
 627 578 627 578 557 550 c 128,-1,76
 487 522 487 522 418 522 c 0,77,78
 386 522 386 522 362 533 c 128,-1,79
 338 544 338 544 321 563 c 128,-1,80
 304 582 304 582 295.5 608.5 c 128,-1,81
 287 635 287 635 287 666 c 0,82,83
 287 737 287 737 319.5 813.5 c 128,-1,84
 352 890 352 890 410.5 963.5 c 128,-1,85
 469 1037 469 1037 549.5 1102.5 c 128,-1,86
 630 1168 630 1168 726.5 1218 c 128,-1,87
 823 1268 823 1268 931.5 1297 c 128,-1,88
 1040 1326 1040 1326 1154 1326 c 0,89,90
 1301 1326 1301 1326 1403.5 1304 c 128,-1,91
 1506 1282 1506 1282 1572 1239 c 1,92,93
 1642 1282 1642 1282 1695 1301 c 128,-1,94
 1748 1320 1748 1320 1775 1320 c 0,95,96
 1782 1320 1782 1320 1787.5 1318 c 128,-1,97
 1793 1316 1793 1316 1794 1310 c 256,98,99
 1795 1304 1795 1304 1790 1300.5 c 128,-1,100
 1785 1297 1785 1297 1769 1295 c 1,101,102
 1728 1287 1728 1287 1687 1267 c 128,-1,103
 1646 1247 1646 1247 1603 1216 c 1,104,105
 1654 1172 1654 1172 1677.5 1113.5 c 128,-1,106
 1701 1055 1701 1055 1701 981 c 0,107,108
 1701 916 1701 916 1677.5 855.5 c 128,-1,109
 1654 795 1654 795 1614 742.5 c 128,-1,110
 1574 690 1574 690 1520 647 c 128,-1,111
 1466 604 1466 604 1405 573.5 c 128,-1,112
 1344 543 1344 543 1279.5 526 c 128,-1,113
 1215 509 1215 509 1153 509 c 0,114,115
 1073 509 1073 509 1015 522 c 1,116,117
 896 368 896 368 792 263 c 128,-1,118
 688 158 688 158 597 94 c 128,-1,119
 506 30 506 30 427.5 2 c 128,-1,120
 349 -26 349 -26 280 -26 c 0,121,122
 227 -26 227 -26 188.5 -13 c 128,-1,123
 150 0 150 0 124.5 21 c 128,-1,124
 99 42 99 42 87 68.5 c 128,-1,125
 75 95 75 95 75 122 c 0,0,1
1035 549 m 1,126,127
 1090 538 1090 538 1149 538 c 0,128,129
 1199 538 1199 538 1251.5 556.5 c 128,-1,130
 1304 575 1304 575 1353.5 607.5 c 128,-1,131
 1403 640 1403 640 1447 685 c 128,-1,132
 1491 730 1491 730 1523.5 783.5 c 128,-1,133
 1556 837 1556 837 1575 897 c 128,-1,134
 1594 957 1594 957 1594 1020 c 0,135,136
 1594 1112 1594 1112 1549 1173 c 1,137,138
 1452 1091 1452 1091 1348 964.5 c 128,-1,139
 1244 838 1244 838 1128 675 c 0,140,141
 1080 607 1080 607 1035 549 c 1,126,127
EndSplineSet
EndChar

StartChar: Q
Encoding: 81 81 47
Width: 1377
Flags: W
LayerCount: 2
Fore
SplineSet
140 78 m 0,0,1
 140 93 140 93 156 108.5 c 128,-1,2
 172 124 172 124 200 136.5 c 128,-1,3
 228 149 228 149 265.5 156.5 c 128,-1,4
 303 164 303 164 347 164 c 0,5,6
 394 164 394 164 448.5 158 c 128,-1,7
 503 152 503 152 560.5 140.5 c 128,-1,8
 618 129 618 129 677.5 113 c 128,-1,9
 737 97 737 97 794 78 c 1,10,11
 836 95 836 95 875.5 116 c 128,-1,12
 915 137 915 137 955 160 c 0,13,14
 1031 204 1031 204 1110.5 271.5 c 128,-1,15
 1190 339 1190 339 1265 419 c 128,-1,16
 1340 499 1340 499 1406.5 586.5 c 128,-1,17
 1473 674 1473 674 1522.5 759 c 128,-1,18
 1572 844 1572 844 1600.5 920.5 c 128,-1,19
 1629 997 1629 997 1629 1055 c 0,20,21
 1629 1171 1629 1171 1564 1238 c 128,-1,22
 1499 1305 1499 1305 1361 1305 c 0,23,24
 1287 1305 1287 1305 1213 1279 c 128,-1,25
 1139 1253 1139 1253 1069 1211 c 0,26,27
 1011 1176 1011 1176 952.5 1127 c 128,-1,28
 894 1078 894 1078 840.5 1022 c 128,-1,29
 787 966 787 966 740.5 906 c 128,-1,30
 694 846 694 846 659.5 790 c 128,-1,31
 625 734 625 734 605.5 685 c 128,-1,32
 586 636 586 636 586 601 c 0,33,34
 586 574 586 574 594 547.5 c 128,-1,35
 602 521 602 521 621.5 499.5 c 128,-1,36
 641 478 641 478 673.5 465 c 128,-1,37
 706 452 706 452 755 452 c 0,38,39
 794 452 794 452 849 479.5 c 128,-1,40
 904 507 904 507 964.5 554 c 128,-1,41
 1025 601 1025 601 1086 662.5 c 128,-1,42
 1147 724 1147 724 1198.5 793 c 128,-1,43
 1250 862 1250 862 1287 933 c 128,-1,44
 1324 1004 1324 1004 1336 1069 c 0,45,46
 1339 1088 1339 1088 1341 1093 c 128,-1,47
 1343 1098 1343 1098 1346 1098 c 0,48,49
 1351 1098 1351 1098 1356 1093 c 128,-1,50
 1361 1088 1361 1088 1361 1068 c 0,51,52
 1361 993 1361 993 1332.5 916.5 c 128,-1,53
 1304 840 1304 840 1256 769 c 128,-1,54
 1208 698 1208 698 1145 635.5 c 128,-1,55
 1082 573 1082 573 1014 526.5 c 128,-1,56
 946 480 946 480 877 453.5 c 128,-1,57
 808 427 808 427 748 427 c 0,58,59
 695 427 695 427 654 443.5 c 128,-1,60
 613 460 613 460 585 489.5 c 128,-1,61
 557 519 557 519 543 559.5 c 128,-1,62
 529 600 529 600 529 647 c 0,63,64
 529 709 529 709 554.5 779.5 c 128,-1,65
 580 850 580 850 632 923.5 c 128,-1,66
 684 997 684 997 763 1070 c 128,-1,67
 842 1143 842 1143 949 1210 c 0,68,69
 995 1238 995 1238 1048 1260 c 128,-1,70
 1101 1282 1101 1282 1156.5 1297 c 128,-1,71
 1212 1312 1212 1312 1267 1320 c 128,-1,72
 1322 1328 1322 1328 1371 1328 c 0,73,74
 1434 1328 1434 1328 1489.5 1309 c 128,-1,75
 1545 1290 1545 1290 1587 1250 c 128,-1,76
 1629 1210 1629 1210 1653 1149 c 128,-1,77
 1677 1088 1677 1088 1677 1004 c 0,78,79
 1677 905 1677 905 1647 807.5 c 128,-1,80
 1617 710 1617 710 1563 618 c 128,-1,81
 1509 526 1509 526 1434 441.5 c 128,-1,82
 1359 357 1359 357 1268 284.5 c 128,-1,83
 1177 212 1177 212 1073 153.5 c 128,-1,84
 969 95 969 95 858 55 c 1,85,-1
 936 22 l 1,86,87
 1070 -41 1070 -41 1175 -85 c 128,-1,88
 1280 -129 1280 -129 1361 -156.5 c 128,-1,89
 1442 -184 1442 -184 1503 -196.5 c 128,-1,90
 1564 -209 1564 -209 1611 -209 c 0,91,92
 1673 -209 1673 -209 1727 -191.5 c 128,-1,93
 1781 -174 1781 -174 1813 -150 c 0,94,95
 1833 -134 1833 -134 1839.5 -128.5 c 128,-1,96
 1846 -123 1846 -123 1850 -120 c 0,97,98
 1858 -114 1858 -114 1862 -114 c 0,99,100
 1867 -114 1867 -114 1870.5 -117.5 c 128,-1,101
 1874 -121 1874 -121 1874 -126 c 256,102,103
 1874 -131 1874 -131 1863 -142 c 128,-1,104
 1852 -153 1852 -153 1834 -166.5 c 128,-1,105
 1816 -180 1816 -180 1791.5 -193.5 c 128,-1,106
 1767 -207 1767 -207 1740 -216 c 0,107,108
 1701 -230 1701 -230 1654.5 -239 c 128,-1,109
 1608 -248 1608 -248 1568 -248 c 0,110,111
 1501 -248 1501 -248 1433 -240 c 128,-1,112
 1365 -232 1365 -232 1288.5 -212.5 c 128,-1,113
 1212 -193 1212 -193 1123.5 -159 c 128,-1,114
 1035 -125 1035 -125 928 -74 c 0,115,116
 872 -47 872 -47 824.5 -24.5 c 128,-1,117
 777 -2 777 -2 735 16 c 1,118,119
 663 -2 663 -2 589.5 -12 c 128,-1,120
 516 -22 516 -22 443 -22 c 0,121,122
 362 -22 362 -22 304.5 -13 c 128,-1,123
 247 -4 247 -4 210.5 10 c 128,-1,124
 174 24 174 24 157 42 c 128,-1,125
 140 60 140 60 140 78 c 0,0,1
205 87 m 0,126,127
 205 66 205 66 222.5 50 c 128,-1,128
 240 34 240 34 271 23.5 c 128,-1,129
 302 13 302 13 345.5 7.5 c 128,-1,130
 389 2 389 2 440 2 c 0,131,132
 507 2 507 2 567.5 11.5 c 128,-1,133
 628 21 628 21 686 38 c 1,134,135
 619 67 619 67 568 86.5 c 128,-1,136
 517 106 517 106 475.5 117.5 c 128,-1,137
 434 129 434 129 401 133.5 c 128,-1,138
 368 138 368 138 337 138 c 0,139,140
 267 138 267 138 236 122.5 c 128,-1,141
 205 107 205 107 205 87 c 0,126,127
EndSplineSet
EndChar

StartChar: R
Encoding: 82 82 48
Width: 1468
Flags: W
LayerCount: 2
Fore
SplineSet
35 106 m 2,0,1
 35 88 35 88 46 69.5 c 128,-1,2
 57 51 57 51 77 36 c 128,-1,3
 97 21 97 21 126 11.5 c 128,-1,4
 155 2 155 2 192 2 c 0,5,6
 235 2 235 2 274 10.5 c 128,-1,7
 313 19 313 19 354.5 43 c 128,-1,8
 396 67 396 67 443 109.5 c 128,-1,9
 490 152 490 152 549 219.5 c 128,-1,10
 608 287 608 287 681.5 382.5 c 128,-1,11
 755 478 755 478 850 608 c 0,12,13
 928 715 928 715 1006 802 c 128,-1,14
 1084 889 1084 889 1162.5 961.5 c 128,-1,15
 1241 1034 1241 1034 1321.5 1094.5 c 128,-1,16
 1402 1155 1402 1155 1485 1209 c 1,17,-1
 1523 1231 l 1,18,19
 1463 1269 1463 1269 1374.5 1289 c 128,-1,20
 1286 1309 1286 1309 1174 1309 c 0,21,22
 1067 1309 1067 1309 967 1283.5 c 128,-1,23
 867 1258 867 1258 779 1215 c 128,-1,24
 691 1172 691 1172 619 1115 c 128,-1,25
 547 1058 547 1058 495.5 994.5 c 128,-1,26
 444 931 444 931 417 866 c 128,-1,27
 390 801 390 801 392 741 c 0,28,29
 393 701 393 701 405.5 674 c 128,-1,30
 418 647 418 647 437.5 630.5 c 128,-1,31
 457 614 457 614 482.5 606.5 c 128,-1,32
 508 599 508 599 535 599 c 0,33,34
 577 599 577 599 630.5 630 c 128,-1,35
 684 661 684 661 740 710.5 c 128,-1,36
 796 760 796 760 849.5 821 c 128,-1,37
 903 882 903 882 946 942.5 c 128,-1,38
 989 1003 989 1003 1016.5 1056.5 c 128,-1,39
 1044 1110 1044 1110 1048 1143 c 0,40,41
 1050 1163 1050 1163 1053.5 1170 c 128,-1,42
 1057 1177 1057 1177 1062 1177 c 0,43,44
 1070 1177 1070 1177 1072 1146 c 0,45,46
 1074 1089 1074 1089 1051.5 1025 c 128,-1,47
 1029 961 1029 961 988.5 897 c 128,-1,48
 948 833 948 833 894 774.5 c 128,-1,49
 840 716 840 716 779.5 671.5 c 128,-1,50
 719 627 719 627 655 600 c 128,-1,51
 591 573 591 573 532 573 c 0,52,53
 496 573 496 573 465.5 584.5 c 128,-1,54
 435 596 435 596 412.5 617.5 c 128,-1,55
 390 639 390 639 376.5 669 c 128,-1,56
 363 699 363 699 362 736 c 0,57,58
 359 808 359 808 390 880.5 c 128,-1,59
 421 953 421 953 477.5 1019.5 c 128,-1,60
 534 1086 534 1086 613 1144 c 128,-1,61
 692 1202 692 1202 784.5 1245 c 128,-1,62
 877 1288 877 1288 980 1312.5 c 128,-1,63
 1083 1337 1083 1337 1189 1337 c 0,64,65
 1301 1337 1301 1337 1393 1314 c 128,-1,66
 1485 1291 1485 1291 1553 1247 c 1,67,68
 1628 1285 1628 1285 1682.5 1302.5 c 128,-1,69
 1737 1320 1737 1320 1765 1320 c 0,70,71
 1771 1320 1771 1320 1776.5 1318 c 128,-1,72
 1782 1316 1782 1316 1783 1310 c 0,73,74
 1783 1304 1783 1304 1777.5 1300.5 c 128,-1,75
 1772 1297 1772 1297 1757 1295 c 1,76,77
 1680 1279 1680 1279 1588 1222 c 1,78,79
 1643 1177 1643 1177 1673.5 1118 c 128,-1,80
 1704 1059 1704 1059 1707 987 c 0,81,82
 1709 926 1709 926 1681.5 865.5 c 128,-1,83
 1654 805 1654 805 1601.5 751 c 128,-1,84
 1549 697 1549 697 1474.5 653.5 c 128,-1,85
 1400 610 1400 610 1307 583 c 1,86,87
 1336 554 1336 554 1337 507 c 0,88,89
 1338 474 1338 474 1332.5 441.5 c 128,-1,90
 1327 409 1327 409 1306 370.5 c 128,-1,91
 1285 332 1285 332 1245.5 283.5 c 128,-1,92
 1206 235 1206 235 1140 169 c 1,93,94
 1107 140 1107 140 1095 116.5 c 128,-1,95
 1083 93 1083 93 1084 73 c 0,96,97
 1085 44 1085 44 1102.5 23 c 128,-1,98
 1120 2 1120 2 1167 2 c 0,99,100
 1228 2 1228 2 1295 35.5 c 128,-1,101
 1362 69 1362 69 1424.5 128 c 128,-1,102
 1487 187 1487 187 1540 268 c 128,-1,103
 1593 349 1593 349 1627 444 c 1,104,105
 1633 473 1633 473 1640 473 c 0,106,107
 1658 473 1658 473 1658 446 c 0,108,109
 1659 389 1659 389 1636 332.5 c 128,-1,110
 1613 276 1613 276 1574 223.5 c 128,-1,111
 1535 171 1535 171 1484 125.5 c 128,-1,112
 1433 80 1433 80 1378 46.5 c 128,-1,113
 1323 13 1323 13 1267 -6 c 128,-1,114
 1211 -25 1211 -25 1162 -25 c 0,115,116
 1092 -25 1092 -25 1055 8 c 128,-1,117
 1018 41 1018 41 1016 95 c 256,118,119
 1014 149 1014 149 1028.5 194.5 c 128,-1,120
 1043 240 1043 240 1067.5 279.5 c 128,-1,121
 1092 319 1092 319 1123 353 c 128,-1,122
 1154 387 1154 387 1185 418 c 1,123,124
 1210 440 1210 440 1226 457.5 c 128,-1,125
 1242 475 1242 475 1251 490 c 128,-1,126
 1260 505 1260 505 1262.5 518 c 128,-1,127
 1265 531 1265 531 1265 544 c 1,128,129
 1263 561 1263 561 1258 570 c 1,130,131
 1234 565 1234 565 1211.5 562.5 c 128,-1,132
 1189 560 1189 560 1170 560 c 0,133,134
 1128 560 1128 560 1106 571 c 128,-1,135
 1084 582 1084 582 1083 597 c 0,136,137
 1082 608 1082 608 1101 619.5 c 128,-1,138
 1120 631 1120 631 1158 631 c 0,139,140
 1190 631 1190 631 1220.5 625.5 c 128,-1,141
 1251 620 1251 620 1276 606 c 1,142,143
 1321 625 1321 625 1364.5 655.5 c 128,-1,144
 1408 686 1408 686 1446.5 724.5 c 128,-1,145
 1485 763 1485 763 1517.5 807 c 128,-1,146
 1550 851 1550 851 1573 896 c 128,-1,147
 1596 941 1596 941 1608.5 985.5 c 128,-1,148
 1621 1030 1621 1030 1620 1069 c 0,149,150
 1618 1109 1618 1109 1602.5 1142.5 c 128,-1,151
 1587 1176 1587 1176 1559 1202 c 1,152,153
 1442 1123 1442 1123 1315 988 c 128,-1,154
 1188 853 1188 853 1063 675 c 1,155,156
 921 476 921 476 798.5 341.5 c 128,-1,157
 676 207 676 207 570.5 125.5 c 128,-1,158
 465 44 465 44 374 9 c 128,-1,159
 283 -26 283 -26 205 -26 c 0,160,161
 152 -26 152 -26 113 -13 c 128,-1,162
 74 0 74 0 48 21 c 128,-1,163
 22 42 22 42 8.5 68.5 c 128,-1,164
 -5 95 -5 95 -6 122 c 0,165,166
 -7 137 -7 137 -2 150.5 c 128,-1,167
 3 164 3 164 11.5 174.5 c 128,-1,168
 20 185 20 185 31.5 191 c 128,-1,169
 43 197 43 197 56 197 c 0,170,171
 91 197 91 197 92 163 c 0,172,173
 93 147 93 147 77 133.5 c 128,-1,174
 61 120 61 120 35 114 c 1,175,-1
 35 106 l 2,0,1
1119 599 m 0,176,177
 1119 594 1119 594 1130.5 588 c 128,-1,178
 1142 582 1142 582 1164 582 c 0,179,180
 1202 582 1202 582 1236 592 c 1,181,182
 1210 608 1210 608 1158 608 c 0,183,184
 1119 608 1119 608 1119 599 c 0,176,177
EndSplineSet
EndChar

StartChar: S
Encoding: 83 83 49
Width: 1132
Flags: W
LayerCount: 2
Fore
SplineSet
166 114 m 0,0,1
 166 146 166 146 185 166 c 128,-1,2
 204 186 204 186 230 186 c 0,3,4
 250 186 250 186 262 175 c 128,-1,5
 274 164 274 164 274 145 c 256,6,7
 274 126 274 126 259 112.5 c 128,-1,8
 244 99 244 99 224 99 c 0,9,10
 213 99 213 99 209 101 c 1,11,-1
 209 98 l 2,12,13
 209 83 209 83 220 65.5 c 128,-1,14
 231 48 231 48 253.5 33 c 128,-1,15
 276 18 276 18 310 8 c 128,-1,16
 344 -2 344 -2 389 -2 c 0,17,18
 455 -2 455 -2 525 32.5 c 128,-1,19
 595 67 595 67 668 133 c 0,20,21
 708 168 708 168 746 213 c 128,-1,22
 784 258 784 258 822.5 314 c 128,-1,23
 861 370 861 370 900.5 438 c 128,-1,24
 940 506 940 506 984 588 c 1,25,-1
 990 600 l 1,26,-1
 983 600 l 2,27,28
 868 600 868 600 773 625 c 128,-1,29
 678 650 678 650 609.5 695 c 128,-1,30
 541 740 541 740 503.5 801.5 c 128,-1,31
 466 863 466 863 466 936 c 0,32,33
 466 1020 466 1020 513.5 1091.5 c 128,-1,34
 561 1163 561 1163 643.5 1215 c 128,-1,35
 726 1267 726 1267 837 1296.5 c 128,-1,36
 948 1326 948 1326 1075 1326 c 0,37,38
 1111 1326 1111 1326 1143.5 1322 c 128,-1,39
 1176 1318 1176 1318 1201.5 1312 c 128,-1,40
 1227 1306 1227 1306 1242 1298.5 c 128,-1,41
 1257 1291 1257 1291 1257 1285 c 0,42,43
 1257 1281 1257 1281 1246 1281 c 0,44,45
 1239 1281 1239 1281 1232.5 1282 c 128,-1,46
 1226 1283 1226 1283 1218 1285 c 0,47,48
 1186 1293 1186 1293 1153.5 1298 c 128,-1,49
 1121 1303 1121 1303 1076 1303 c 0,50,51
 968 1303 968 1303 869.5 1272.5 c 128,-1,52
 771 1242 771 1242 696 1188.5 c 128,-1,53
 621 1135 621 1135 576 1061.5 c 128,-1,54
 531 988 531 988 531 901 c 0,55,56
 531 856 531 856 557 807.5 c 128,-1,57
 583 759 583 759 640 718.5 c 128,-1,58
 697 678 697 678 786.5 651.5 c 128,-1,59
 876 625 876 625 1003 624 c 1,60,61
 1104 810 1104 810 1207 942.5 c 128,-1,62
 1310 1075 1310 1075 1407.5 1160.5 c 128,-1,63
 1505 1246 1505 1246 1592 1286 c 128,-1,64
 1679 1326 1679 1326 1749 1326 c 0,65,66
 1806 1326 1806 1326 1829.5 1302.5 c 128,-1,67
 1853 1279 1853 1279 1853 1244 c 0,68,69
 1853 1196 1853 1196 1819 1122 c 128,-1,70
 1785 1048 1785 1048 1717 966 c 128,-1,71
 1649 884 1649 884 1546.5 804 c 128,-1,72
 1444 724 1444 724 1308 664 c 1,73,74
 1258 638 1258 638 1214.5 625 c 128,-1,75
 1171 612 1171 612 1127 606 c 1,76,77
 1080 516 1080 516 1035.5 445.5 c 128,-1,78
 991 375 991 375 944.5 316.5 c 128,-1,79
 898 258 898 258 846.5 209 c 128,-1,80
 795 160 795 160 734 113 c 0,81,82
 643 42 643 42 555 8 c 128,-1,83
 467 -26 467 -26 387 -26 c 0,84,85
 333 -26 333 -26 292 -13.5 c 128,-1,86
 251 -1 251 -1 223 19 c 128,-1,87
 195 39 195 39 180.5 64 c 128,-1,88
 166 89 166 89 166 114 c 0,0,1
1142 636 m 1,89,90
 1184 644 1184 644 1226 660 c 128,-1,91
 1268 676 1268 676 1318 702 c 0,92,93
 1395 741 1395 741 1460.5 790.5 c 128,-1,94
 1526 840 1526 840 1579.5 893 c 128,-1,95
 1633 946 1633 946 1674 1000 c 128,-1,96
 1715 1054 1715 1054 1742.5 1102 c 128,-1,97
 1770 1150 1770 1150 1784 1189.5 c 128,-1,98
 1798 1229 1798 1229 1798 1253 c 0,99,100
 1798 1273 1798 1273 1785 1288.5 c 128,-1,101
 1772 1304 1772 1304 1745 1304 c 0,102,103
 1685 1304 1685 1304 1616.5 1268.5 c 128,-1,104
 1548 1233 1548 1233 1477 1164 c 128,-1,105
 1406 1095 1406 1095 1336.5 994 c 128,-1,106
 1267 893 1267 893 1204 761 c 0,107,108
 1188 727 1188 727 1172.5 696 c 128,-1,109
 1157 665 1157 665 1142 636 c 1,89,90
EndSplineSet
EndChar

StartChar: T
Encoding: 84 84 50
Width: 1116
Flags: W
LayerCount: 2
Fore
SplineSet
828 732 m 0,0,1
 752 732 752 732 710.5 773 c 128,-1,2
 669 814 669 814 669 883 c 0,3,4
 669 932 669 932 701 988 c 128,-1,5
 733 1044 733 1044 789.5 1098.5 c 128,-1,6
 846 1153 846 1153 924.5 1200.5 c 128,-1,7
 1003 1248 1003 1248 1096 1280 c 0,8,9
 1130 1292 1130 1292 1175 1300.5 c 128,-1,10
 1220 1309 1220 1309 1268 1314.5 c 128,-1,11
 1316 1320 1316 1320 1363.5 1323 c 128,-1,12
 1411 1326 1411 1326 1452 1326 c 0,13,14
 1489 1326 1489 1326 1527 1323.5 c 128,-1,15
 1565 1321 1565 1321 1600.5 1316.5 c 128,-1,16
 1636 1312 1636 1312 1667 1307 c 128,-1,17
 1698 1302 1698 1302 1721 1298 c 0,18,19
 1749 1293 1749 1293 1779 1289.5 c 128,-1,20
 1809 1286 1809 1286 1837.5 1283.5 c 128,-1,21
 1866 1281 1866 1281 1889.5 1279.5 c 128,-1,22
 1913 1278 1913 1278 1927 1278 c 0,23,24
 1981 1278 1981 1278 2034.5 1292.5 c 128,-1,25
 2088 1307 2088 1307 2135.5 1330.5 c 128,-1,26
 2183 1354 2183 1354 2220 1384.5 c 128,-1,27
 2257 1415 2257 1415 2278 1448 c 0,28,29
 2285 1459 2285 1459 2289 1462 c 128,-1,30
 2293 1465 2293 1465 2297 1465 c 0,31,32
 2307 1465 2307 1465 2307 1455 c 0,33,34
 2307 1449 2307 1449 2299 1434.5 c 128,-1,35
 2291 1420 2291 1420 2274 1400 c 0,36,37
 2238 1356 2238 1356 2181 1319.5 c 128,-1,38
 2124 1283 2124 1283 2054 1256 c 128,-1,39
 1984 1229 1984 1229 1904.5 1214 c 128,-1,40
 1825 1199 1825 1199 1743 1199 c 0,41,42
 1719 1199 1719 1199 1692.5 1200.5 c 128,-1,43
 1666 1202 1666 1202 1635 1206 c 128,-1,44
 1604 1210 1604 1210 1566 1216.5 c 128,-1,45
 1528 1223 1528 1223 1482 1233 c 1,46,47
 1403 1248 1403 1248 1335 1255 c 128,-1,48
 1267 1262 1267 1262 1222 1262 c 0,49,50
 1164 1262 1164 1262 1102.5 1245 c 128,-1,51
 1041 1228 1041 1228 982.5 1199 c 128,-1,52
 924 1170 924 1170 872 1132 c 128,-1,53
 820 1094 820 1094 781 1051 c 128,-1,54
 742 1008 742 1008 719 963.5 c 128,-1,55
 696 919 696 919 696 877 c 0,56,57
 696 830 696 830 726 796.5 c 128,-1,58
 756 763 756 763 818 763 c 0,59,60
 855 763 855 763 898.5 784 c 128,-1,61
 942 805 942 805 986 839.5 c 128,-1,62
 1030 874 1030 874 1071.5 917.5 c 128,-1,63
 1113 961 1113 961 1147 1006 c 128,-1,64
 1181 1051 1181 1051 1204.5 1093 c 128,-1,65
 1228 1135 1228 1135 1236 1167 c 0,66,67
 1240 1184 1240 1184 1242 1187.5 c 128,-1,68
 1244 1191 1244 1191 1248 1191 c 256,69,70
 1252 1191 1252 1191 1255 1186.5 c 128,-1,71
 1258 1182 1258 1182 1258 1167 c 0,72,73
 1258 1113 1258 1113 1239 1059.5 c 128,-1,74
 1220 1006 1220 1006 1187.5 957.5 c 128,-1,75
 1155 909 1155 909 1112 868 c 128,-1,76
 1069 827 1069 827 1021.5 796.5 c 128,-1,77
 974 766 974 766 924 749 c 128,-1,78
 874 732 874 732 828 732 c 0,0,1
44 143 m 0,79,80
 44 158 44 158 49 172 c 128,-1,81
 54 186 54 186 62.5 197 c 128,-1,82
 71 208 71 208 83 214.5 c 128,-1,83
 95 221 95 221 110 221 c 0,84,85
 130 221 130 221 142.5 211.5 c 128,-1,86
 155 202 155 202 155 185 c 0,87,88
 155 165 155 165 140 154 c 128,-1,89
 125 143 125 143 110 143 c 0,90,91
 93 143 93 143 79 150 c 1,92,93
 78 145 78 145 78 139.5 c 128,-1,94
 78 134 78 134 78 128 c 0,95,96
 78 104 78 104 97 81.5 c 128,-1,97
 116 59 116 59 148.5 41.5 c 128,-1,98
 181 24 181 24 224.5 13 c 128,-1,99
 268 2 268 2 317 2 c 0,100,101
 390 2 390 2 466.5 29 c 128,-1,102
 543 56 543 56 619.5 110 c 128,-1,103
 696 164 696 164 770.5 245.5 c 128,-1,104
 845 327 845 327 915 437 c 0,105,106
 957 504 957 504 1011 573.5 c 128,-1,107
 1065 643 1065 643 1131 720 c 0,108,109
 1215 817 1215 817 1293.5 893.5 c 128,-1,110
 1372 970 1372 970 1435.5 1023 c 128,-1,111
 1499 1076 1499 1076 1543.5 1104.5 c 128,-1,112
 1588 1133 1588 1133 1603 1133 c 0,113,114
 1617 1133 1617 1133 1617 1124 c 0,115,116
 1617 1117 1617 1117 1613 1113 c 128,-1,117
 1609 1109 1609 1109 1598 1102 c 0,118,119
 1563 1079 1563 1079 1536 1059.5 c 128,-1,120
 1509 1040 1509 1040 1485 1018 c 128,-1,121
 1461 996 1461 996 1437.5 968.5 c 128,-1,122
 1414 941 1414 941 1386 902 c 128,-1,123
 1358 863 1358 863 1323 810 c 128,-1,124
 1288 757 1288 757 1241 684 c 0,125,126
 1113 487 1113 487 991.5 351.5 c 128,-1,127
 870 216 870 216 753.5 132 c 128,-1,128
 637 48 637 48 526 11 c 128,-1,129
 415 -26 415 -26 309 -26 c 0,130,131
 252 -26 252 -26 203.5 -12 c 128,-1,132
 155 2 155 2 119.5 25 c 128,-1,133
 84 48 84 48 64 79 c 128,-1,134
 44 110 44 110 44 143 c 0,79,80
EndSplineSet
EndChar

StartChar: U
Encoding: 85 85 51
Width: 1195
Flags: W
LayerCount: 2
Fore
SplineSet
310 57 m 0,0,1
 310 107 310 107 338.5 174 c 128,-1,2
 367 241 367 241 429.5 327.5 c 128,-1,3
 492 414 492 414 591.5 521 c 128,-1,4
 691 628 691 628 834 758 c 0,5,6
 939 853 939 853 1006.5 921.5 c 128,-1,7
 1074 990 1074 990 1113.5 1039 c 128,-1,8
 1153 1088 1153 1088 1168 1122.5 c 128,-1,9
 1183 1157 1183 1157 1183 1185 c 0,10,11
 1183 1250 1183 1250 1133 1278 c 128,-1,12
 1083 1306 1083 1306 992 1306 c 0,13,14
 921 1306 921 1306 846 1284 c 128,-1,15
 771 1262 771 1262 699.5 1226 c 128,-1,16
 628 1190 628 1190 564.5 1143 c 128,-1,17
 501 1096 501 1096 453.5 1046 c 128,-1,18
 406 996 406 996 378 946.5 c 128,-1,19
 350 897 350 897 350 856 c 0,20,21
 350 808 350 808 377 783 c 128,-1,22
 404 758 404 758 446 758 c 0,23,24
 480 758 480 758 527.5 779 c 128,-1,25
 575 800 575 800 628 835.5 c 128,-1,26
 681 871 681 871 736 918.5 c 128,-1,27
 791 966 791 966 841 1019 c 128,-1,28
 891 1072 891 1072 931.5 1127 c 128,-1,29
 972 1182 972 1182 997 1234 c 0,30,31
 1005 1251 1005 1251 1008.5 1257 c 128,-1,32
 1012 1263 1012 1263 1016 1263 c 0,33,34
 1024 1263 1024 1263 1024 1246 c 0,35,36
 1024 1231 1024 1231 1013 1193.5 c 128,-1,37
 1002 1156 1002 1156 980 1112 c 0,38,39
 935 1025 935 1025 872.5 954.5 c 128,-1,40
 810 884 810 884 740.5 833.5 c 128,-1,41
 671 783 671 783 600 755.5 c 128,-1,42
 529 728 529 728 469 728 c 0,43,44
 397 728 397 728 359.5 759 c 128,-1,45
 322 790 322 790 322 846 c 0,46,47
 322 897 322 897 351.5 953 c 128,-1,48
 381 1009 381 1009 432 1063.5 c 128,-1,49
 483 1118 483 1118 551 1167 c 128,-1,50
 619 1216 619 1216 696.5 1253 c 128,-1,51
 774 1290 774 1290 856 1312 c 128,-1,52
 938 1334 938 1334 1017 1334 c 0,53,54
 1056 1334 1056 1334 1091.5 1325 c 128,-1,55
 1127 1316 1127 1316 1153 1298 c 128,-1,56
 1179 1280 1179 1280 1194.5 1253.5 c 128,-1,57
 1210 1227 1210 1227 1210 1191 c 0,58,59
 1210 1161 1210 1161 1201.5 1124.5 c 128,-1,60
 1193 1088 1193 1088 1171.5 1041.5 c 128,-1,61
 1150 995 1150 995 1112.5 937.5 c 128,-1,62
 1075 880 1075 880 1017 807.5 c 128,-1,63
 959 735 959 735 878 647 c 128,-1,64
 797 559 797 559 688 452 c 0,65,66
 576 342 576 342 508 271.5 c 128,-1,67
 440 201 440 201 403.5 157 c 128,-1,68
 367 113 367 113 355 89 c 128,-1,69
 343 65 343 65 343 47 c 0,70,71
 343 25 343 25 357 13.5 c 128,-1,72
 371 2 371 2 404 2 c 0,73,74
 449 2 449 2 522.5 30 c 128,-1,75
 596 58 596 58 687 116 c 128,-1,76
 778 174 778 174 879.5 262 c 128,-1,77
 981 350 981 350 1082 469 c 0,78,79
 1102 493 1102 493 1138 534.5 c 128,-1,80
 1174 576 1174 576 1222 630.5 c 128,-1,81
 1270 685 1270 685 1328 750.5 c 128,-1,82
 1386 816 1386 816 1451 888.5 c 128,-1,83
 1516 961 1516 961 1586.5 1038.5 c 128,-1,84
 1657 1116 1657 1116 1729 1194 c 1,85,-1
 1870 1194 l 1,86,87
 1864 1187 1864 1187 1839 1159 c 128,-1,88
 1814 1131 1814 1131 1776 1088.5 c 128,-1,89
 1738 1046 1738 1046 1690.5 992.5 c 128,-1,90
 1643 939 1643 939 1591 881.5 c 128,-1,91
 1539 824 1539 824 1486.5 766.5 c 128,-1,92
 1434 709 1434 709 1387 658 c 128,-1,93
 1340 607 1340 607 1301.5 566 c 128,-1,94
 1263 525 1263 525 1239 501 c 0,95,96
 1168 429 1168 429 1112.5 365 c 128,-1,97
 1057 301 1057 301 1019 245.5 c 128,-1,98
 981 190 981 190 960.5 144.5 c 128,-1,99
 940 99 940 99 940 65 c 0,100,101
 940 47 940 47 947.5 35 c 128,-1,102
 955 23 955 23 967 15.5 c 128,-1,103
 979 8 979 8 993 5 c 128,-1,104
 1007 2 1007 2 1019 2 c 0,105,106
 1064 2 1064 2 1124 28.5 c 128,-1,107
 1184 55 1184 55 1242 112 c 1,108,109
 1247 109 1247 109 1247 96 c 0,110,111
 1247 89 1247 89 1245.5 84 c 128,-1,112
 1244 79 1244 79 1242 77 c 0,113,114
 1190 32 1190 32 1127.5 3 c 128,-1,115
 1065 -26 1065 -26 1009 -26 c 0,116,117
 987 -26 987 -26 967.5 -20 c 128,-1,118
 948 -14 948 -14 933 -2 c 128,-1,119
 918 10 918 10 909.5 28 c 128,-1,120
 901 46 901 46 901 70 c 0,121,122
 901 90 901 90 907 116 c 128,-1,123
 913 142 913 142 923.5 170 c 128,-1,124
 934 198 934 198 946.5 226.5 c 128,-1,125
 959 255 959 255 973 281 c 1,126,127
 858 193 858 193 768 134 c 128,-1,128
 678 75 678 75 608.5 39.5 c 128,-1,129
 539 4 539 4 488.5 -11 c 128,-1,130
 438 -26 438 -26 402 -26 c 0,131,132
 355 -26 355 -26 332.5 -2.5 c 128,-1,133
 310 21 310 21 310 57 c 0,0,1
EndSplineSet
EndChar

StartChar: V
Encoding: 86 86 52
Width: 1021
Flags: W
LayerCount: 2
Fore
SplineSet
112 -60 m 0,0,1
 112 -54 112 -54 126 -46 c 0,2,3
 131 -43 131 -43 139.5 -38.5 c 128,-1,4
 148 -34 148 -34 157 -27 c 0,5,6
 229 25 229 25 330 165 c 128,-1,7
 431 305 431 305 576 526 c 0,8,9
 626 603 626 603 678 675.5 c 128,-1,10
 730 748 730 748 780.5 813 c 128,-1,11
 831 878 831 878 878.5 934 c 128,-1,12
 926 990 926 990 967 1033 c 1,13,14
 919 1001 919 1001 873 975.5 c 128,-1,15
 827 950 827 950 785.5 932 c 128,-1,16
 744 914 744 914 709 904.5 c 128,-1,17
 674 895 674 895 648 895 c 0,18,19
 604 895 604 895 577 918 c 128,-1,20
 550 941 550 941 550 984 c 0,21,22
 550 1023 550 1023 573.5 1061 c 128,-1,23
 597 1099 597 1099 647 1148 c 0,24,25
 662 1163 662 1163 680.5 1180.5 c 128,-1,26
 699 1198 699 1198 715 1215.5 c 128,-1,27
 731 1233 731 1233 741.5 1250 c 128,-1,28
 752 1267 752 1267 752 1281 c 0,29,30
 752 1297 752 1297 741 1310.5 c 128,-1,31
 730 1324 730 1324 712.5 1334 c 128,-1,32
 695 1344 695 1344 673 1350 c 128,-1,33
 651 1356 651 1356 629 1356 c 0,34,35
 558 1356 558 1356 493.5 1326 c 128,-1,36
 429 1296 429 1296 377 1254 c 0,37,38
 369 1248 369 1248 363 1243.5 c 128,-1,39
 357 1239 357 1239 352 1239 c 0,40,41
 341 1239 341 1239 341 1250 c 0,42,43
 341 1258 341 1258 348 1265.5 c 128,-1,44
 355 1273 355 1273 366 1281 c 0,45,46
 418 1323 418 1323 488.5 1350 c 128,-1,47
 559 1377 559 1377 632 1377 c 0,48,49
 671 1377 671 1377 703 1367.5 c 128,-1,50
 735 1358 735 1358 758.5 1341.5 c 128,-1,51
 782 1325 782 1325 795 1303 c 128,-1,52
 808 1281 808 1281 808 1256 c 0,53,54
 808 1235 808 1235 799 1211 c 128,-1,55
 790 1187 790 1187 774 1161 c 128,-1,56
 758 1135 758 1135 736.5 1108.5 c 128,-1,57
 715 1082 715 1082 690 1058 c 0,58,59
 667 1035 667 1035 650.5 1018.5 c 128,-1,60
 634 1002 634 1002 624 990 c 128,-1,61
 614 978 614 978 609.5 969.5 c 128,-1,62
 605 961 605 961 605 954 c 0,63,64
 605 921 605 921 652 921 c 0,65,66
 677 921 677 921 720.5 933 c 128,-1,67
 764 945 764 945 828 978 c 128,-1,68
 892 1011 892 1011 975.5 1069.5 c 128,-1,69
 1059 1128 1059 1128 1163 1221 c 0,70,71
 1173 1230 1173 1230 1189.5 1243.5 c 128,-1,72
 1206 1257 1206 1257 1222.5 1269.5 c 128,-1,73
 1239 1282 1239 1282 1254 1290.5 c 128,-1,74
 1269 1299 1269 1299 1277 1299 c 0,75,76
 1281 1299 1281 1299 1285.5 1297 c 128,-1,77
 1290 1295 1290 1295 1290 1290 c 0,78,79
 1290 1282 1290 1282 1282 1278 c 128,-1,80
 1274 1274 1274 1274 1263 1267 c 0,81,82
 1253 1261 1253 1261 1237 1249 c 128,-1,83
 1221 1237 1221 1237 1194 1211 c 0,84,85
 1165 1184 1165 1184 1140 1147 c 128,-1,86
 1115 1110 1115 1110 1081 1053.5 c 128,-1,87
 1047 997 1047 997 997 917 c 128,-1,88
 947 837 947 837 868 723 c 0,89,90
 785 604 785 604 718 515.5 c 128,-1,91
 651 427 651 427 590.5 356 c 128,-1,92
 530 285 530 285 472 226 c 128,-1,93
 414 167 414 167 350 107 c 1,94,95
 504 216 504 216 658.5 330.5 c 128,-1,96
 813 445 813 445 957.5 557.5 c 128,-1,97
 1102 670 1102 670 1233.5 777.5 c 128,-1,98
 1365 885 1365 885 1474 981 c 1,99,-1
 1474 994 l 2,100,101
 1474 1052 1474 1052 1489 1110.5 c 128,-1,102
 1504 1169 1504 1169 1530 1222 c 128,-1,103
 1556 1275 1556 1275 1589.5 1321 c 128,-1,104
 1623 1367 1623 1367 1659.5 1400.5 c 128,-1,105
 1696 1434 1696 1434 1733.5 1453.5 c 128,-1,106
 1771 1473 1771 1473 1805 1473 c 0,107,108
 1837 1473 1837 1473 1861 1454 c 128,-1,109
 1885 1435 1885 1435 1885 1393 c 0,110,111
 1885 1310 1885 1310 1792 1197.5 c 128,-1,112
 1699 1085 1699 1085 1522 936 c 1,113,114
 1531 899 1531 899 1548.5 871.5 c 128,-1,115
 1566 844 1566 844 1587.5 826 c 128,-1,116
 1609 808 1609 808 1632.5 799.5 c 128,-1,117
 1656 791 1656 791 1677 791 c 0,118,119
 1697 791 1697 791 1709 797 c 1,120,121
 1717 799 1717 799 1721.5 800.5 c 128,-1,122
 1726 802 1726 802 1730 802 c 0,123,124
 1743 802 1743 802 1743 796 c 0,125,126
 1743 785 1743 785 1724 778 c 0,127,128
 1716 774 1716 774 1702.5 771.5 c 128,-1,129
 1689 769 1689 769 1675 769 c 0,130,131
 1609 769 1609 769 1560 808.5 c 128,-1,132
 1511 848 1511 848 1488 909 c 1,133,134
 1378 818 1378 818 1240.5 714.5 c 128,-1,135
 1103 611 1103 611 941 494 c 128,-1,136
 779 377 779 377 593.5 245.5 c 128,-1,137
 408 114 408 114 201 -31 c 0,138,139
 170 -52 170 -52 150.5 -61.5 c 128,-1,140
 131 -71 131 -71 125 -71 c 0,141,142
 120 -71 120 -71 116 -68 c 128,-1,143
 112 -65 112 -65 112 -60 c 0,0,1
1513 1016 m 1,144,145
 1590 1085 1590 1085 1652.5 1146 c 128,-1,146
 1715 1207 1715 1207 1759 1257 c 128,-1,147
 1803 1307 1803 1307 1826.5 1344.5 c 128,-1,148
 1850 1382 1850 1382 1850 1405 c 0,149,150
 1850 1425 1850 1425 1836 1436.5 c 128,-1,151
 1822 1448 1822 1448 1810 1448 c 0,152,153
 1782 1448 1782 1448 1749 1431.5 c 128,-1,154
 1716 1415 1716 1415 1683.5 1386 c 128,-1,155
 1651 1357 1651 1357 1620 1316.5 c 128,-1,156
 1589 1276 1589 1276 1565.5 1228 c 128,-1,157
 1542 1180 1542 1180 1527.5 1126 c 128,-1,158
 1513 1072 1513 1072 1513 1016 c 1,144,145
EndSplineSet
EndChar

StartChar: W
Encoding: 87 87 53
Width: 1212
Flags: W
LayerCount: 2
Fore
SplineSet
54 -51 m 0,0,1
 54 -43 54 -43 62 -38.5 c 128,-1,2
 70 -34 70 -34 98 -27 c 1,3,4
 121 -24 121 -24 144 -10.5 c 128,-1,5
 167 3 167 3 197 34.5 c 128,-1,6
 227 66 227 66 268 120 c 128,-1,7
 309 174 309 174 368 260 c 0,8,9
 407 318 407 318 442.5 367.5 c 128,-1,10
 478 417 478 417 514.5 465.5 c 128,-1,11
 551 514 551 514 591.5 566.5 c 128,-1,12
 632 619 632 619 682 682 c 0,13,14
 728 739 728 739 775.5 793.5 c 128,-1,15
 823 848 823 848 875.5 903.5 c 128,-1,16
 928 959 928 959 986.5 1018 c 128,-1,17
 1045 1077 1045 1077 1113 1142 c 0,18,19
 1132 1160 1132 1160 1160 1187.5 c 128,-1,20
 1188 1215 1188 1215 1217 1243.5 c 128,-1,21
 1246 1272 1246 1272 1271 1296.5 c 128,-1,22
 1296 1321 1296 1321 1308 1333 c 0,23,24
 1328 1353 1328 1353 1346 1365 c 128,-1,25
 1364 1377 1364 1377 1375 1377 c 0,26,27
 1379 1377 1379 1377 1383.5 1375 c 128,-1,28
 1388 1373 1388 1373 1388 1368 c 0,29,30
 1388 1360 1388 1360 1380 1356 c 128,-1,31
 1372 1352 1372 1352 1361 1345 c 0,32,33
 1351 1339 1351 1339 1334.5 1327.5 c 128,-1,34
 1318 1316 1318 1316 1292 1289 c 0,35,36
 1273 1269 1273 1269 1255 1249 c 128,-1,37
 1237 1229 1237 1229 1215 1202.5 c 128,-1,38
 1193 1176 1193 1176 1165 1139.5 c 128,-1,39
 1137 1103 1137 1103 1097.5 1051 c 128,-1,40
 1058 999 1058 999 1005 927.5 c 128,-1,41
 952 856 952 856 881 759 c 0,42,43
 784 628 784 628 698 523.5 c 128,-1,44
 612 419 612 419 529.5 330 c 128,-1,45
 447 241 447 241 363.5 161.5 c 128,-1,46
 280 82 280 82 189 1 c 1,47,48
 229 24 229 24 265.5 47.5 c 128,-1,49
 302 71 302 71 343 101.5 c 128,-1,50
 384 132 384 132 434 173.5 c 128,-1,51
 484 215 484 215 550.5 275.5 c 128,-1,52
 617 336 617 336 704.5 418 c 128,-1,53
 792 500 792 500 909 612 c 0,54,55
 1105 799 1105 799 1248 926.5 c 128,-1,56
 1391 1054 1391 1054 1489 1136.5 c 128,-1,57
 1587 1219 1587 1219 1644 1262 c 128,-1,58
 1701 1305 1701 1305 1725 1323 c 0,59,60
 1752 1343 1752 1343 1770 1355.5 c 128,-1,61
 1788 1368 1788 1368 1800 1374.5 c 128,-1,62
 1812 1381 1812 1381 1818 1383.5 c 128,-1,63
 1824 1386 1824 1386 1827 1386 c 0,64,65
 1835 1386 1835 1386 1838 1381.5 c 128,-1,66
 1841 1377 1841 1377 1841 1372 c 0,67,68
 1841 1368 1841 1368 1839 1365 c 128,-1,69
 1837 1362 1837 1362 1831 1358.5 c 128,-1,70
 1825 1355 1825 1355 1814 1349.5 c 128,-1,71
 1803 1344 1803 1344 1786 1335 c 0,72,73
 1766 1325 1766 1325 1744.5 1308.5 c 128,-1,74
 1723 1292 1723 1292 1701 1271 c 128,-1,75
 1679 1250 1679 1250 1658.5 1225.5 c 128,-1,76
 1638 1201 1638 1201 1621 1174 c 0,77,78
 1576 1103 1576 1103 1520 1010.5 c 128,-1,79
 1464 918 1464 918 1402.5 819 c 128,-1,80
 1341 720 1341 720 1277.5 622 c 128,-1,81
 1214 524 1214 524 1154 443 c 0,82,83
 1140 424 1140 424 1117 394.5 c 128,-1,84
 1094 365 1094 365 1065.5 328 c 128,-1,85
 1037 291 1037 291 1004 249 c 128,-1,86
 971 207 971 207 937 163 c 1,87,88
 1007 236 1007 236 1063 293 c 128,-1,89
 1119 350 1119 350 1170 401.5 c 128,-1,90
 1221 453 1221 453 1272.5 503.5 c 128,-1,91
 1324 554 1324 554 1386 614 c 128,-1,92
 1448 674 1448 674 1525 747.5 c 128,-1,93
 1602 821 1602 821 1705 918 c 0,94,95
 1930 1130 1930 1130 2103 1228 c 128,-1,96
 2276 1326 2276 1326 2401 1326 c 0,97,98
 2449 1326 2449 1326 2485.5 1314.5 c 128,-1,99
 2522 1303 2522 1303 2547 1282 c 128,-1,100
 2572 1261 2572 1261 2584.5 1232.5 c 128,-1,101
 2597 1204 2597 1204 2597 1170 c 0,102,103
 2597 1127 2597 1127 2576 1092 c 128,-1,104
 2555 1057 2555 1057 2520.5 1031.5 c 128,-1,105
 2486 1006 2486 1006 2442 992 c 128,-1,106
 2398 978 2398 978 2352 978 c 0,107,108
 2325 978 2325 978 2299 985.5 c 128,-1,109
 2273 993 2273 993 2253 1005 c 128,-1,110
 2233 1017 2233 1017 2221 1032.5 c 128,-1,111
 2209 1048 2209 1048 2209 1064 c 256,112,113
 2209 1080 2209 1080 2215.5 1088 c 128,-1,114
 2222 1096 2222 1096 2233 1096 c 0,115,116
 2247 1096 2247 1096 2251.5 1090 c 128,-1,117
 2256 1084 2256 1084 2260 1063 c 0,118,119
 2263 1045 2263 1045 2272.5 1032.5 c 128,-1,120
 2282 1020 2282 1020 2295 1012 c 128,-1,121
 2308 1004 2308 1004 2322.5 1000.5 c 128,-1,122
 2337 997 2337 997 2350 997 c 0,123,124
 2379 997 2379 997 2410 1010 c 128,-1,125
 2441 1023 2441 1023 2466 1045.5 c 128,-1,126
 2491 1068 2491 1068 2507 1099.5 c 128,-1,127
 2523 1131 2523 1131 2523 1169 c 0,128,129
 2523 1204 2523 1204 2510.5 1228 c 128,-1,130
 2498 1252 2498 1252 2476 1266.5 c 128,-1,131
 2454 1281 2454 1281 2425 1287.5 c 128,-1,132
 2396 1294 2396 1294 2362 1294 c 0,133,134
 2330 1294 2330 1294 2294 1285.5 c 128,-1,135
 2258 1277 2258 1277 2212.5 1255 c 128,-1,136
 2167 1233 2167 1233 2110.5 1196.5 c 128,-1,137
 2054 1160 2054 1160 1981 1103 c 128,-1,138
 1908 1046 1908 1046 1816 967.5 c 128,-1,139
 1724 889 1724 889 1609 784 c 0,140,141
 1562 741 1562 741 1517 700 c 128,-1,142
 1472 659 1472 659 1426 615 c 128,-1,143
 1380 571 1380 571 1330 522.5 c 128,-1,144
 1280 474 1280 474 1223 417 c 128,-1,145
 1166 360 1166 360 1100 292.5 c 128,-1,146
 1034 225 1034 225 956 143 c 0,147,148
 903 88 903 88 854.5 48.5 c 128,-1,149
 806 9 806 9 766.5 -16 c 128,-1,150
 727 -41 727 -41 699 -53 c 128,-1,151
 671 -65 671 -65 659 -65 c 0,152,153
 640 -65 640 -65 640 -50 c 0,154,155
 640 -42 640 -42 648.5 -37 c 128,-1,156
 657 -32 657 -32 668 -28 c 0,157,158
 692 -20 692 -20 712 -11.5 c 128,-1,159
 732 -3 732 -3 750 9.5 c 128,-1,160
 768 22 768 22 787 42 c 128,-1,161
 806 62 806 62 828.5 94 c 128,-1,162
 851 126 851 126 878.5 172.5 c 128,-1,163
 906 219 906 219 943 285 c 0,164,165
 974 340 974 340 1012 402.5 c 128,-1,166
 1050 465 1050 465 1089.5 527.5 c 128,-1,167
 1129 590 1129 590 1168 648.5 c 128,-1,168
 1207 707 1207 707 1240 752 c 0,169,170
 1253 770 1253 770 1277.5 801 c 128,-1,171
 1302 832 1302 832 1332 869.5 c 128,-1,172
 1362 907 1362 907 1396.5 949.5 c 128,-1,173
 1431 992 1431 992 1465 1034 c 128,-1,174
 1499 1076 1499 1076 1531 1114.5 c 128,-1,175
 1563 1153 1563 1153 1588 1183 c 1,176,177
 1533 1142 1533 1142 1469 1092.5 c 128,-1,178
 1405 1043 1405 1043 1342 985 c 1,179,180
 1287 933 1287 933 1220 868.5 c 128,-1,181
 1153 804 1153 804 1068.5 722 c 128,-1,182
 984 640 984 640 878 538 c 128,-1,183
 772 436 772 436 640 309 c 1,184,185
 574 247 574 247 515 199.5 c 128,-1,186
 456 152 456 152 402.5 114.5 c 128,-1,187
 349 77 349 77 300.5 47.5 c 128,-1,188
 252 18 252 18 207 -9 c 0,189,190
 190 -19 190 -19 171 -29 c 128,-1,191
 152 -39 152 -39 134 -47 c 128,-1,192
 116 -55 116 -55 101 -60 c 128,-1,193
 86 -65 86 -65 77 -65 c 0,194,195
 54 -65 54 -65 54 -51 c 0,0,1
-249 836 m 0,196,197
 -257 836 -257 836 -260 841 c 128,-1,198
 -263 846 -263 846 -263 851 c 0,199,200
 -263 861 -263 861 -258 880 c 128,-1,201
 -253 899 -253 899 -240.5 925 c 128,-1,202
 -228 951 -228 951 -206.5 982 c 128,-1,203
 -185 1013 -185 1013 -153 1048 c 0,204,205
 -100 1104 -100 1104 -41 1146 c 128,-1,206
 18 1188 18 1188 79 1215.5 c 128,-1,207
 140 1243 140 1243 200 1257 c 128,-1,208
 260 1271 260 1271 316 1271 c 0,209,210
 391 1271 391 1271 469 1253.5 c 128,-1,211
 547 1236 547 1236 620 1211 c 0,212,213
 666 1195 666 1195 701 1183.5 c 128,-1,214
 736 1172 736 1172 765.5 1164.5 c 128,-1,215
 795 1157 795 1157 822 1153.5 c 128,-1,216
 849 1150 849 1150 881 1150 c 0,217,218
 907 1150 907 1150 942.5 1157 c 128,-1,219
 978 1164 978 1164 1017.5 1179 c 128,-1,220
 1057 1194 1057 1194 1098 1217 c 128,-1,221
 1139 1240 1139 1240 1177 1271 c 0,222,223
 1191 1283 1191 1283 1198 1289 c 128,-1,224
 1205 1295 1205 1295 1208 1295 c 0,225,226
 1218 1295 1218 1295 1218 1288 c 0,227,228
 1218 1283 1218 1283 1214.5 1279 c 128,-1,229
 1211 1275 1211 1275 1202 1267 c 0,230,231
 1148 1217 1148 1217 1096.5 1184 c 128,-1,232
 1045 1151 1045 1151 994.5 1131 c 128,-1,233
 944 1111 944 1111 894.5 1102.5 c 128,-1,234
 845 1094 845 1094 795 1094 c 0,235,236
 755 1094 755 1094 718.5 1098 c 128,-1,237
 682 1102 682 1102 644.5 1109.5 c 128,-1,238
 607 1117 607 1117 566.5 1128.5 c 128,-1,239
 526 1140 526 1140 478 1156 c 0,240,241
 446 1166 446 1166 419 1173.5 c 128,-1,242
 392 1181 392 1181 367.5 1185.5 c 128,-1,243
 343 1190 343 1190 317.5 1192 c 128,-1,244
 292 1194 292 1194 263 1194 c 0,245,246
 206 1194 206 1194 145 1178.5 c 128,-1,247
 84 1163 84 1163 27 1135 c 128,-1,248
 -30 1107 -30 1107 -80.5 1068.5 c 128,-1,249
 -131 1030 -131 1030 -167 985 c 0,250,251
 -192 955 -192 955 -210.5 923 c 128,-1,252
 -229 891 -229 891 -229 861 c 0,253,254
 -229 848 -229 848 -236 842 c 128,-1,255
 -243 836 -243 836 -249 836 c 0,196,197
EndSplineSet
EndChar

StartChar: X
Encoding: 88 88 54
Width: 1546
Flags: W
LayerCount: 2
Fore
SplineSet
72 82 m 0,0,1
 72 114 72 114 92 135 c 128,-1,2
 112 156 112 156 138 156 c 0,3,4
 159 156 159 156 173.5 141.5 c 128,-1,5
 188 127 188 127 188 110 c 0,6,7
 188 89 188 89 174 75.5 c 128,-1,8
 160 62 160 62 141 62 c 0,9,10
 127 62 127 62 113 71 c 1,11,-1
 113 66 l 2,12,13
 113 55 113 55 121.5 43.5 c 128,-1,14
 130 32 130 32 145 23 c 128,-1,15
 160 14 160 14 181 8 c 128,-1,16
 202 2 202 2 228 2 c 0,17,18
 280 2 280 2 348 25 c 128,-1,19
 416 48 416 48 492 89.5 c 128,-1,20
 568 131 568 131 649 190 c 128,-1,21
 730 249 730 249 808.5 321 c 128,-1,22
 887 393 887 393 959.5 476 c 128,-1,23
 1032 559 1032 559 1091 650 c 1,24,25
 1127 715 1127 715 1161 790 c 128,-1,26
 1195 865 1195 865 1221 937 c 128,-1,27
 1247 1009 1247 1009 1262.5 1071 c 128,-1,28
 1278 1133 1278 1133 1278 1174 c 0,29,30
 1278 1265 1278 1265 1230.5 1308 c 128,-1,31
 1183 1351 1183 1351 1097 1351 c 0,32,33
 1031 1351 1031 1351 962.5 1325.5 c 128,-1,34
 894 1300 894 1300 829 1257.5 c 128,-1,35
 764 1215 764 1215 707.5 1160.5 c 128,-1,36
 651 1106 651 1106 608 1048.5 c 128,-1,37
 565 991 565 991 540.5 935 c 128,-1,38
 516 879 516 879 516 834 c 0,39,40
 516 787 516 787 538.5 760.5 c 128,-1,41
 561 734 561 734 606 734 c 0,42,43
 635 734 635 734 676.5 751 c 128,-1,44
 718 768 718 768 765 800.5 c 128,-1,45
 812 833 812 833 862 880 c 128,-1,46
 912 927 912 927 959 986.5 c 128,-1,47
 1006 1046 1006 1046 1046 1118 c 128,-1,48
 1086 1190 1086 1190 1114 1272 c 0,49,50
 1120 1291 1120 1291 1128 1291 c 0,51,52
 1131 1291 1131 1291 1134 1283.5 c 128,-1,53
 1137 1276 1137 1276 1137 1256 c 0,54,55
 1137 1196 1137 1196 1116 1131 c 128,-1,56
 1095 1066 1095 1066 1051.5 1001.5 c 128,-1,57
 1008 937 1008 937 941 876 c 128,-1,58
 874 815 874 815 782 763 c 0,59,60
 726 732 726 732 681.5 719 c 128,-1,61
 637 706 637 706 601 706 c 0,62,63
 548 706 548 706 517 741.5 c 128,-1,64
 486 777 486 777 486 834 c 0,65,66
 486 885 486 885 512.5 945.5 c 128,-1,67
 539 1006 539 1006 584.5 1066 c 128,-1,68
 630 1126 630 1126 690.5 1182.5 c 128,-1,69
 751 1239 751 1239 818.5 1282 c 128,-1,70
 886 1325 886 1325 957 1351 c 128,-1,71
 1028 1377 1028 1377 1094 1377 c 0,72,73
 1151 1377 1151 1377 1197.5 1365 c 128,-1,74
 1244 1353 1244 1353 1277 1323 c 128,-1,75
 1310 1293 1310 1293 1328.5 1241 c 128,-1,76
 1347 1189 1347 1189 1347 1110 c 0,77,78
 1347 1088 1347 1088 1340.5 1044.5 c 128,-1,79
 1334 1001 1334 1001 1323 948.5 c 128,-1,80
 1312 896 1312 896 1298 842 c 128,-1,81
 1284 788 1284 788 1268 745 c 1,82,83
 1391 896 1391 896 1508 1011.5 c 128,-1,84
 1625 1127 1625 1127 1733 1205.5 c 128,-1,85
 1841 1284 1841 1284 1938 1324 c 128,-1,86
 2035 1364 2035 1364 2119 1364 c 0,87,88
 2167 1364 2167 1364 2194.5 1343.5 c 128,-1,89
 2222 1323 2222 1323 2222 1294 c 256,90,91
 2222 1265 2222 1265 2207.5 1249.5 c 128,-1,92
 2193 1234 2193 1234 2173 1234 c 256,93,94
 2153 1234 2153 1234 2141 1248.5 c 128,-1,95
 2129 1263 2129 1263 2129 1282 c 0,96,97
 2129 1297 2129 1297 2137 1310 c 128,-1,98
 2145 1323 2145 1323 2156 1329 c 1,99,100
 2148 1331 2148 1331 2140 1333 c 128,-1,101
 2132 1335 2132 1335 2124 1335 c 0,102,103
 2040 1335 2040 1335 1951 1297 c 128,-1,104
 1862 1259 1862 1259 1770 1192.5 c 128,-1,105
 1678 1126 1678 1126 1583 1035.5 c 128,-1,106
 1488 945 1488 945 1392 839 c 0,107,108
 1367 811 1367 811 1348 789 c 128,-1,109
 1329 767 1329 767 1312 745.5 c 128,-1,110
 1295 724 1295 724 1278.5 700.5 c 128,-1,111
 1262 677 1262 677 1242 647 c 1,112,113
 1204 581 1204 581 1171 510.5 c 128,-1,114
 1138 440 1138 440 1114 374 c 128,-1,115
 1090 308 1090 308 1076 252 c 128,-1,116
 1062 196 1062 196 1062 159 c 0,117,118
 1062 112 1062 112 1074.5 82 c 128,-1,119
 1087 52 1087 52 1108 35 c 128,-1,120
 1129 18 1129 18 1156 11.5 c 128,-1,121
 1183 5 1183 5 1213 5 c 0,122,123
 1263 5 1263 5 1318 24.5 c 128,-1,124
 1373 44 1373 44 1425.5 79 c 128,-1,125
 1478 114 1478 114 1525 161.5 c 128,-1,126
 1572 209 1572 209 1607.5 264.5 c 128,-1,127
 1643 320 1643 320 1664 381.5 c 128,-1,128
 1685 443 1685 443 1685 506 c 0,129,130
 1685 590 1685 590 1661 629 c 128,-1,131
 1637 668 1637 668 1586 668 c 0,132,133
 1553 668 1553 668 1521.5 652 c 128,-1,134
 1490 636 1490 636 1465.5 610 c 128,-1,135
 1441 584 1441 584 1426 549.5 c 128,-1,136
 1411 515 1411 515 1411 478 c 0,137,138
 1411 420 1411 420 1435 420 c 0,139,140
 1441 420 1441 420 1443 421 c 0,141,142
 1446 422 1446 422 1451.5 422.5 c 128,-1,143
 1457 423 1457 423 1459 423 c 0,144,145
 1467 423 1467 423 1471.5 415.5 c 128,-1,146
 1476 408 1476 408 1476 402 c 0,147,148
 1476 394 1476 394 1467.5 389 c 128,-1,149
 1459 384 1459 384 1449 384 c 0,150,151
 1421 384 1421 384 1402 405.5 c 128,-1,152
 1383 427 1383 427 1383 470 c 0,153,154
 1383 515 1383 515 1402 555.5 c 128,-1,155
 1421 596 1421 596 1451 627 c 128,-1,156
 1481 658 1481 658 1518.5 676 c 128,-1,157
 1556 694 1556 694 1593 694 c 0,158,159
 1660 694 1660 694 1694 647.5 c 128,-1,160
 1728 601 1728 601 1728 524 c 0,161,162
 1728 463 1728 463 1707 398 c 128,-1,163
 1686 333 1686 333 1648.5 272 c 128,-1,164
 1611 211 1611 211 1560.5 157 c 128,-1,165
 1510 103 1510 103 1451.5 62 c 128,-1,166
 1393 21 1393 21 1328.5 -2.5 c 128,-1,167
 1264 -26 1264 -26 1200 -26 c 256,168,169
 1136 -26 1136 -26 1090.5 -11.5 c 128,-1,170
 1045 3 1045 3 1016 31 c 128,-1,171
 987 59 987 59 973.5 100 c 128,-1,172
 960 141 960 141 960 193 c 0,173,174
 960 271 960 271 982.5 356.5 c 128,-1,175
 1005 442 1005 442 1043 515 c 1,176,177
 935 383 935 383 820 282 c 128,-1,178
 705 181 705 181 595.5 112.5 c 128,-1,179
 486 44 486 44 389.5 9 c 128,-1,180
 293 -26 293 -26 223 -26 c 0,181,182
 183 -26 183 -26 154.5 -16 c 128,-1,183
 126 -6 126 -6 107.5 9.5 c 128,-1,184
 89 25 89 25 80.5 44.5 c 128,-1,185
 72 64 72 64 72 82 c 0,0,1
EndSplineSet
EndChar

